<ttFont>
    <TTGlyph name=".notdef" xMin="91" yMin="243" xMax="227" yMax="367">
      <contour>
        <pt x="91" y="243" on="1"/>
        <pt x="113" y="367" on="1"/>
        <pt x="227" y="367" on="1"/>
        <pt x="205" y="243" on="1"/>
      </contour>
    </TTGlyph>
    <TTGlyph name="A" xMin="-40" yMin="0" xMax="519" yMax="700">
      <contour>
        <pt x="396" y="0" on="1"/>
        <pt x="374" y="175" on="1"/>
        <pt x="167" y="175" on="1"/>
        <pt x="83" y="0" on="1"/>
        <pt x="-40" y="0" on="1"/>
        <pt x="307" y="700" on="1"/>
        <pt x="418" y="700" on="1"/>
        <pt x="519" y="0" on="1"/>
      </contour>
      <contour>
        <pt x="330" y="520" on="1"/>
        <pt x="226" y="287" on="1"/>
        <pt x="353" y="287" on="1"/>
      </contour>
    </TTGlyph>
    <TTGlyph name="A.sc" xMin="-41" yMin="0" xMax="456" yMax="574">
      <contour>
        <pt x="340" y="0" on="1"/>
        <pt x="318" y="134" on="1"/>
        <pt x="145" y="134" on="1"/>
        <pt x="77" y="0" on="1"/>
        <pt x="-41" y="0" on="1"/>
        <pt x="257" y="574" on="1"/>
        <pt x="361" y="574" on="1"/>
        <pt x="456" y="0" on="1"/>
      </contour>
      <contour>
        <pt x="276" y="393" on="1"/>
        <pt x="204" y="244" on="1"/>
        <pt x="298" y="244" on="1"/>
      </contour>
    </TTGlyph>
    <TTGlyph name="AE" xMin="-55" yMin="0" xMax="821" yMax="700">
      <contour>
        <pt x="433" y="0" on="1"/>
        <pt x="313" y="0" on="1"/>
        <pt x="343" y="172" on="1"/>
        <pt x="170" y="172" on="1"/>
        <pt x="67" y="0" on="1"/>
        <pt x="-55" y="0" on="1"/>
        <pt x="375" y="700" on="1"/>
        <pt x="821" y="700" on="1"/>
        <pt x="801" y="588" on="1"/>
        <pt x="536" y="588" on="1"/>
        <pt x="506" y="421" on="1"/>
        <pt x="711" y="421" on="1"/>
        <pt x="691" y="309" on="1"/>
        <pt x="487" y="309" on="1"/>
        <pt x="452" y="112" on="1"/>
        <pt x="725" y="112" on="1"/>
        <pt x="705" y="0" on="1"/>
      </contour>
      <contour>
        <pt x="416" y="585" on="1"/>
        <pt x="245" y="286" on="1"/>
        <pt x="363" y="286" on="1"/>
      </contour>
    </TTGlyph>
    <TTGlyph name="AE.sc" xMin="-56" yMin="0" xMax="712" yMax="574">
      <contour>
        <pt x="387" y="0" on="1"/>
        <pt x="272" y="0" on="1"/>
        <pt x="296" y="136" on="1"/>
        <pt x="149" y="136" on="1"/>
        <pt x="64" y="0" on="1"/>
        <pt x="-56" y="0" on="1"/>
        <pt x="316" y="574" on="1"/>
        <pt x="712" y="574" on="1"/>
        <pt x="693" y="464" on="1"/>
        <pt x="464" y="464" on="1"/>
        <pt x="444" y="354" on="1"/>
        <pt x="621" y="354" on="1"/>
        <pt x="602" y="245" on="1"/>
        <pt x="425" y="245" on="1"/>
        <pt x="401" y="110" on="1"/>
        <pt x="638" y="110" on="1"/>
        <pt x="618" y="0" on="1"/>
      </contour>
      <contour>
        <pt x="353" y="462" on="1"/>
        <pt x="221" y="245" on="1"/>
        <pt x="315" y="245" on="1"/>
      </contour>
    </TTGlyph>
    <TTGlyph name="Aacute" xMin="-40" yMin="0" xMax="519" yMax="947">
      <component glyphName="A" x="0" y="0" flags="0x204"/>
      <component glyphName="acute" x="137" y="203" flags="0x4"/>
    </TTGlyph>
    <TTGlyph name="Acircumflex" xMin="-40" yMin="0" xMax="522" yMax="951">
      <component glyphName="A" x="0" y="0" flags="0x204"/>
      <component glyphName="circumflex" x="70" y="203" flags="0x4"/>
    </TTGlyph>
    <TTGlyph name="Adieresis" xMin="-40" yMin="0" xMax="519" yMax="903">
      <component glyphName="A" x="0" y="0" flags="0x204"/>
      <component glyphName="dieresis" x="80" y="203" flags="0x4"/>
    </TTGlyph>
    <TTGlyph name="Agrave" xMin="-40" yMin="0" xMax="519" yMax="947">
      <component glyphName="A" x="0" y="0" flags="0x204"/>
      <component glyphName="grave" x="137" y="203" flags="0x4"/>
    </TTGlyph>
    <TTGlyph name="Aring" xMin="-40" yMin="0" xMax="519" yMax="958">
      <component glyphName="A" x="0" y="0" flags="0x204"/>
      <component glyphName="ring" x="141" y="203" flags="0x4"/>
    </TTGlyph>
    <TTGlyph name="Atilde" xMin="-40" yMin="0" xMax="569" yMax="918">
      <component glyphName="A" x="0" y="0" flags="0x204"/>
      <component glyphName="tilde" x="32" y="203" flags="0x4"/>
    </TTGlyph>
    <TTGlyph name="B" xMin="27" yMin="0" xMax="538" yMax="700">
      <contour>
        <pt x="145" y="0" on="1"/>
        <pt x="27" y="0" on="1"/>
        <pt x="150" y="700" on="1"/>
        <pt x="323" y="700" on="1"/>
        <pt x="371" y="700" on="0"/>
        <pt x="450" y="690" on="0"/>
        <pt x="506" y="660" on="0"/>
        <pt x="537" y="606" on="0"/>
        <pt x="537" y="562" on="1"/>
        <pt x="537" y="496" on="0"/>
        <pt x="491" y="409" on="0"/>
        <pt x="453" y="374" on="1"/>
        <pt x="495" y="354" on="0"/>
        <pt x="538" y="289" on="0"/>
        <pt x="538" y="240" on="1"/>
        <pt x="538" y="168" on="0"/>
        <pt x="489" y="75" on="0"/>
        <pt x="411" y="21" on="0"/>
        <pt x="317" y="0" on="0"/>
        <pt x="272" y="0" on="1"/>
      </contour>
      <contour>
        <pt x="250" y="598" on="1"/>
        <pt x="218" y="416" on="1"/>
        <pt x="331" y="416" on="1"/>
        <pt x="345" y="416" on="0"/>
        <pt x="378" y="424" on="0"/>
        <pt x="406" y="450" on="0"/>
        <pt x="425" y="496" on="0"/>
        <pt x="425" y="535" on="1"/>
        <pt x="425" y="575" on="0"/>
        <pt x="386" y="598" on="0"/>
        <pt x="354" y="598" on="1"/>
      </contour>
      <contour>
        <pt x="201" y="320" on="1"/>
        <pt x="162" y="102" on="1"/>
        <pt x="277" y="102" on="1"/>
        <pt x="310" y="102" on="0"/>
        <pt x="362" y="114" on="0"/>
        <pt x="398" y="145" on="0"/>
        <pt x="417" y="196" on="0"/>
        <pt x="417" y="235" on="1"/>
        <pt x="417" y="284" on="0"/>
        <pt x="361" y="320" on="0"/>
        <pt x="319" y="320" on="1"/>
      </contour>
    </TTGlyph>
    <TTGlyph name="B.sc" xMin="21" yMin="0" xMax="481" yMax="574">
      <contour>
        <pt x="21" y="0" on="1"/>
        <pt x="122" y="574" on="1"/>
        <pt x="283" y="574" on="1"/>
        <pt x="325" y="574" on="0"/>
        <pt x="396" y="566" on="0"/>
        <pt x="447" y="540" on="0"/>
        <pt x="475" y="494" on="0"/>
        <pt x="475" y="457" on="1"/>
        <pt x="475" y="401" on="0"/>
        <pt x="430" y="327" on="0"/>
        <pt x="403" y="307" on="1"/>
        <pt x="439" y="292" on="0"/>
        <pt x="481" y="239" on="0"/>
        <pt x="481" y="195" on="1"/>
        <pt x="481" y="139" on="0"/>
        <pt x="437" y="65" on="0"/>
        <pt x="369" y="19" on="0"/>
        <pt x="285" y="0" on="0"/>
        <pt x="246" y="0" on="1"/>
        <pt x="136" y="0" on="1"/>
      </contour>
      <contour>
        <pt x="219" y="480" on="1"/>
        <pt x="195" y="346" on="1"/>
        <pt x="297" y="346" on="1"/>
        <pt x="306" y="346" on="0"/>
        <pt x="331" y="354" on="0"/>
        <pt x="354" y="373" on="0"/>
        <pt x="369" y="405" on="0"/>
        <pt x="369" y="429" on="1"/>
        <pt x="369" y="458" on="0"/>
        <pt x="342" y="480" on="0"/>
        <pt x="316" y="480" on="1"/>
      </contour>
      <contour>
        <pt x="180" y="260" on="1"/>
        <pt x="151" y="95" on="1"/>
        <pt x="261" y="95" on="1"/>
        <pt x="310" y="95" on="0"/>
        <pt x="364" y="142" on="0"/>
        <pt x="364" y="195" on="1"/>
        <pt x="364" y="231" on="0"/>
        <pt x="318" y="260" on="0"/>
        <pt x="280" y="260" on="1"/>
      </contour>
    </TTGlyph>
    <TTGlyph name="C" xMin="44" yMin="-14" xMax="599" yMax="714">
      <contour>
        <pt x="298" y="-14" on="1"/>
        <pt x="240" y="-14" on="0"/>
        <pt x="146" y="27" on="0"/>
        <pt x="80" y="104" on="0"/>
        <pt x="44" y="212" on="0"/>
        <pt x="44" y="278" on="1"/>
        <pt x="44" y="374" on="0"/>
        <pt x="105" y="534" on="0"/>
        <pt x="209" y="650" on="0"/>
        <pt x="349" y="714" on="0"/>
        <pt x="427" y="714" on="1"/>
        <pt x="476" y="714" on="0"/>
        <pt x="567" y="691" on="0"/>
        <pt x="599" y="673" on="1"/>
        <pt x="566" y="562" on="1"/>
        <pt x="530" y="578" on="0"/>
        <pt x="456" y="603" on="0"/>
        <pt x="407" y="603" on="1"/>
        <pt x="351" y="603" on="0"/>
        <pt x="265" y="551" on="0"/>
        <pt x="205" y="464" on="0"/>
        <pt x="174" y="349" on="0"/>
        <pt x="174" y="287" on="1"/>
        <pt x="174" y="246" on="0"/>
        <pt x="191" y="176" on="0"/>
        <pt x="227" y="125" on="0"/>
        <pt x="281" y="97" on="0"/>
        <pt x="317" y="97" on="1"/>
        <pt x="367" y="97" on="0"/>
        <pt x="449" y="121" on="0"/>
        <pt x="491" y="138" on="1"/>
        <pt x="485" y="27" on="1"/>
        <pt x="447" y="8" on="0"/>
        <pt x="348" y="-14" on="0"/>
      </contour>
    </TTGlyph>
    <TTGlyph name="C.sc" xMin="32" yMin="-12" xMax="517" yMax="586">
      <contour>
        <pt x="258" y="-12" on="1"/>
        <pt x="207" y="-12" on="0"/>
        <pt x="123" y="23" on="0"/>
        <pt x="64" y="87" on="0"/>
        <pt x="32" y="177" on="0"/>
        <pt x="32" y="232" on="1"/>
        <pt x="32" y="310" on="0"/>
        <pt x="85" y="440" on="0"/>
        <pt x="175" y="534" on="0"/>
        <pt x="296" y="586" on="0"/>
        <pt x="364" y="586" on="1"/>
        <pt x="409" y="586" on="0"/>
        <pt x="489" y="568" on="0"/>
        <pt x="517" y="552" on="1"/>
        <pt x="486" y="445" on="1"/>
        <pt x="453" y="460" on="0"/>
        <pt x="389" y="477" on="0"/>
        <pt x="344" y="477" on="1"/>
        <pt x="298" y="477" on="0"/>
        <pt x="228" y="439" on="0"/>
        <pt x="181" y="375" on="0"/>
        <pt x="157" y="289" on="0"/>
        <pt x="157" y="241" on="1"/>
        <pt x="157" y="177" on="0"/>
        <pt x="216" y="98" on="0"/>
        <pt x="276" y="98" on="1"/>
        <pt x="321" y="98" on="0"/>
        <pt x="392" y="115" on="0"/>
        <pt x="430" y="130" on="1"/>
        <pt x="424" y="22" on="1"/>
        <pt x="391" y="6" on="0"/>
        <pt x="303" y="-12" on="0"/>
      </contour>
    </TTGlyph>
    <TTGlyph name="Ccaron" xMin="44" yMin="-14" xMax="599" yMax="950">
      <component glyphName="C" x="0" y="0" flags="0x204"/>
      <component glyphName="caron" x="105" y="203" flags="0x4"/>
    </TTGlyph>
    <TTGlyph name="Ccedilla" xMin="44" yMin="-193" xMax="599" yMax="714">
      <component glyphName="C" x="0" y="0" flags="0x204"/>
      <component glyphName="cedilla" x="30" y="0" flags="0x4"/>
    </TTGlyph>
    <TTGlyph name="D" xMin="27" yMin="0" xMax="643" yMax="700">
      <contour>
        <pt x="27" y="0" on="1"/>
        <pt x="150" y="700" on="1"/>
        <pt x="386" y="700" on="1"/>
        <pt x="444" y="700" on="0"/>
        <pt x="539" y="662" on="0"/>
        <pt x="607" y="590" on="0"/>
        <pt x="643" y="486" on="0"/>
        <pt x="643" y="420" on="1"/>
        <pt x="643" y="324" on="0"/>
        <pt x="583" y="169" on="0"/>
        <pt x="479" y="59" on="0"/>
        <pt x="341" y="0" on="0"/>
        <pt x="263" y="0" on="1"/>
        <pt x="150" y="0" on="1"/>
      </contour>
      <contour>
        <pt x="249" y="589" on="1"/>
        <pt x="165" y="111" on="1"/>
        <pt x="283" y="111" on="1"/>
        <pt x="339" y="111" on="0"/>
        <pt x="425" y="158" on="0"/>
        <pt x="483" y="239" on="0"/>
        <pt x="513" y="348" on="0"/>
        <pt x="513" y="410" on="1"/>
        <pt x="513" y="492" on="0"/>
        <pt x="442" y="589" on="0"/>
        <pt x="367" y="589" on="1"/>
      </contour>
    </TTGlyph>
    <TTGlyph name="D.sc" xMin="21" yMin="0" xMax="560" yMax="574">
      <contour>
        <pt x="21" y="0" on="1"/>
        <pt x="122" y="574" on="1"/>
        <pt x="332" y="574" on="1"/>
        <pt x="383" y="574" on="0"/>
        <pt x="467" y="542" on="0"/>
        <pt x="527" y="482" on="0"/>
        <pt x="560" y="396" on="0"/>
        <pt x="560" y="342" on="1"/>
        <pt x="560" y="263" on="0"/>
        <pt x="508" y="137" on="0"/>
        <pt x="419" y="48" on="0"/>
        <pt x="299" y="0" on="0"/>
        <pt x="231" y="0" on="1"/>
        <pt x="134" y="0" on="1"/>
      </contour>
      <contour>
        <pt x="216" y="465" on="1"/>
        <pt x="153" y="109" on="1"/>
        <pt x="250" y="109" on="1"/>
        <pt x="296" y="109" on="0"/>
        <pt x="366" y="142" on="0"/>
        <pt x="412" y="202" on="0"/>
        <pt x="435" y="283" on="0"/>
        <pt x="435" y="331" on="1"/>
        <pt x="435" y="394" on="0"/>
        <pt x="376" y="465" on="0"/>
        <pt x="313" y="465" on="1"/>
      </contour>
    </TTGlyph>
    <TTGlyph name="E" xMin="27" yMin="0" xMax="555" yMax="700">
      <contour>
        <pt x="150" y="0" on="1"/>
        <pt x="27" y="0" on="1"/>
        <pt x="150" y="700" on="1"/>
        <pt x="555" y="700" on="1"/>
        <pt x="536" y="588" on="1"/>
        <pt x="251" y="588" on="1"/>
        <pt x="222" y="421" on="1"/>
        <pt x="442" y="421" on="1"/>
        <pt x="422" y="309" on="1"/>
        <pt x="202" y="309" on="1"/>
        <pt x="168" y="112" on="1"/>
        <pt x="461" y="112" on="1"/>
        <pt x="441" y="0" on="1"/>
      </contour>
    </TTGlyph>
    <TTGlyph name="E.sc" xMin="21" yMin="0" xMax="485" yMax="574">
      <contour>
        <pt x="140" y="0" on="1"/>
        <pt x="21" y="0" on="1"/>
        <pt x="122" y="574" on="1"/>
        <pt x="485" y="574" on="1"/>
        <pt x="466" y="464" on="1"/>
        <pt x="220" y="464" on="1"/>
        <pt x="201" y="354" on="1"/>
        <pt x="390" y="354" on="1"/>
        <pt x="370" y="245" on="1"/>
        <pt x="181" y="245" on="1"/>
        <pt x="157" y="110" on="1"/>
        <pt x="412" y="110" on="1"/>
        <pt x="392" y="0" on="1"/>
      </contour>
    </TTGlyph>
    <TTGlyph name="Eacute" xMin="27" yMin="0" xMax="555" yMax="947">
      <component glyphName="E" x="0" y="0" flags="0x204"/>
      <component glyphName="acute" x="102" y="203" flags="0x4"/>
    </TTGlyph>
    <TTGlyph name="Ecircumflex" xMin="27" yMin="0" xMax="555" yMax="951">
      <component glyphName="E" x="0" y="0" flags="0x204"/>
      <component glyphName="circumflex" x="36" y="203" flags="0x4"/>
    </TTGlyph>
    <TTGlyph name="Edieresis" xMin="27" yMin="0" xMax="555" yMax="903">
      <component glyphName="E" x="0" y="0" flags="0x204"/>
      <component glyphName="dieresis" x="47" y="203" flags="0x4"/>
    </TTGlyph>
    <TTGlyph name="Egrave" xMin="27" yMin="0" xMax="555" yMax="947">
      <component glyphName="E" x="0" y="0" flags="0x204"/>
      <component glyphName="grave" x="100" y="203" flags="0x4"/>
    </TTGlyph>
    <TTGlyph name="Eth" xMin="6" yMin="0" xMax="651" yMax="700">
      <contour>
        <pt x="35" y="0" on="1"/>
        <pt x="88" y="303" on="1"/>
        <pt x="6" y="303" on="1"/>
        <pt x="21" y="388" on="1"/>
        <pt x="103" y="388" on="1"/>
        <pt x="159" y="700" on="1"/>
        <pt x="395" y="700" on="1"/>
        <pt x="453" y="700" on="0"/>
        <pt x="548" y="662" on="0"/>
        <pt x="615" y="590" on="0"/>
        <pt x="651" y="486" on="0"/>
        <pt x="651" y="420" on="1"/>
        <pt x="651" y="324" on="0"/>
        <pt x="591" y="169" on="0"/>
        <pt x="488" y="59" on="0"/>
        <pt x="349" y="0" on="0"/>
        <pt x="271" y="0" on="1"/>
        <pt x="155" y="0" on="1"/>
      </contour>
      <contour>
        <pt x="257" y="589" on="1"/>
        <pt x="221" y="388" on="1"/>
        <pt x="331" y="388" on="1"/>
        <pt x="315" y="303" on="1"/>
        <pt x="207" y="303" on="1"/>
        <pt x="173" y="112" on="1"/>
        <pt x="291" y="112" on="1"/>
        <pt x="347" y="112" on="0"/>
        <pt x="433" y="158" on="0"/>
        <pt x="492" y="239" on="0"/>
        <pt x="522" y="348" on="0"/>
        <pt x="522" y="411" on="1"/>
        <pt x="522" y="492" on="0"/>
        <pt x="450" y="589" on="0"/>
        <pt x="375" y="589" on="1"/>
      </contour>
    </TTGlyph>
    <TTGlyph name="Euro" xMin="18" yMin="17" xMax="652" yMax="683">
      <contour>
        <pt x="377" y="17" on="1"/>
        <pt x="286" y="17" on="0"/>
        <pt x="165" y="119" on="0"/>
        <pt x="148" y="211" on="1"/>
        <pt x="18" y="211" on="1"/>
        <pt x="60" y="292" on="1"/>
        <pt x="143" y="292" on="1"/>
        <pt x="144" y="306" on="0"/>
        <pt x="149" y="344" on="0"/>
        <pt x="152" y="361" on="1"/>
        <pt x="68" y="361" on="1"/>
        <pt x="111" y="443" on="1"/>
        <pt x="176" y="443" on="1"/>
        <pt x="198" y="499" on="0"/>
        <pt x="265" y="588" on="0"/>
        <pt x="348" y="650" on="0"/>
        <pt x="444" y="683" on="0"/>
        <pt x="495" y="683" on="1"/>
        <pt x="538" y="683" on="0"/>
        <pt x="620" y="665" on="0"/>
        <pt x="652" y="647" on="1"/>
        <pt x="620" y="539" on="1"/>
        <pt x="587" y="556" on="0"/>
        <pt x="520" y="578" on="0"/>
        <pt x="476" y="578" on="1"/>
        <pt x="413" y="578" on="0"/>
        <pt x="325" y="506" on="0"/>
        <pt x="297" y="443" on="1"/>
        <pt x="522" y="443" on="1"/>
        <pt x="479" y="361" on="1"/>
        <pt x="271" y="361" on="1"/>
        <pt x="267" y="348" on="0"/>
        <pt x="262" y="303" on="0"/>
        <pt x="262" y="292" on="1"/>
        <pt x="479" y="292" on="1"/>
        <pt x="438" y="211" on="1"/>
        <pt x="274" y="211" on="1"/>
        <pt x="299" y="122" on="0"/>
        <pt x="396" y="122" on="1"/>
        <pt x="440" y="122" on="0"/>
        <pt x="514" y="144" on="0"/>
        <pt x="553" y="161" on="1"/>
        <pt x="547" y="53" on="1"/>
        <pt x="509" y="35" on="0"/>
        <pt x="421" y="17" on="0"/>
      </contour>
    </TTGlyph>
    <TTGlyph name="F" xMin="27" yMin="0" xMax="539" yMax="700">
      <contour>
        <pt x="249" y="588" on="1"/>
        <pt x="219" y="421" on="1"/>
        <pt x="428" y="421" on="1"/>
        <pt x="408" y="309" on="1"/>
        <pt x="199" y="309" on="1"/>
        <pt x="145" y="0" on="1"/>
        <pt x="27" y="0" on="1"/>
        <pt x="150" y="700" on="1"/>
        <pt x="539" y="700" on="1"/>
        <pt x="519" y="588" on="1"/>
      </contour>
    </TTGlyph>
    <TTGlyph name="F.sc" xMin="21" yMin="0" xMax="467" yMax="574">
      <contour>
        <pt x="216" y="464" on="1"/>
        <pt x="196" y="354" on="1"/>
        <pt x="375" y="354" on="1"/>
        <pt x="355" y="245" on="1"/>
        <pt x="177" y="245" on="1"/>
        <pt x="134" y="0" on="1"/>
        <pt x="21" y="0" on="1"/>
        <pt x="122" y="574" on="1"/>
        <pt x="467" y="574" on="1"/>
        <pt x="447" y="464" on="1"/>
      </contour>
    </TTGlyph>
    <TTGlyph name="G" xMin="44" yMin="-14" xMax="612" yMax="714">
      <contour>
        <pt x="295" y="-14" on="1"/>
        <pt x="238" y="-14" on="0"/>
        <pt x="146" y="27" on="0"/>
        <pt x="80" y="104" on="0"/>
        <pt x="44" y="212" on="0"/>
        <pt x="44" y="279" on="1"/>
        <pt x="44" y="375" on="0"/>
        <pt x="104" y="534" on="0"/>
        <pt x="209" y="650" on="0"/>
        <pt x="350" y="714" on="0"/>
        <pt x="430" y="714" on="1"/>
        <pt x="453" y="714" on="0"/>
        <pt x="504" y="708" on="0"/>
        <pt x="553" y="698" on="0"/>
        <pt x="596" y="682" on="0"/>
        <pt x="612" y="673" on="1"/>
        <pt x="580" y="563" on="1"/>
        <pt x="546" y="580" on="0"/>
        <pt x="455" y="603" on="0"/>
        <pt x="413" y="603" on="1"/>
        <pt x="353" y="603" on="0"/>
        <pt x="263" y="550" on="0"/>
        <pt x="203" y="463" on="0"/>
        <pt x="174" y="351" on="0"/>
        <pt x="174" y="291" on="1"/>
        <pt x="174" y="249" on="0"/>
        <pt x="193" y="177" on="0"/>
        <pt x="231" y="126" on="0"/>
        <pt x="290" y="97" on="0"/>
        <pt x="329" y="97" on="1"/>
        <pt x="349" y="97" on="0"/>
        <pt x="392" y="103" on="0"/>
        <pt x="416" y="111" on="1"/>
        <pt x="441" y="251" on="1"/>
        <pt x="374" y="251" on="1"/>
        <pt x="391" y="351" on="1"/>
        <pt x="576" y="351" on="1"/>
        <pt x="558" y="248" on="1"/>
        <pt x="521" y="39" on="1"/>
        <pt x="502" y="28" on="0"/>
        <pt x="447" y="9" on="0"/>
        <pt x="385" y="-6" on="0"/>
        <pt x="322" y="-14" on="0"/>
      </contour>
    </TTGlyph>
    <TTGlyph name="G.sc" xMin="33" yMin="-12" xMax="530" yMax="586">
      <contour>
        <pt x="259" y="-12" on="1"/>
        <pt x="208" y="-12" on="0"/>
        <pt x="125" y="23" on="0"/>
        <pt x="65" y="87" on="0"/>
        <pt x="33" y="177" on="0"/>
        <pt x="33" y="233" on="1"/>
        <pt x="33" y="310" on="0"/>
        <pt x="85" y="440" on="0"/>
        <pt x="176" y="534" on="0"/>
        <pt x="298" y="586" on="0"/>
        <pt x="368" y="586" on="1"/>
        <pt x="388" y="586" on="0"/>
        <pt x="434" y="581" on="0"/>
        <pt x="478" y="572" on="0"/>
        <pt x="516" y="560" on="0"/>
        <pt x="530" y="552" on="1"/>
        <pt x="498" y="443" on="1"/>
        <pt x="469" y="457" on="0"/>
        <pt x="389" y="477" on="0"/>
        <pt x="352" y="477" on="1"/>
        <pt x="303" y="477" on="0"/>
        <pt x="230" y="439" on="0"/>
        <pt x="182" y="375" on="0"/>
        <pt x="159" y="292" on="0"/>
        <pt x="159" y="246" on="1"/>
        <pt x="159" y="180" on="0"/>
        <pt x="221" y="98" on="0"/>
        <pt x="286" y="98" on="1"/>
        <pt x="303" y="98" on="0"/>
        <pt x="336" y="102" on="0"/>
        <pt x="356" y="105" on="1"/>
        <pt x="373" y="196" on="1"/>
        <pt x="324" y="196" on="1"/>
        <pt x="340" y="288" on="1"/>
        <pt x="502" y="288" on="1"/>
        <pt x="485" y="194" on="1"/>
        <pt x="456" y="32" on="1"/>
        <pt x="440" y="23" on="0"/>
        <pt x="392" y="7" on="0"/>
        <pt x="338" y="-5" on="0"/>
        <pt x="282" y="-12" on="0"/>
      </contour>
    </TTGlyph>
    <TTGlyph name="H" xMin="27" yMin="0" xMax="678" yMax="700">
      <contour>
        <pt x="436" y="0" on="1"/>
        <pt x="491" y="309" on="1"/>
        <pt x="199" y="309" on="1"/>
        <pt x="145" y="0" on="1"/>
        <pt x="27" y="0" on="1"/>
        <pt x="150" y="700" on="1"/>
        <pt x="268" y="700" on="1"/>
        <pt x="219" y="422" on="1"/>
        <pt x="511" y="422" on="1"/>
        <pt x="560" y="700" on="1"/>
        <pt x="678" y="700" on="1"/>
        <pt x="554" y="0" on="1"/>
      </contour>
    </TTGlyph>
    <TTGlyph name="H.sc" xMin="21" yMin="0" xMax="588" yMax="574">
      <contour>
        <pt x="373" y="0" on="1"/>
        <pt x="416" y="245" on="1"/>
        <pt x="177" y="245" on="1"/>
        <pt x="134" y="0" on="1"/>
        <pt x="21" y="0" on="1"/>
        <pt x="122" y="574" on="1"/>
        <pt x="235" y="574" on="1"/>
        <pt x="196" y="354" on="1"/>
        <pt x="436" y="354" on="1"/>
        <pt x="474" y="574" on="1"/>
        <pt x="588" y="574" on="1"/>
        <pt x="486" y="0" on="1"/>
      </contour>
    </TTGlyph>
    <TTGlyph name="I" xMin="27" yMin="0" xMax="268" yMax="700">
      <contour>
        <pt x="27" y="0" on="1"/>
        <pt x="150" y="700" on="1"/>
        <pt x="268" y="700" on="1"/>
        <pt x="145" y="0" on="1"/>
      </contour>
    </TTGlyph>
    <TTGlyph name="I.sc" xMin="21" yMin="0" xMax="236" yMax="574">
      <contour>
        <pt x="21" y="0" on="1"/>
        <pt x="122" y="574" on="1"/>
        <pt x="236" y="574" on="1"/>
        <pt x="134" y="0" on="1"/>
      </contour>
    </TTGlyph>
    <TTGlyph name="Iacute" xMin="27" yMin="0" xMax="338" yMax="947">
      <component glyphName="I" x="0" y="0" flags="0x204"/>
      <component glyphName="acute" x="-15" y="203" flags="0x4"/>
    </TTGlyph>
    <TTGlyph name="Icircumflex" xMin="27" yMin="0" xMax="371" yMax="951">
      <component glyphName="I" x="0" y="0" flags="0x204"/>
      <component glyphName="circumflex" x="-81" y="203" flags="0x4"/>
    </TTGlyph>
    <TTGlyph name="Idieresis" xMin="27" yMin="0" xMax="358" yMax="903">
      <component glyphName="I" x="0" y="0" flags="0x204"/>
      <component glyphName="dieresis" x="-71" y="203" flags="0x4"/>
    </TTGlyph>
    <TTGlyph name="Igrave" xMin="27" yMin="0" xMax="323" yMax="947">
      <component glyphName="I" x="0" y="0" flags="0x204"/>
      <component glyphName="grave" x="-16" y="203" flags="0x4"/>
    </TTGlyph>
    <TTGlyph name="J" xMin="-72" yMin="-172" xMax="262" yMax="700">
      <contour>
        <pt x="-72" y="-172" on="1"/>
        <pt x="-66" y="-88" on="1"/>
        <pt x="-40" y="-88" on="1"/>
        <pt x="-15" y="-88" on="0"/>
        <pt x="12" y="-45" on="0"/>
        <pt x="20" y="2" on="1"/>
        <pt x="144" y="700" on="1"/>
        <pt x="262" y="700" on="1"/>
        <pt x="134" y="-26" on="1"/>
        <pt x="121" y="-100" on="0"/>
        <pt x="29" y="-172" on="0"/>
        <pt x="-38" y="-172" on="1"/>
      </contour>
    </TTGlyph>
    <TTGlyph name="J.sc" xMin="-58" yMin="-141" xMax="231" yMax="574">
      <contour>
        <pt x="-58" y="-141" on="1"/>
        <pt x="-50" y="-53" on="1"/>
        <pt x="-21" y="-53" on="1"/>
        <pt x="7" y="-53" on="0"/>
        <pt x="17" y="4" on="1"/>
        <pt x="118" y="574" on="1"/>
        <pt x="231" y="574" on="1"/>
        <pt x="127" y="-18" on="1"/>
        <pt x="116" y="-81" on="0"/>
        <pt x="34" y="-141" on="0"/>
        <pt x="-22" y="-141" on="1"/>
      </contour>
    </TTGlyph>
    <TTGlyph name="K" xMin="27" yMin="0" xMax="641" yMax="700">
      <contour>
        <pt x="384" y="0" on="1"/>
        <pt x="231" y="370" on="1"/>
        <pt x="507" y="700" on="1"/>
        <pt x="641" y="700" on="1"/>
        <pt x="364" y="370" on="1"/>
        <pt x="518" y="0" on="1"/>
      </contour>
      <contour>
        <pt x="27" y="0" on="1"/>
        <pt x="150" y="700" on="1"/>
        <pt x="267" y="700" on="1"/>
        <pt x="144" y="0" on="1"/>
      </contour>
    </TTGlyph>
    <TTGlyph name="K.sc" xMin="21" yMin="0" xMax="569" yMax="574">
      <contour>
        <pt x="339" y="0" on="1"/>
        <pt x="204" y="304" on="1"/>
        <pt x="440" y="574" on="1"/>
        <pt x="569" y="574" on="1"/>
        <pt x="333" y="304" on="1"/>
        <pt x="467" y="0" on="1"/>
      </contour>
      <contour>
        <pt x="21" y="0" on="1"/>
        <pt x="123" y="574" on="1"/>
        <pt x="236" y="574" on="1"/>
        <pt x="134" y="0" on="1"/>
      </contour>
    </TTGlyph>
    <TTGlyph name="L" xMin="27" yMin="0" xMax="421" yMax="700">
      <contour>
        <pt x="27" y="0" on="1"/>
        <pt x="150" y="700" on="1"/>
        <pt x="268" y="700" on="1"/>
        <pt x="165" y="112" on="1"/>
        <pt x="421" y="112" on="1"/>
        <pt x="401" y="0" on="1"/>
      </contour>
    </TTGlyph>
    <TTGlyph name="L.sc" xMin="21" yMin="0" xMax="371" yMax="574">
      <contour>
        <pt x="21" y="0" on="1"/>
        <pt x="122" y="574" on="1"/>
        <pt x="235" y="574" on="1"/>
        <pt x="153" y="110" on="1"/>
        <pt x="371" y="110" on="1"/>
        <pt x="351" y="0" on="1"/>
      </contour>
    </TTGlyph>
    <TTGlyph name="M" xMin="-6" yMin="0" xMax="701" yMax="700">
      <contour>
        <pt x="544" y="0" on="1"/>
        <pt x="575" y="482" on="1"/>
        <pt x="357" y="148" on="1"/>
        <pt x="256" y="482" on="1"/>
        <pt x="117" y="0" on="1"/>
        <pt x="-6" y="0" on="1"/>
        <pt x="206" y="700" on="1"/>
        <pt x="303" y="700" on="1"/>
        <pt x="395" y="367" on="1"/>
        <pt x="606" y="700" on="1"/>
        <pt x="701" y="700" on="1"/>
        <pt x="667" y="0" on="1"/>
      </contour>
    </TTGlyph>
    <TTGlyph name="M.sc" xMin="-8" yMin="0" xMax="616" yMax="574">
      <contour>
        <pt x="476" y="0" on="1"/>
        <pt x="496" y="371" on="1"/>
        <pt x="313" y="116" on="1"/>
        <pt x="219" y="371" on="1"/>
        <pt x="109" y="0" on="1"/>
        <pt x="-8" y="0" on="1"/>
        <pt x="171" y="574" on="1"/>
        <pt x="262" y="574" on="1"/>
        <pt x="349" y="319" on="1"/>
        <pt x="525" y="574" on="1"/>
        <pt x="616" y="574" on="1"/>
        <pt x="594" y="0" on="1"/>
      </contour>
    </TTGlyph>
    <TTGlyph name="N" xMin="27" yMin="0" xMax="649" yMax="700">
      <contour>
        <pt x="429" y="0" on="1"/>
        <pt x="234" y="503" on="1"/>
        <pt x="145" y="0" on="1"/>
        <pt x="27" y="0" on="1"/>
        <pt x="150" y="700" on="1"/>
        <pt x="266" y="700" on="1"/>
        <pt x="447" y="226" on="1"/>
        <pt x="531" y="700" on="1"/>
        <pt x="649" y="700" on="1"/>
        <pt x="525" y="0" on="1"/>
      </contour>
    </TTGlyph>
    <TTGlyph name="N.sc" xMin="21" yMin="0" xMax="565" yMax="574">
      <contour>
        <pt x="371" y="0" on="1"/>
        <pt x="201" y="378" on="1"/>
        <pt x="134" y="0" on="1"/>
        <pt x="21" y="0" on="1"/>
        <pt x="122" y="574" on="1"/>
        <pt x="230" y="574" on="1"/>
        <pt x="390" y="219" on="1"/>
        <pt x="452" y="574" on="1"/>
        <pt x="565" y="574" on="1"/>
        <pt x="464" y="0" on="1"/>
      </contour>
    </TTGlyph>
    <TTGlyph name="Ntilde" xMin="27" yMin="0" xMax="649" yMax="918">
      <component glyphName="N" x="0" y="0" flags="0x204"/>
      <component glyphName="tilde" x="69" y="203" flags="0x4"/>
    </TTGlyph>
    <TTGlyph name="O" xMin="44" yMin="-14" xMax="681" yMax="714">
      <contour>
        <pt x="298" y="-14" on="1"/>
        <pt x="240" y="-14" on="0"/>
        <pt x="146" y="27" on="0"/>
        <pt x="80" y="104" on="0"/>
        <pt x="44" y="212" on="0"/>
        <pt x="44" y="278" on="1"/>
        <pt x="44" y="374" on="0"/>
        <pt x="105" y="534" on="0"/>
        <pt x="210" y="650" on="0"/>
        <pt x="349" y="714" on="0"/>
        <pt x="427" y="714" on="1"/>
        <pt x="485" y="714" on="0"/>
        <pt x="579" y="673" on="0"/>
        <pt x="645" y="596" on="0"/>
        <pt x="681" y="488" on="0"/>
        <pt x="681" y="422" on="1"/>
        <pt x="681" y="326" on="0"/>
        <pt x="620" y="166" on="0"/>
        <pt x="515" y="50" on="0"/>
        <pt x="376" y="-14" on="0"/>
      </contour>
      <contour>
        <pt x="407" y="603" on="1"/>
        <pt x="351" y="603" on="0"/>
        <pt x="265" y="551" on="0"/>
        <pt x="205" y="464" on="0"/>
        <pt x="174" y="350" on="0"/>
        <pt x="174" y="288" on="1"/>
        <pt x="174" y="247" on="0"/>
        <pt x="191" y="177" on="0"/>
        <pt x="227" y="126" on="0"/>
        <pt x="281" y="97" on="0"/>
        <pt x="318" y="97" on="1"/>
        <pt x="373" y="97" on="0"/>
        <pt x="460" y="149" on="0"/>
        <pt x="520" y="236" on="0"/>
        <pt x="552" y="350" on="0"/>
        <pt x="552" y="412" on="1"/>
        <pt x="552" y="453" on="0"/>
        <pt x="534" y="523" on="0"/>
        <pt x="498" y="574" on="0"/>
        <pt x="444" y="603" on="0"/>
      </contour>
    </TTGlyph>
    <TTGlyph name="O.sc" xMin="32" yMin="-12" xMax="592" yMax="586">
      <contour>
        <pt x="261" y="-12" on="1"/>
        <pt x="209" y="-12" on="0"/>
        <pt x="124" y="23" on="0"/>
        <pt x="64" y="87" on="0"/>
        <pt x="32" y="177" on="0"/>
        <pt x="32" y="233" on="1"/>
        <pt x="32" y="311" on="0"/>
        <pt x="85" y="440" on="0"/>
        <pt x="176" y="534" on="0"/>
        <pt x="297" y="586" on="0"/>
        <pt x="365" y="586" on="1"/>
        <pt x="417" y="586" on="0"/>
        <pt x="501" y="551" on="0"/>
        <pt x="560" y="487" on="0"/>
        <pt x="592" y="398" on="0"/>
        <pt x="592" y="343" on="1"/>
        <pt x="592" y="265" on="0"/>
        <pt x="539" y="135" on="0"/>
        <pt x="449" y="41" on="0"/>
        <pt x="329" y="-12" on="0"/>
      </contour>
      <contour>
        <pt x="346" y="477" on="1"/>
        <pt x="301" y="477" on="0"/>
        <pt x="230" y="440" on="0"/>
        <pt x="182" y="376" on="0"/>
        <pt x="157" y="291" on="0"/>
        <pt x="157" y="243" on="1"/>
        <pt x="157" y="178" on="0"/>
        <pt x="217" y="98" on="0"/>
        <pt x="280" y="98" on="1"/>
        <pt x="325" y="98" on="0"/>
        <pt x="395" y="135" on="0"/>
        <pt x="443" y="200" on="0"/>
        <pt x="467" y="285" on="0"/>
        <pt x="467" y="333" on="1"/>
        <pt x="467" y="396" on="0"/>
        <pt x="408" y="477" on="0"/>
      </contour>
    </TTGlyph>
    <TTGlyph name="OE" xMin="44" yMin="-14" xMax="1000" yMax="714">
      <contour>
        <pt x="613" y="0" on="1"/>
        <pt x="490" y="0" on="1"/>
        <pt x="502" y="64" on="1"/>
        <pt x="457" y="24" on="0"/>
        <pt x="355" y="-14" on="0"/>
        <pt x="299" y="-14" on="1"/>
        <pt x="241" y="-14" on="0"/>
        <pt x="147" y="27" on="0"/>
        <pt x="80" y="104" on="0"/>
        <pt x="44" y="212" on="0"/>
        <pt x="44" y="278" on="1"/>
        <pt x="44" y="374" on="0"/>
        <pt x="105" y="534" on="0"/>
        <pt x="210" y="650" on="0"/>
        <pt x="349" y="714" on="0"/>
        <pt x="427" y="714" on="1"/>
        <pt x="484" y="714" on="0"/>
        <pt x="573" y="676" on="0"/>
        <pt x="603" y="636" on="1"/>
        <pt x="614" y="700" on="1"/>
        <pt x="1000" y="700" on="1"/>
        <pt x="980" y="588" on="1"/>
        <pt x="715" y="588" on="1"/>
        <pt x="686" y="421" on="1"/>
        <pt x="890" y="421" on="1"/>
        <pt x="871" y="309" on="1"/>
        <pt x="666" y="309" on="1"/>
        <pt x="631" y="112" on="1"/>
        <pt x="905" y="112" on="1"/>
        <pt x="885" y="0" on="1"/>
      </contour>
      <contour>
        <pt x="408" y="603" on="1"/>
        <pt x="352" y="603" on="0"/>
        <pt x="265" y="551" on="0"/>
        <pt x="205" y="464" on="0"/>
        <pt x="174" y="350" on="0"/>
        <pt x="174" y="287" on="1"/>
        <pt x="174" y="246" on="0"/>
        <pt x="191" y="176" on="0"/>
        <pt x="227" y="125" on="0"/>
        <pt x="282" y="97" on="0"/>
        <pt x="319" y="97" on="1"/>
        <pt x="374" y="97" on="0"/>
        <pt x="461" y="149" on="0"/>
        <pt x="521" y="236" on="0"/>
        <pt x="552" y="350" on="0"/>
        <pt x="552" y="413" on="1"/>
        <pt x="552" y="454" on="0"/>
        <pt x="535" y="524" on="0"/>
        <pt x="499" y="575" on="0"/>
        <pt x="445" y="603" on="0"/>
      </contour>
    </TTGlyph>
    <TTGlyph name="OE.sc" xMin="32" yMin="-12" xMax="871" yMax="586">
      <contour>
        <pt x="541" y="0" on="1"/>
        <pt x="422" y="0" on="1"/>
        <pt x="429" y="39" on="1"/>
        <pt x="400" y="16" on="0"/>
        <pt x="311" y="-12" on="0"/>
        <pt x="262" y="-12" on="1"/>
        <pt x="210" y="-12" on="0"/>
        <pt x="125" y="23" on="0"/>
        <pt x="65" y="87" on="0"/>
        <pt x="32" y="177" on="0"/>
        <pt x="32" y="233" on="1"/>
        <pt x="32" y="311" on="0"/>
        <pt x="85" y="440" on="0"/>
        <pt x="177" y="534" on="0"/>
        <pt x="299" y="586" on="0"/>
        <pt x="367" y="586" on="1"/>
        <pt x="417" y="586" on="0"/>
        <pt x="494" y="558" on="0"/>
        <pt x="516" y="536" on="1"/>
        <pt x="523" y="574" on="1"/>
        <pt x="871" y="574" on="1"/>
        <pt x="852" y="464" on="1"/>
        <pt x="621" y="464" on="1"/>
        <pt x="602" y="354" on="1"/>
        <pt x="779" y="354" on="1"/>
        <pt x="760" y="245" on="1"/>
        <pt x="583" y="245" on="1"/>
        <pt x="559" y="110" on="1"/>
        <pt x="796" y="110" on="1"/>
        <pt x="777" y="0" on="1"/>
      </contour>
      <contour>
        <pt x="348" y="477" on="1"/>
        <pt x="303" y="477" on="0"/>
        <pt x="233" y="440" on="0"/>
        <pt x="184" y="376" on="0"/>
        <pt x="159" y="292" on="0"/>
        <pt x="159" y="244" on="1"/>
        <pt x="159" y="178" on="0"/>
        <pt x="218" y="98" on="0"/>
        <pt x="281" y="98" on="1"/>
        <pt x="326" y="98" on="0"/>
        <pt x="397" y="135" on="0"/>
        <pt x="446" y="199" on="0"/>
        <pt x="471" y="283" on="0"/>
        <pt x="471" y="331" on="1"/>
        <pt x="471" y="396" on="0"/>
        <pt x="411" y="477" on="0"/>
      </contour>
    </TTGlyph>
    <TTGlyph name="Oacute" xMin="44" yMin="-14" xMax="681" yMax="947">
      <component glyphName="O" x="0" y="0" flags="0x204"/>
      <component glyphName="acute" x="199" y="203" flags="0x4"/>
    </TTGlyph>
    <TTGlyph name="Ocircumflex" xMin="44" yMin="-14" xMax="681" yMax="951">
      <component glyphName="O" x="0" y="0" flags="0x204"/>
      <component glyphName="circumflex" x="132" y="203" flags="0x4"/>
    </TTGlyph>
    <TTGlyph name="Odieresis" xMin="44" yMin="-14" xMax="681" yMax="903">
      <component glyphName="O" x="0" y="0" flags="0x204"/>
      <component glyphName="dieresis" x="144" y="203" flags="0x4"/>
    </TTGlyph>
    <TTGlyph name="Ograve" xMin="44" yMin="-14" xMax="681" yMax="947">
      <component glyphName="O" x="0" y="0" flags="0x204"/>
      <component glyphName="grave" x="197" y="203" flags="0x4"/>
    </TTGlyph>
    <TTGlyph name="Oslash" xMin="0" yMin="-31" xMax="716" yMax="716">
      <contour>
        <pt x="303" y="-13" on="1"/>
        <pt x="263" y="-13" on="0"/>
        <pt x="193" y="5" on="0"/>
        <pt x="165" y="25" on="1"/>
        <pt x="124" y="-31" on="1"/>
        <pt x="0" y="-31" on="1"/>
        <pt x="94" y="83" on="1"/>
        <pt x="71" y="119" on="0"/>
        <pt x="48" y="221" on="0"/>
        <pt x="48" y="277" on="1"/>
        <pt x="48" y="373" on="0"/>
        <pt x="109" y="534" on="0"/>
        <pt x="214" y="650" on="0"/>
        <pt x="353" y="714" on="0"/>
        <pt x="431" y="714" on="1"/>
        <pt x="509" y="714" on="0"/>
        <pt x="563" y="678" on="1"/>
        <pt x="592" y="716" on="1"/>
        <pt x="716" y="716" on="1"/>
        <pt x="636" y="619" on="1"/>
        <pt x="659" y="583" on="0"/>
        <pt x="685" y="479" on="0"/>
        <pt x="685" y="422" on="1"/>
        <pt x="685" y="326" on="0"/>
        <pt x="624" y="166" on="0"/>
        <pt x="520" y="51" on="0"/>
        <pt x="381" y="-13" on="0"/>
      </contour>
      <contour>
        <pt x="248" y="119" on="1"/>
        <pt x="262" y="108" on="0"/>
        <pt x="299" y="99" on="0"/>
        <pt x="322" y="99" on="1"/>
        <pt x="377" y="99" on="0"/>
        <pt x="464" y="151" on="0"/>
        <pt x="524" y="239" on="0"/>
        <pt x="556" y="356" on="0"/>
        <pt x="556" y="421" on="1"/>
        <pt x="556" y="444" on="0"/>
        <pt x="551" y="499" on="0"/>
        <pt x="546" y="516" on="1"/>
      </contour>
      <contour>
        <pt x="411" y="602" on="1"/>
        <pt x="355" y="602" on="0"/>
        <pt x="268" y="550" on="0"/>
        <pt x="208" y="462" on="0"/>
        <pt x="177" y="345" on="0"/>
        <pt x="177" y="281" on="1"/>
        <pt x="177" y="259" on="0"/>
        <pt x="180" y="208" on="0"/>
        <pt x="185" y="188" on="1"/>
        <pt x="480" y="582" on="1"/>
        <pt x="454" y="602" on="0"/>
      </contour>
    </TTGlyph>
    <TTGlyph name="Otilde" xMin="44" yMin="-14" xMax="681" yMax="918">
      <component glyphName="O" x="0" y="0" flags="0x204"/>
      <component glyphName="tilde" x="94" y="203" flags="0x4"/>
    </TTGlyph>
    <TTGlyph name="P" xMin="27" yMin="0" xMax="569" yMax="700">
      <contour>
        <pt x="186" y="235" on="1"/>
        <pt x="144" y="0" on="1"/>
        <pt x="27" y="0" on="1"/>
        <pt x="150" y="700" on="1"/>
        <pt x="327" y="700" on="1"/>
        <pt x="385" y="700" on="0"/>
        <pt x="475" y="688" on="0"/>
        <pt x="537" y="653" on="0"/>
        <pt x="569" y="589" on="0"/>
        <pt x="569" y="537" on="1"/>
        <pt x="569" y="447" on="0"/>
        <pt x="513" y="330" on="0"/>
        <pt x="430" y="262" on="0"/>
        <pt x="335" y="235" on="0"/>
        <pt x="296" y="235" on="1"/>
      </contour>
      <contour>
        <pt x="251" y="600" on="1"/>
        <pt x="205" y="344" on="1"/>
        <pt x="300" y="344" on="1"/>
        <pt x="343" y="344" on="0"/>
        <pt x="400" y="367" on="0"/>
        <pt x="433" y="412" on="0"/>
        <pt x="447" y="475" on="0"/>
        <pt x="447" y="516" on="1"/>
        <pt x="447" y="560" on="0"/>
        <pt x="402" y="600" on="0"/>
        <pt x="345" y="600" on="1"/>
      </contour>
    </TTGlyph>
    <TTGlyph name="P.sc" xMin="21" yMin="0" xMax="502" yMax="574">
      <contour>
        <pt x="165" y="185" on="1"/>
        <pt x="133" y="0" on="1"/>
        <pt x="21" y="0" on="1"/>
        <pt x="122" y="574" on="1"/>
        <pt x="271" y="574" on="1"/>
        <pt x="328" y="574" on="0"/>
        <pt x="415" y="564" on="0"/>
        <pt x="473" y="535" on="0"/>
        <pt x="502" y="481" on="0"/>
        <pt x="502" y="438" on="1"/>
        <pt x="502" y="360" on="0"/>
        <pt x="450" y="262" on="0"/>
        <pt x="375" y="206" on="0"/>
        <pt x="289" y="185" on="0"/>
        <pt x="255" y="185" on="1"/>
      </contour>
      <contour>
        <pt x="218" y="482" on="1"/>
        <pt x="184" y="291" on="1"/>
        <pt x="260" y="291" on="1"/>
        <pt x="297" y="291" on="0"/>
        <pt x="346" y="305" on="0"/>
        <pt x="375" y="336" on="0"/>
        <pt x="386" y="384" on="0"/>
        <pt x="386" y="418" on="1"/>
        <pt x="386" y="450" on="0"/>
        <pt x="349" y="482" on="0"/>
        <pt x="300" y="482" on="1"/>
      </contour>
    </TTGlyph>
    <TTGlyph name="Q" xMin="44" yMin="-14" xMax="681" yMax="714">
      <contour>
        <pt x="543" y="-6" on="1"/>
        <pt x="490" y="50" on="1"/>
        <pt x="448" y="18" on="0"/>
        <pt x="350" y="-14" on="0"/>
        <pt x="298" y="-14" on="1"/>
        <pt x="240" y="-14" on="0"/>
        <pt x="146" y="27" on="0"/>
        <pt x="80" y="104" on="0"/>
        <pt x="44" y="212" on="0"/>
        <pt x="44" y="278" on="1"/>
        <pt x="44" y="374" on="0"/>
        <pt x="105" y="534" on="0"/>
        <pt x="210" y="650" on="0"/>
        <pt x="349" y="714" on="0"/>
        <pt x="427" y="714" on="1"/>
        <pt x="485" y="714" on="0"/>
        <pt x="579" y="673" on="0"/>
        <pt x="645" y="596" on="0"/>
        <pt x="681" y="488" on="0"/>
        <pt x="681" y="422" on="1"/>
        <pt x="681" y="337" on="0"/>
        <pt x="626" y="191" on="0"/>
        <pt x="578" y="124" on="1"/>
        <pt x="626" y="74" on="1"/>
      </contour>
      <contour>
        <pt x="407" y="603" on="1"/>
        <pt x="352" y="603" on="0"/>
        <pt x="265" y="551" on="0"/>
        <pt x="205" y="464" on="0"/>
        <pt x="174" y="350" on="0"/>
        <pt x="174" y="287" on="1"/>
        <pt x="174" y="246" on="0"/>
        <pt x="191" y="176" on="0"/>
        <pt x="227" y="125" on="0"/>
        <pt x="281" y="97" on="0"/>
        <pt x="318" y="97" on="1"/>
        <pt x="344" y="97" on="0"/>
        <pt x="388" y="110" on="0"/>
        <pt x="409" y="126" on="1"/>
        <pt x="348" y="201" on="1"/>
        <pt x="431" y="281" on="1"/>
        <pt x="495" y="201" on="1"/>
        <pt x="504" y="222" on="0"/>
        <pt x="524" y="267" on="0"/>
        <pt x="541" y="318" on="0"/>
        <pt x="551" y="377" on="0"/>
        <pt x="551" y="414" on="1"/>
        <pt x="551" y="455" on="0"/>
        <pt x="534" y="524" on="0"/>
        <pt x="498" y="575" on="0"/>
        <pt x="444" y="603" on="0"/>
      </contour>
    </TTGlyph>
    <TTGlyph name="Q.sc" xMin="32" yMin="-12" xMax="592" yMax="586">
      <contour>
        <pt x="472" y="-11" on="1"/>
        <pt x="424" y="37" on="1"/>
        <pt x="391" y="13" on="0"/>
        <pt x="306" y="-12" on="0"/>
        <pt x="261" y="-12" on="1"/>
        <pt x="209" y="-12" on="0"/>
        <pt x="124" y="23" on="0"/>
        <pt x="64" y="87" on="0"/>
        <pt x="32" y="177" on="0"/>
        <pt x="32" y="233" on="1"/>
        <pt x="32" y="311" on="0"/>
        <pt x="85" y="440" on="0"/>
        <pt x="176" y="534" on="0"/>
        <pt x="297" y="586" on="0"/>
        <pt x="365" y="586" on="1"/>
        <pt x="417" y="586" on="0"/>
        <pt x="501" y="551" on="0"/>
        <pt x="560" y="487" on="0"/>
        <pt x="592" y="398" on="0"/>
        <pt x="592" y="343" on="1"/>
        <pt x="592" y="274" on="0"/>
        <pt x="545" y="156" on="0"/>
        <pt x="510" y="111" on="1"/>
        <pt x="553" y="68" on="1"/>
      </contour>
      <contour>
        <pt x="346" y="477" on="1"/>
        <pt x="301" y="477" on="0"/>
        <pt x="230" y="440" on="0"/>
        <pt x="182" y="376" on="0"/>
        <pt x="157" y="290" on="0"/>
        <pt x="157" y="242" on="1"/>
        <pt x="157" y="178" on="0"/>
        <pt x="217" y="98" on="0"/>
        <pt x="280" y="98" on="1"/>
        <pt x="301" y="98" on="0"/>
        <pt x="329" y="106" on="0"/>
        <pt x="343" y="113" on="1"/>
        <pt x="293" y="168" on="1"/>
        <pt x="374" y="247" on="1"/>
        <pt x="428" y="191" on="1"/>
        <pt x="432" y="201" on="0"/>
        <pt x="444" y="227" on="0"/>
        <pt x="456" y="261" on="0"/>
        <pt x="464" y="306" on="0"/>
        <pt x="464" y="335" on="1"/>
        <pt x="464" y="398" on="0"/>
        <pt x="407" y="477" on="0"/>
      </contour>
    </TTGlyph>
    <TTGlyph name="R" xMin="27" yMin="0" xMax="569" yMax="700">
      <contour>
        <pt x="390" y="0" on="1"/>
        <pt x="307" y="264" on="1"/>
        <pt x="191" y="264" on="1"/>
        <pt x="144" y="0" on="1"/>
        <pt x="27" y="0" on="1"/>
        <pt x="150" y="700" on="1"/>
        <pt x="383" y="700" on="1"/>
        <pt x="423" y="700" on="0"/>
        <pt x="491" y="684" on="0"/>
        <pt x="541" y="646" on="0"/>
        <pt x="569" y="585" on="0"/>
        <pt x="569" y="540" on="1"/>
        <pt x="569" y="493" on="0"/>
        <pt x="545" y="419" on="0"/>
        <pt x="504" y="359" on="0"/>
        <pt x="451" y="313" on="0"/>
        <pt x="422" y="295" on="1"/>
        <pt x="512" y="0" on="1"/>
      </contour>
      <contour>
        <pt x="251" y="602" on="1"/>
        <pt x="210" y="375" on="1"/>
        <pt x="291" y="375" on="1"/>
        <pt x="376" y="375" on="0"/>
        <pt x="444" y="446" on="0"/>
        <pt x="444" y="522" on="1"/>
        <pt x="444" y="560" on="0"/>
        <pt x="398" y="602" on="0"/>
        <pt x="338" y="602" on="1"/>
      </contour>
    </TTGlyph>
    <TTGlyph name="R.sc" xMin="21" yMin="0" xMax="501" yMax="574">
      <contour>
        <pt x="342" y="0" on="1"/>
        <pt x="268" y="211" on="1"/>
        <pt x="170" y="211" on="1"/>
        <pt x="133" y="0" on="1"/>
        <pt x="21" y="0" on="1"/>
        <pt x="122" y="574" on="1"/>
        <pt x="336" y="574" on="1"/>
        <pt x="370" y="574" on="0"/>
        <pt x="431" y="560" on="0"/>
        <pt x="475" y="529" on="0"/>
        <pt x="501" y="478" on="0"/>
        <pt x="501" y="441" on="1"/>
        <pt x="501" y="399" on="0"/>
        <pt x="480" y="337" on="0"/>
        <pt x="446" y="291" on="0"/>
        <pt x="401" y="256" on="0"/>
        <pt x="376" y="240" on="1"/>
        <pt x="458" y="0" on="1"/>
      </contour>
      <contour>
        <pt x="217" y="480" on="1"/>
        <pt x="189" y="315" on="1"/>
        <pt x="243" y="315" on="1"/>
        <pt x="289" y="315" on="0"/>
        <pt x="343" y="331" on="0"/>
        <pt x="371" y="360" on="0"/>
        <pt x="380" y="399" on="0"/>
        <pt x="380" y="422" on="1"/>
        <pt x="380" y="449" on="0"/>
        <pt x="342" y="480" on="0"/>
        <pt x="287" y="480" on="1"/>
      </contour>
    </TTGlyph>
    <TTGlyph name="S" xMin="6" yMin="-14" xMax="536" yMax="714">
      <contour>
        <pt x="206" y="-14" on="1"/>
        <pt x="133" y="-14" on="0"/>
        <pt x="29" y="15" on="0"/>
        <pt x="6" y="35" on="1"/>
        <pt x="44" y="169" on="1"/>
        <pt x="63" y="141" on="0"/>
        <pt x="157" y="97" on="0"/>
        <pt x="229" y="97" on="1"/>
        <pt x="285" y="97" on="0"/>
        <pt x="355" y="146" on="0"/>
        <pt x="355" y="197" on="1"/>
        <pt x="355" y="219" on="0"/>
        <pt x="334" y="253" on="0"/>
        <pt x="299" y="280" on="0"/>
        <pt x="255" y="301" on="0"/>
        <pt x="231" y="312" on="1"/>
        <pt x="205" y="324" on="0"/>
        <pt x="151" y="351" on="0"/>
        <pt x="106" y="390" on="0"/>
        <pt x="77" y="443" on="0"/>
        <pt x="77" y="479" on="1"/>
        <pt x="77" y="514" on="0"/>
        <pt x="102" y="596" on="0"/>
        <pt x="164" y="667" on="0"/>
        <pt x="267" y="714" on="0"/>
        <pt x="345" y="714" on="1"/>
        <pt x="378" y="714" on="0"/>
        <pt x="439" y="705" on="0"/>
        <pt x="489" y="690" on="0"/>
        <pt x="526" y="671" on="0"/>
        <pt x="536" y="662" on="1"/>
        <pt x="503" y="541" on="1"/>
        <pt x="458" y="573" on="0"/>
        <pt x="376" y="603" on="0"/>
        <pt x="329" y="603" on="1"/>
        <pt x="310" y="603" on="0"/>
        <pt x="265" y="593" on="0"/>
        <pt x="226" y="570" on="0"/>
        <pt x="200" y="534" on="0"/>
        <pt x="200" y="508" on="1"/>
        <pt x="200" y="489" on="0"/>
        <pt x="217" y="461" on="0"/>
        <pt x="247" y="440" on="0"/>
        <pt x="287" y="422" on="0"/>
        <pt x="309" y="414" on="1"/>
        <pt x="339" y="403" on="0"/>
        <pt x="403" y="374" on="0"/>
        <pt x="456" y="330" on="0"/>
        <pt x="490" y="267" on="0"/>
        <pt x="490" y="222" on="1"/>
        <pt x="490" y="176" on="0"/>
        <pt x="465" y="91" on="0"/>
        <pt x="402" y="25" on="0"/>
        <pt x="291" y="-14" on="0"/>
      </contour>
    </TTGlyph>
    <TTGlyph name="S.sc" xMin="3" yMin="-12" xMax="464" yMax="586">
      <contour>
        <pt x="181" y="-12" on="1"/>
        <pt x="117" y="-12" on="0"/>
        <pt x="23" y="14" on="0"/>
        <pt x="3" y="31" on="1"/>
        <pt x="38" y="159" on="1"/>
        <pt x="55" y="136" on="0"/>
        <pt x="137" y="98" on="0"/>
        <pt x="202" y="98" on="1"/>
        <pt x="250" y="98" on="0"/>
        <pt x="298" y="126" on="0"/>
        <pt x="298" y="159" on="1"/>
        <pt x="298" y="179" on="0"/>
        <pt x="282" y="206" on="0"/>
        <pt x="253" y="227" on="0"/>
        <pt x="214" y="243" on="0"/>
        <pt x="191" y="252" on="1"/>
        <pt x="168" y="261" on="0"/>
        <pt x="121" y="282" on="0"/>
        <pt x="83" y="313" on="0"/>
        <pt x="60" y="356" on="0"/>
        <pt x="60" y="388" on="1"/>
        <pt x="60" y="419" on="0"/>
        <pt x="86" y="488" on="0"/>
        <pt x="143" y="547" on="0"/>
        <pt x="231" y="586" on="0"/>
        <pt x="294" y="586" on="1"/>
        <pt x="354" y="586" on="0"/>
        <pt x="447" y="555" on="0"/>
        <pt x="464" y="540" on="1"/>
        <pt x="434" y="426" on="1"/>
        <pt x="392" y="452" on="0"/>
        <pt x="317" y="478" on="0"/>
        <pt x="278" y="478" on="1"/>
        <pt x="263" y="478" on="0"/>
        <pt x="227" y="473" on="0"/>
        <pt x="197" y="460" on="0"/>
        <pt x="176" y="437" on="0"/>
        <pt x="176" y="418" on="1"/>
        <pt x="176" y="388" on="0"/>
        <pt x="228" y="359" on="0"/>
        <pt x="272" y="344" on="1"/>
        <pt x="298" y="335" on="0"/>
        <pt x="354" y="312" on="0"/>
        <pt x="399" y="277" on="0"/>
        <pt x="428" y="224" on="0"/>
        <pt x="428" y="185" on="1"/>
        <pt x="428" y="162" on="0"/>
        <pt x="412" y="94" on="0"/>
        <pt x="360" y="32" on="0"/>
        <pt x="262" y="-12" on="0"/>
      </contour>
    </TTGlyph>
    <TTGlyph name="Scaron" xMin="6" yMin="-14" xMax="536" yMax="950">
      <component glyphName="S" x="0" y="0" flags="0x204"/>
      <component glyphName="caron" x="51" y="203" flags="0x4"/>
    </TTGlyph>
    <TTGlyph name="T" xMin="86" yMin="0" xMax="580" yMax="700">
      <contour>
        <pt x="382" y="588" on="1"/>
        <pt x="278" y="0" on="1"/>
        <pt x="160" y="0" on="1"/>
        <pt x="264" y="588" on="1"/>
        <pt x="86" y="588" on="1"/>
        <pt x="106" y="700" on="1"/>
        <pt x="580" y="700" on="1"/>
        <pt x="560" y="588" on="1"/>
      </contour>
    </TTGlyph>
    <TTGlyph name="T.sc" xMin="52" yMin="0" xMax="495" yMax="574">
      <contour>
        <pt x="320" y="464" on="1"/>
        <pt x="239" y="0" on="1"/>
        <pt x="125" y="0" on="1"/>
        <pt x="206" y="464" on="1"/>
        <pt x="52" y="464" on="1"/>
        <pt x="71" y="574" on="1"/>
        <pt x="495" y="574" on="1"/>
        <pt x="476" y="464" on="1"/>
      </contour>
    </TTGlyph>
    <TTGlyph name="Thorn" xMin="27" yMin="0" xMax="548" yMax="700">
      <contour>
        <pt x="165" y="117" on="1"/>
        <pt x="144" y="0" on="1"/>
        <pt x="27" y="0" on="1"/>
        <pt x="150" y="700" on="1"/>
        <pt x="267" y="700" on="1"/>
        <pt x="247" y="583" on="1"/>
        <pt x="306" y="583" on="1"/>
        <pt x="364" y="583" on="0"/>
        <pt x="454" y="571" on="0"/>
        <pt x="516" y="536" on="0"/>
        <pt x="548" y="472" on="0"/>
        <pt x="548" y="420" on="1"/>
        <pt x="548" y="330" on="0"/>
        <pt x="492" y="212" on="0"/>
        <pt x="409" y="144" on="0"/>
        <pt x="314" y="117" on="0"/>
        <pt x="275" y="117" on="1"/>
      </contour>
      <contour>
        <pt x="229" y="483" on="1"/>
        <pt x="184" y="227" on="1"/>
        <pt x="279" y="227" on="1"/>
        <pt x="322" y="227" on="0"/>
        <pt x="379" y="250" on="0"/>
        <pt x="412" y="294" on="0"/>
        <pt x="426" y="358" on="0"/>
        <pt x="426" y="398" on="1"/>
        <pt x="426" y="442" on="0"/>
        <pt x="381" y="483" on="0"/>
        <pt x="324" y="483" on="1"/>
      </contour>
    </TTGlyph>
    <TTGlyph name="U" xMin="64" yMin="-14" xMax="666" yMax="700">
      <contour>
        <pt x="278" y="-14" on="1"/>
        <pt x="168" y="-14" on="0"/>
        <pt x="64" y="103" on="0"/>
        <pt x="64" y="206" on="1"/>
        <pt x="64" y="249" on="0"/>
        <pt x="73" y="299" on="1"/>
        <pt x="144" y="700" on="1"/>
        <pt x="261" y="700" on="1"/>
        <pt x="198" y="343" on="1"/>
        <pt x="193" y="314" on="0"/>
        <pt x="187" y="260" on="0"/>
        <pt x="187" y="235" on="1"/>
        <pt x="187" y="205" on="0"/>
        <pt x="198" y="154" on="0"/>
        <pt x="223" y="117" on="0"/>
        <pt x="266" y="97" on="0"/>
        <pt x="298" y="97" on="1"/>
        <pt x="342" y="97" on="0"/>
        <pt x="405" y="137" on="0"/>
        <pt x="449" y="204" on="0"/>
        <pt x="476" y="293" on="0"/>
        <pt x="485" y="343" on="1"/>
        <pt x="548" y="700" on="1"/>
        <pt x="666" y="700" on="1"/>
        <pt x="595" y="299" on="1"/>
        <pt x="582" y="227" on="0"/>
        <pt x="530" y="112" on="0"/>
        <pt x="450" y="30" on="0"/>
        <pt x="344" y="-14" on="0"/>
      </contour>
    </TTGlyph>
    <TTGlyph name="U.sc" xMin="51" yMin="-12" xMax="575" yMax="574">
      <contour>
        <pt x="242" y="-12" on="1"/>
        <pt x="144" y="-12" on="0"/>
        <pt x="51" y="90" on="0"/>
        <pt x="51" y="176" on="1"/>
        <pt x="51" y="193" on="0"/>
        <pt x="55" y="228" on="0"/>
        <pt x="58" y="247" on="1"/>
        <pt x="115" y="574" on="1"/>
        <pt x="228" y="574" on="1"/>
        <pt x="176" y="282" on="1"/>
        <pt x="172" y="260" on="0"/>
        <pt x="168" y="221" on="0"/>
        <pt x="168" y="203" on="1"/>
        <pt x="168" y="155" on="0"/>
        <pt x="208" y="98" on="0"/>
        <pt x="261" y="98" on="1"/>
        <pt x="297" y="98" on="0"/>
        <pt x="348" y="126" on="0"/>
        <pt x="382" y="175" on="0"/>
        <pt x="404" y="242" on="0"/>
        <pt x="411" y="282" on="1"/>
        <pt x="462" y="574" on="1"/>
        <pt x="575" y="574" on="1"/>
        <pt x="517" y="247" on="1"/>
        <pt x="506" y="189" on="0"/>
        <pt x="462" y="93" on="0"/>
        <pt x="394" y="25" on="0"/>
        <pt x="301" y="-12" on="0"/>
      </contour>
    </TTGlyph>
    <TTGlyph name="Uacute" xMin="64" yMin="-14" xMax="666" yMax="947">
      <component glyphName="U" x="0" y="0" flags="0x204"/>
      <component glyphName="acute" x="178" y="203" flags="0x4"/>
    </TTGlyph>
    <TTGlyph name="Ucircumflex" xMin="64" yMin="-14" xMax="666" yMax="951">
      <component glyphName="U" x="0" y="0" flags="0x204"/>
      <component glyphName="circumflex" x="112" y="203" flags="0x4"/>
    </TTGlyph>
    <TTGlyph name="Udieresis" xMin="64" yMin="-14" xMax="666" yMax="903">
      <component glyphName="U" x="0" y="0" flags="0x204"/>
      <component glyphName="dieresis" x="123" y="203" flags="0x4"/>
    </TTGlyph>
    <TTGlyph name="Ugrave" xMin="64" yMin="-14" xMax="666" yMax="947">
      <component glyphName="U" x="0" y="0" flags="0x204"/>
      <component glyphName="grave" x="177" y="203" flags="0x4"/>
    </TTGlyph>
    <TTGlyph name="V" xMin="72" yMin="0" xMax="663" yMax="700">
      <contour>
        <pt x="319" y="0" on="1"/>
        <pt x="174" y="0" on="1"/>
        <pt x="72" y="700" on="1"/>
        <pt x="195" y="700" on="1"/>
        <pt x="272" y="150" on="1"/>
        <pt x="540" y="700" on="1"/>
        <pt x="663" y="700" on="1"/>
      </contour>
    </TTGlyph>
    <TTGlyph name="V.sc" xMin="52" yMin="0" xMax="578" yMax="574">
      <contour>
        <pt x="288" y="0" on="1"/>
        <pt x="146" y="0" on="1"/>
        <pt x="52" y="574" on="1"/>
        <pt x="170" y="574" on="1"/>
        <pt x="243" y="152" on="1"/>
        <pt x="461" y="574" on="1"/>
        <pt x="578" y="574" on="1"/>
      </contour>
    </TTGlyph>
    <TTGlyph name="W" xMin="89" yMin="0" xMax="980" yMax="700">
      <contour>
        <pt x="664" y="0" on="1"/>
        <pt x="558" y="0" on="1"/>
        <pt x="499" y="500" on="1"/>
        <pt x="263" y="0" on="1"/>
        <pt x="151" y="0" on="1"/>
        <pt x="89" y="700" on="1"/>
        <pt x="211" y="700" on="1"/>
        <pt x="251" y="176" on="1"/>
        <pt x="492" y="696" on="1"/>
        <pt x="576" y="696" on="1"/>
        <pt x="638" y="186" on="1"/>
        <pt x="858" y="700" on="1"/>
        <pt x="980" y="700" on="1"/>
      </contour>
    </TTGlyph>
    <TTGlyph name="W.sc" xMin="69" yMin="0" xMax="822" yMax="577">
      <contour>
        <pt x="558" y="0" on="1"/>
        <pt x="465" y="0" on="1"/>
        <pt x="408" y="360" on="1"/>
        <pt x="227" y="0" on="1"/>
        <pt x="126" y="0" on="1"/>
        <pt x="69" y="574" on="1"/>
        <pt x="187" y="574" on="1"/>
        <pt x="224" y="187" on="1"/>
        <pt x="410" y="577" on="1"/>
        <pt x="482" y="577" on="1"/>
        <pt x="539" y="200" on="1"/>
        <pt x="705" y="574" on="1"/>
        <pt x="822" y="574" on="1"/>
      </contour>
    </TTGlyph>
    <TTGlyph name="X" xMin="-46" yMin="0" xMax="634" yMax="700">
      <contour>
        <pt x="388" y="0" on="1"/>
        <pt x="283" y="266" on="1"/>
        <pt x="90" y="0" on="1"/>
        <pt x="-46" y="0" on="1"/>
        <pt x="238" y="349" on="1"/>
        <pt x="88" y="700" on="1"/>
        <pt x="224" y="700" on="1"/>
        <pt x="324" y="446" on="1"/>
        <pt x="498" y="700" on="1"/>
        <pt x="634" y="700" on="1"/>
        <pt x="369" y="362" on="1"/>
        <pt x="524" y="0" on="1"/>
      </contour>
    </TTGlyph>
    <TTGlyph name="X.sc" xMin="-45" yMin="0" xMax="556" yMax="574">
      <contour>
        <pt x="336" y="0" on="1"/>
        <pt x="249" y="204" on="1"/>
        <pt x="88" y="0" on="1"/>
        <pt x="-45" y="0" on="1"/>
        <pt x="206" y="287" on="1"/>
        <pt x="69" y="574" on="1"/>
        <pt x="200" y="574" on="1"/>
        <pt x="287" y="378" on="1"/>
        <pt x="423" y="574" on="1"/>
        <pt x="556" y="574" on="1"/>
        <pt x="332" y="298" on="1"/>
        <pt x="471" y="0" on="1"/>
      </contour>
    </TTGlyph>
    <TTGlyph name="Y" xMin="74" yMin="0" xMax="628" yMax="700">
      <contour>
        <pt x="342" y="314" on="1"/>
        <pt x="287" y="0" on="1"/>
        <pt x="169" y="0" on="1"/>
        <pt x="224" y="314" on="1"/>
        <pt x="74" y="700" on="1"/>
        <pt x="199" y="700" on="1"/>
        <pt x="301" y="419" on="1"/>
        <pt x="503" y="700" on="1"/>
        <pt x="628" y="700" on="1"/>
      </contour>
    </TTGlyph>
    <TTGlyph name="Y.sc" xMin="49" yMin="0" xMax="548" yMax="574">
      <contour>
        <pt x="297" y="251" on="1"/>
        <pt x="252" y="0" on="1"/>
        <pt x="142" y="0" on="1"/>
        <pt x="186" y="251" on="1"/>
        <pt x="49" y="574" on="1"/>
        <pt x="169" y="574" on="1"/>
        <pt x="260" y="352" on="1"/>
        <pt x="428" y="574" on="1"/>
        <pt x="548" y="574" on="1"/>
      </contour>
    </TTGlyph>
    <TTGlyph name="Yacute" xMin="74" yMin="0" xMax="628" yMax="947">
      <component glyphName="Y" x="0" y="0" flags="0x204"/>
      <component glyphName="acute" x="125" y="203" flags="0x4"/>
    </TTGlyph>
    <TTGlyph name="Ydieresis" xMin="74" yMin="0" xMax="628" yMax="903">
      <component glyphName="Y" x="0" y="0" flags="0x204"/>
      <component glyphName="dieresis" x="69" y="203" flags="0x4"/>
    </TTGlyph>
    <TTGlyph name="Z" xMin="-39" yMin="0" xMax="564" yMax="700">
      <contour>
        <pt x="175" y="112" on="1"/>
        <pt x="420" y="112" on="1"/>
        <pt x="400" y="0" on="1"/>
        <pt x="-39" y="0" on="1"/>
        <pt x="350" y="588" on="1"/>
        <pt x="105" y="588" on="1"/>
        <pt x="125" y="700" on="1"/>
        <pt x="564" y="700" on="1"/>
      </contour>
    </TTGlyph>
    <TTGlyph name="Z.sc" xMin="-35" yMin="0" xMax="490" yMax="574">
      <contour>
        <pt x="171" y="110" on="1"/>
        <pt x="372" y="110" on="1"/>
        <pt x="353" y="0" on="1"/>
        <pt x="-35" y="0" on="1"/>
        <pt x="284" y="464" on="1"/>
        <pt x="83" y="464" on="1"/>
        <pt x="102" y="574" on="1"/>
        <pt x="490" y="574" on="1"/>
      </contour>
    </TTGlyph>
    <TTGlyph name="Zcaron" xMin="-39" yMin="0" xMax="564" yMax="950">
      <component glyphName="Z" x="0" y="0" flags="0x204"/>
      <component glyphName="caron" x="31" y="203" flags="0x4"/>
    </TTGlyph>
    <TTGlyph name="a" xMin="19" yMin="-10" xMax="523" yMax="506">
      <contour>
        <pt x="465" y="153" on="1"/>
        <pt x="463" y="141" on="0"/>
        <pt x="461" y="121" on="0"/>
        <pt x="461" y="115" on="1"/>
        <pt x="461" y="93" on="0"/>
        <pt x="482" y="83" on="0"/>
        <pt x="509" y="83" on="1"/>
        <pt x="482" y="-10" on="1"/>
        <pt x="449" y="-10" on="0"/>
        <pt x="404" y="-6" on="0"/>
        <pt x="374" y="7" on="0"/>
        <pt x="354" y="32" on="0"/>
        <pt x="346" y="52" on="1"/>
        <pt x="322" y="27" on="0"/>
        <pt x="249" y="-10" on="0"/>
        <pt x="200" y="-10" on="1"/>
        <pt x="158" y="-10" on="0"/>
        <pt x="90" y="22" on="0"/>
        <pt x="44" y="79" on="0"/>
        <pt x="19" y="156" on="0"/>
        <pt x="19" y="202" on="1"/>
        <pt x="19" y="259" on="0"/>
        <pt x="58" y="369" on="0"/>
        <pt x="131" y="454" on="0"/>
        <pt x="234" y="506" on="0"/>
        <pt x="299" y="506" on="1"/>
        <pt x="334" y="506" on="0"/>
        <pt x="385" y="486" on="0"/>
        <pt x="404" y="463" on="1"/>
        <pt x="420" y="497" on="1"/>
        <pt x="523" y="497" on="1"/>
      </contour>
      <contour>
        <pt x="288" y="410" on="1"/>
        <pt x="255" y="410" on="0"/>
        <pt x="199" y="378" on="0"/>
        <pt x="159" y="324" on="0"/>
        <pt x="137" y="251" on="0"/>
        <pt x="137" y="211" on="1"/>
        <pt x="137" y="156" on="0"/>
        <pt x="183" y="85" on="0"/>
        <pt x="236" y="85" on="1"/>
        <pt x="273" y="85" on="0"/>
        <pt x="327" y="122" on="0"/>
        <pt x="361" y="180" on="0"/>
        <pt x="377" y="252" on="0"/>
        <pt x="377" y="287" on="1"/>
        <pt x="377" y="347" on="0"/>
        <pt x="335" y="410" on="0"/>
      </contour>
    </TTGlyph>
    <TTGlyph name="aacute" xMin="19" yMin="-10" xMax="523" yMax="744">
      <component glyphName="a" x="0" y="0" flags="0x204"/>
      <component glyphName="acute" x="125" y="0" flags="0x4"/>
    </TTGlyph>
    <TTGlyph name="acircumflex" xMin="19" yMin="-10" xMax="523" yMax="748">
      <component glyphName="a" x="0" y="0" flags="0x204"/>
      <component glyphName="circumflex" x="58" y="0" flags="0x4"/>
    </TTGlyph>
    <TTGlyph name="acute" xMin="158" yMin="588" xMax="353" yMax="744">
      <contour>
        <pt x="158" y="588" on="1"/>
        <pt x="169" y="652" on="1"/>
        <pt x="353" y="744" on="1"/>
        <pt x="337" y="650" on="1"/>
      </contour>
    </TTGlyph>
    <TTGlyph name="adieresis" xMin="19" yMin="-10" xMax="523" yMax="700">
      <component glyphName="a" x="0" y="0" flags="0x204"/>
      <component glyphName="dieresis" x="69" y="0" flags="0x4"/>
    </TTGlyph>
    <TTGlyph name="ae" xMin="-8" yMin="-15" xMax="701" yMax="506">
      <contour>
        <pt x="394" y="230" on="1"/>
        <pt x="394" y="216" on="1"/>
        <pt x="394" y="147" on="0"/>
        <pt x="454" y="83" on="0"/>
        <pt x="495" y="83" on="1"/>
        <pt x="511" y="83" on="0"/>
        <pt x="549" y="89" on="0"/>
        <pt x="589" y="99" on="0"/>
        <pt x="627" y="114" on="0"/>
        <pt x="642" y="122" on="1"/>
        <pt x="630" y="29" on="1"/>
        <pt x="602" y="13" on="0"/>
        <pt x="521" y="-10" on="0"/>
        <pt x="473" y="-10" on="1"/>
        <pt x="404" y="-10" on="0"/>
        <pt x="324" y="42" on="0"/>
        <pt x="311" y="90" on="1"/>
        <pt x="273" y="43" on="0"/>
        <pt x="182" y="-15" on="0"/>
        <pt x="120" y="-15" on="1"/>
        <pt x="57" y="-15" on="0"/>
        <pt x="-8" y="46" on="0"/>
        <pt x="-8" y="99" on="1"/>
        <pt x="-8" y="143" on="0"/>
        <pt x="21" y="208" on="0"/>
        <pt x="70" y="254" on="0"/>
        <pt x="131" y="284" on="0"/>
        <pt x="196" y="302" on="0"/>
        <pt x="257" y="310" on="0"/>
        <pt x="281" y="312" on="1"/>
        <pt x="284" y="330" on="0"/>
        <pt x="284" y="345" on="1"/>
        <pt x="284" y="377" on="0"/>
        <pt x="253" y="407" on="0"/>
        <pt x="217" y="407" on="1"/>
        <pt x="186" y="407" on="0"/>
        <pt x="126" y="390" on="0"/>
        <pt x="87" y="372" on="1"/>
        <pt x="93" y="463" on="1"/>
        <pt x="184" y="506" on="0"/>
        <pt x="265" y="506" on="1"/>
        <pt x="318" y="506" on="0"/>
        <pt x="377" y="466" on="0"/>
        <pt x="383" y="407" on="1"/>
        <pt x="392" y="428" on="0"/>
        <pt x="426" y="465" on="0"/>
        <pt x="471" y="491" on="0"/>
        <pt x="526" y="506" on="0"/>
        <pt x="556" y="506" on="1"/>
        <pt x="623" y="506" on="0"/>
        <pt x="701" y="416" on="0"/>
        <pt x="701" y="338" on="1"/>
        <pt x="701" y="311" on="0"/>
        <pt x="691" y="263" on="0"/>
        <pt x="677" y="230" on="1"/>
      </contour>
      <contour>
        <pt x="535" y="410" on="1"/>
        <pt x="494" y="410" on="0"/>
        <pt x="427" y="356" on="0"/>
        <pt x="410" y="307" on="1"/>
        <pt x="597" y="307" on="1"/>
        <pt x="600" y="325" on="0"/>
        <pt x="600" y="341" on="1"/>
        <pt x="600" y="371" on="0"/>
        <pt x="572" y="410" on="0"/>
      </contour>
      <contour>
        <pt x="275" y="235" on="1"/>
        <pt x="251" y="235" on="0"/>
        <pt x="195" y="222" on="0"/>
        <pt x="147" y="195" on="0"/>
        <pt x="115" y="153" on="0"/>
        <pt x="115" y="122" on="1"/>
        <pt x="115" y="99" on="0"/>
        <pt x="140" y="75" on="0"/>
        <pt x="159" y="75" on="1"/>
        <pt x="178" y="75" on="0"/>
        <pt x="214" y="94" on="0"/>
        <pt x="245" y="133" on="0"/>
        <pt x="269" y="193" on="0"/>
      </contour>
    </TTGlyph>
    <TTGlyph name="agrave" xMin="19" yMin="-10" xMax="523" yMax="744">
      <component glyphName="a" x="0" y="0" flags="0x204"/>
      <component glyphName="grave" x="126" y="0" flags="0x4"/>
    </TTGlyph>
    <TTGlyph name="ampersand" xMin="10" yMin="-24" xMax="529" yMax="703">
      <contour>
        <pt x="386" y="0" on="1"/>
        <pt x="366" y="38" on="1"/>
        <pt x="331" y="7" on="0"/>
        <pt x="245" y="-24" on="0"/>
        <pt x="189" y="-24" on="1"/>
        <pt x="142" y="-24" on="0"/>
        <pt x="74" y="1" on="0"/>
        <pt x="30" y="45" on="0"/>
        <pt x="10" y="103" on="0"/>
        <pt x="10" y="135" on="1"/>
        <pt x="10" y="174" on="0"/>
        <pt x="35" y="239" on="0"/>
        <pt x="76" y="295" on="0"/>
        <pt x="129" y="344" on="0"/>
        <pt x="158" y="367" on="1"/>
        <pt x="143" y="402" on="0"/>
        <pt x="118" y="477" on="0"/>
        <pt x="118" y="513" on="1"/>
        <pt x="118" y="557" on="0"/>
        <pt x="156" y="628" on="0"/>
        <pt x="217" y="677" on="0"/>
        <pt x="294" y="703" on="0"/>
        <pt x="333" y="703" on="1"/>
        <pt x="393" y="703" on="0"/>
        <pt x="456" y="640" on="0"/>
        <pt x="456" y="590" on="1"/>
        <pt x="456" y="551" on="0"/>
        <pt x="428" y="488" on="0"/>
        <pt x="382" y="434" on="0"/>
        <pt x="323" y="388" on="0"/>
        <pt x="292" y="366" on="1"/>
        <pt x="384" y="195" on="1"/>
        <pt x="389" y="211" on="0"/>
        <pt x="399" y="253" on="0"/>
        <pt x="408" y="295" on="0"/>
        <pt x="416" y="336" on="0"/>
        <pt x="419" y="352" on="1"/>
        <pt x="529" y="352" on="1"/>
        <pt x="525" y="330" on="0"/>
        <pt x="512" y="273" on="0"/>
        <pt x="491" y="210" on="0"/>
        <pt x="463" y="144" on="0"/>
        <pt x="444" y="114" on="1"/>
        <pt x="519" y="0" on="1"/>
      </contour>
      <contour>
        <pt x="312" y="613" on="1"/>
        <pt x="278" y="613" on="0"/>
        <pt x="231" y="563" on="0"/>
        <pt x="231" y="516" on="1"/>
        <pt x="231" y="496" on="0"/>
        <pt x="243" y="450" on="0"/>
        <pt x="254" y="424" on="1"/>
        <pt x="275" y="442" on="0"/>
        <pt x="311" y="474" on="0"/>
        <pt x="337" y="507" on="0"/>
        <pt x="352" y="544" on="0"/>
        <pt x="352" y="567" on="1"/>
        <pt x="352" y="613" on="0"/>
      </contour>
      <contour>
        <pt x="202" y="304" on="1"/>
        <pt x="170" y="272" on="0"/>
        <pt x="131" y="194" on="0"/>
        <pt x="131" y="148" on="1"/>
        <pt x="131" y="131" on="0"/>
        <pt x="140" y="100" on="0"/>
        <pt x="161" y="77" on="0"/>
        <pt x="195" y="63" on="0"/>
        <pt x="221" y="63" on="1"/>
        <pt x="252" y="63" on="0"/>
        <pt x="300" y="85" on="0"/>
        <pt x="319" y="105" on="1"/>
      </contour>
    </TTGlyph>
    <TTGlyph name="aring" xMin="19" yMin="-10" xMax="523" yMax="755">
      <component glyphName="a" x="0" y="0" flags="0x204"/>
      <component glyphName="ring" x="132" y="0" flags="0x4"/>
    </TTGlyph>
    <TTGlyph name="asciicircum" xMin="119" yMin="412" xMax="513" yMax="759">
      <contour>
        <pt x="342" y="625" on="1"/>
        <pt x="119" y="412" on="1"/>
        <pt x="143" y="546" on="1"/>
        <pt x="366" y="759" on="1"/>
        <pt x="513" y="546" on="1"/>
        <pt x="490" y="412" on="1"/>
      </contour>
    </TTGlyph>
    <TTGlyph name="asciitilde" xMin="33" yMin="174" xMax="389" yMax="293">
      <contour>
        <pt x="264" y="177" on="1"/>
        <pt x="245" y="177" on="0"/>
        <pt x="217" y="191" on="0"/>
        <pt x="193" y="208" on="0"/>
        <pt x="171" y="222" on="0"/>
        <pt x="158" y="222" on="1"/>
        <pt x="138" y="222" on="0"/>
        <pt x="114" y="191" on="0"/>
        <pt x="108" y="174" on="1"/>
        <pt x="33" y="191" on="1"/>
        <pt x="39" y="216" on="0"/>
        <pt x="68" y="253" on="0"/>
        <pt x="105" y="277" on="0"/>
        <pt x="146" y="289" on="0"/>
        <pt x="165" y="289" on="1"/>
        <pt x="186" y="289" on="0"/>
        <pt x="211" y="275" on="0"/>
        <pt x="231" y="259" on="0"/>
        <pt x="248" y="245" on="0"/>
        <pt x="261" y="245" on="1"/>
        <pt x="282" y="245" on="0"/>
        <pt x="315" y="275" on="0"/>
        <pt x="320" y="293" on="1"/>
        <pt x="389" y="276" on="1"/>
        <pt x="383" y="256" on="0"/>
        <pt x="360" y="221" on="0"/>
        <pt x="328" y="193" on="0"/>
        <pt x="288" y="177" on="0"/>
      </contour>
    </TTGlyph>
    <TTGlyph name="asterisk" xMin="91" yMin="414" xMax="439" yMax="749">
      <contour>
        <pt x="254" y="552" on="1"/>
        <pt x="153" y="414" on="1"/>
        <pt x="100" y="468" on="1"/>
        <pt x="227" y="567" on="1"/>
        <pt x="91" y="624" on="1"/>
        <pt x="147" y="693" on="1"/>
        <pt x="243" y="592" on="1"/>
        <pt x="243" y="749" on="1"/>
        <pt x="331" y="749" on="1"/>
        <pt x="269" y="592" on="1"/>
        <pt x="407" y="693" on="1"/>
        <pt x="439" y="623" on="1"/>
        <pt x="286" y="569" on="1"/>
        <pt x="377" y="471" on="1"/>
        <pt x="305" y="417" on="1"/>
      </contour>
    </TTGlyph>
    <TTGlyph name="at" xMin="25" yMin="-87" xMax="624" yMax="553">
      <contour>
        <pt x="515" y="379" on="1"/>
        <pt x="501" y="399" on="0"/>
        <pt x="453" y="432" on="0"/>
        <pt x="415" y="432" on="1"/>
        <pt x="369" y="432" on="0"/>
        <pt x="269" y="376" on="0"/>
        <pt x="187" y="287" on="0"/>
        <pt x="133" y="178" on="0"/>
        <pt x="133" y="124" on="1"/>
        <pt x="133" y="91" on="0"/>
        <pt x="162" y="40" on="0"/>
        <pt x="198" y="40" on="1"/>
        <pt x="218" y="40" on="0"/>
        <pt x="265" y="55" on="0"/>
        <pt x="314" y="85" on="0"/>
        <pt x="361" y="128" on="0"/>
        <pt x="381" y="156" on="1"/>
        <pt x="379" y="148" on="0"/>
        <pt x="370" y="122" on="0"/>
        <pt x="370" y="102" on="1"/>
        <pt x="370" y="81" on="0"/>
        <pt x="387" y="42" on="0"/>
        <pt x="410" y="42" on="1"/>
        <pt x="422" y="42" on="0"/>
        <pt x="456" y="53" on="0"/>
        <pt x="491" y="71" on="0"/>
        <pt x="525" y="94" on="0"/>
        <pt x="538" y="106" on="1"/>
        <pt x="509" y="63" on="0"/>
        <pt x="435" y="-8" on="0"/>
        <pt x="349" y="-59" on="0"/>
        <pt x="256" y="-87" on="0"/>
        <pt x="209" y="-87" on="1"/>
        <pt x="121" y="-87" on="0"/>
        <pt x="25" y="19" on="0"/>
        <pt x="25" y="114" on="1"/>
        <pt x="25" y="174" on="0"/>
        <pt x="58" y="287" on="0"/>
        <pt x="116" y="384" on="0"/>
        <pt x="194" y="464" on="0"/>
        <pt x="286" y="522" on="0"/>
        <pt x="387" y="553" on="0"/>
        <pt x="438" y="553" on="1"/>
        <pt x="529" y="553" on="0"/>
        <pt x="624" y="445" on="0"/>
        <pt x="624" y="353" on="1"/>
        <pt x="624" y="312" on="0"/>
        <pt x="603" y="221" on="0"/>
        <pt x="561" y="144" on="0"/>
        <pt x="497" y="94" on="0"/>
        <pt x="454" y="94" on="1"/>
        <pt x="440" y="94" on="0"/>
        <pt x="422" y="105" on="0"/>
        <pt x="422" y="128" on="1"/>
        <pt x="422" y="150" on="0"/>
        <pt x="437" y="199" on="0"/>
        <pt x="463" y="259" on="0"/>
        <pt x="497" y="332" on="0"/>
      </contour>
      <contour>
        <pt x="412" y="371" on="1"/>
        <pt x="420" y="371" on="0"/>
        <pt x="446" y="365" on="0"/>
        <pt x="449" y="349" on="1"/>
        <pt x="435" y="309" on="0"/>
        <pt x="384" y="223" on="0"/>
        <pt x="323" y="152" on="0"/>
        <pt x="262" y="106" on="0"/>
        <pt x="240" y="106" on="1"/>
        <pt x="223" y="106" on="0"/>
        <pt x="209" y="132" on="0"/>
        <pt x="209" y="152" on="1"/>
        <pt x="209" y="196" on="0"/>
        <pt x="252" y="275" on="0"/>
        <pt x="315" y="335" on="0"/>
        <pt x="385" y="371" on="0"/>
      </contour>
    </TTGlyph>
    <TTGlyph name="atilde" xMin="19" yMin="-10" xMax="552" yMax="715">
      <component glyphName="a" x="0" y="0" flags="0x204"/>
      <component glyphName="tilde" x="15" y="0" flags="0x4"/>
    </TTGlyph>
    <TTGlyph name="b" xMin="8" yMin="-10" xMax="497" yMax="750">
      <contour>
        <pt x="223" y="-10" on="1"/>
        <pt x="185" y="-10" on="0"/>
        <pt x="143" y="15" on="0"/>
        <pt x="123" y="39" on="1"/>
        <pt x="115" y="0" on="1"/>
        <pt x="8" y="0" on="1"/>
        <pt x="140" y="750" on="1"/>
        <pt x="254" y="750" on="1"/>
        <pt x="204" y="463" on="1"/>
        <pt x="229" y="486" on="0"/>
        <pt x="278" y="506" on="0"/>
        <pt x="314" y="506" on="1"/>
        <pt x="360" y="506" on="0"/>
        <pt x="429" y="473" on="0"/>
        <pt x="475" y="416" on="0"/>
        <pt x="497" y="340" on="0"/>
        <pt x="497" y="297" on="1"/>
        <pt x="497" y="238" on="0"/>
        <pt x="460" y="127" on="0"/>
        <pt x="389" y="42" on="0"/>
        <pt x="287" y="-10" on="0"/>
      </contour>
      <contour>
        <pt x="290" y="410" on="1"/>
        <pt x="261" y="410" on="0"/>
        <pt x="211" y="384" on="0"/>
        <pt x="174" y="331" on="0"/>
        <pt x="153" y="249" on="0"/>
        <pt x="153" y="193" on="1"/>
        <pt x="153" y="142" on="0"/>
        <pt x="192" y="85" on="0"/>
        <pt x="233" y="85" on="1"/>
        <pt x="266" y="85" on="0"/>
        <pt x="319" y="118" on="0"/>
        <pt x="357" y="174" on="0"/>
        <pt x="378" y="248" on="0"/>
        <pt x="378" y="289" on="1"/>
        <pt x="378" y="343" on="0"/>
        <pt x="335" y="410" on="0"/>
      </contour>
    </TTGlyph>
    <TTGlyph name="backslash" xMin="104" yMin="-85" xMax="418" yMax="700">
      <contour>
        <pt x="293" y="-85" on="1"/>
        <pt x="104" y="700" on="1"/>
        <pt x="229" y="700" on="1"/>
        <pt x="418" y="-85" on="1"/>
      </contour>
    </TTGlyph>
    <TTGlyph name="bar" xMin="-21" yMin="-210" xMax="239" yMax="750">
      <contour>
        <pt x="-21" y="-210" on="1"/>
        <pt x="148" y="750" on="1"/>
        <pt x="239" y="750" on="1"/>
        <pt x="69" y="-210" on="1"/>
      </contour>
    </TTGlyph>
    <TTGlyph name="braceleft" xMin="20" yMin="-136" xMax="363" yMax="750">
      <contour>
        <pt x="34" y="-10" on="1"/>
        <pt x="34" y="13" on="0"/>
        <pt x="46" y="66" on="0"/>
        <pt x="61" y="121" on="0"/>
        <pt x="74" y="177" on="0"/>
        <pt x="74" y="203" on="1"/>
        <pt x="74" y="238" on="0"/>
        <pt x="49" y="288" on="0"/>
        <pt x="20" y="307" on="1"/>
        <pt x="42" y="319" on="0"/>
        <pt x="75" y="346" on="0"/>
        <pt x="99" y="380" on="0"/>
        <pt x="115" y="422" on="0"/>
        <pt x="120" y="451" on="1"/>
        <pt x="126" y="485" on="0"/>
        <pt x="133" y="561" on="0"/>
        <pt x="138" y="590" on="1"/>
        <pt x="145" y="628" on="0"/>
        <pt x="175" y="687" on="0"/>
        <pt x="227" y="727" on="0"/>
        <pt x="307" y="749" on="0"/>
        <pt x="363" y="750" on="1"/>
        <pt x="345" y="653" on="1"/>
        <pt x="306" y="653" on="0"/>
        <pt x="261" y="641" on="0"/>
        <pt x="235" y="609" on="0"/>
        <pt x="221" y="550" on="0"/>
        <pt x="213" y="503" on="1"/>
        <pt x="209" y="483" on="0"/>
        <pt x="205" y="440" on="0"/>
        <pt x="201" y="420" on="1"/>
        <pt x="195" y="388" on="0"/>
        <pt x="169" y="331" on="0"/>
        <pt x="137" y="307" on="1"/>
        <pt x="154" y="291" on="0"/>
        <pt x="166" y="253" on="0"/>
        <pt x="166" y="233" on="1"/>
        <pt x="166" y="209" on="0"/>
        <pt x="155" y="167" on="0"/>
        <pt x="142" y="122" on="0"/>
        <pt x="131" y="70" on="0"/>
        <pt x="131" y="35" on="1"/>
        <pt x="131" y="-9" on="0"/>
        <pt x="171" y="-38" on="0"/>
        <pt x="224" y="-39" on="1"/>
        <pt x="206" y="-136" on="1"/>
        <pt x="114" y="-134" on="0"/>
        <pt x="34" y="-72" on="0"/>
      </contour>
    </TTGlyph>
    <TTGlyph name="braceright" xMin="-63" yMin="-136" xMax="280" yMax="750">
      <contour>
        <pt x="161" y="24" on="1"/>
        <pt x="154" y="-15" on="0"/>
        <pt x="123" y="-75" on="0"/>
        <pt x="69" y="-115" on="0"/>
        <pt x="-9" y="-135" on="0"/>
        <pt x="-63" y="-136" on="1"/>
        <pt x="-47" y="-39" on="1"/>
        <pt x="-7" y="-39" on="0"/>
        <pt x="39" y="-27" on="0"/>
        <pt x="64" y="6" on="0"/>
        <pt x="78" y="65" on="0"/>
        <pt x="87" y="112" on="1"/>
        <pt x="92" y="137" on="0"/>
        <pt x="96" y="182" on="0"/>
        <pt x="100" y="202" on="1"/>
        <pt x="105" y="234" on="0"/>
        <pt x="130" y="284" on="0"/>
        <pt x="162" y="307" on="1"/>
        <pt x="146" y="323" on="0"/>
        <pt x="134" y="365" on="0"/>
        <pt x="134" y="386" on="1"/>
        <pt x="134" y="405" on="0"/>
        <pt x="145" y="442" on="0"/>
        <pt x="158" y="487" on="0"/>
        <pt x="169" y="543" on="0"/>
        <pt x="169" y="580" on="1"/>
        <pt x="169" y="623" on="0"/>
        <pt x="129" y="653" on="0"/>
        <pt x="76" y="653" on="1"/>
        <pt x="93" y="750" on="1"/>
        <pt x="140" y="750" on="0"/>
        <pt x="206" y="732" on="0"/>
        <pt x="247" y="700" on="0"/>
        <pt x="265" y="653" on="0"/>
        <pt x="265" y="624" on="1"/>
        <pt x="265" y="601" on="0"/>
        <pt x="252" y="549" on="0"/>
        <pt x="237" y="493" on="0"/>
        <pt x="225" y="438" on="0"/>
        <pt x="225" y="412" on="1"/>
        <pt x="225" y="374" on="0"/>
        <pt x="251" y="326" on="0"/>
        <pt x="280" y="307" on="1"/>
        <pt x="256" y="294" on="0"/>
        <pt x="222" y="266" on="0"/>
        <pt x="199" y="232" on="0"/>
        <pt x="184" y="190" on="0"/>
        <pt x="180" y="164" on="1"/>
        <pt x="174" y="129" on="0"/>
        <pt x="166" y="53" on="0"/>
      </contour>
    </TTGlyph>
    <TTGlyph name="bracketleft" xMin="-7" yMin="-136" xMax="381" yMax="750">
      <contour>
        <pt x="98" y="-136" on="1"/>
        <pt x="-7" y="-136" on="1"/>
        <pt x="149" y="750" on="1"/>
        <pt x="381" y="750" on="1"/>
        <pt x="363" y="654" on="1"/>
        <pt x="236" y="654" on="1"/>
        <pt x="114" y="-39" on="1"/>
        <pt x="242" y="-39" on="1"/>
        <pt x="224" y="-136" on="1"/>
      </contour>
    </TTGlyph>
    <TTGlyph name="bracketright" xMin="-60" yMin="-136" xMax="328" yMax="751">
      <contour>
        <pt x="328" y="751" on="1"/>
        <pt x="172" y="-136" on="1"/>
        <pt x="67" y="-136" on="1"/>
        <pt x="-60" y="-136" on="1"/>
        <pt x="-42" y="-40" on="1"/>
        <pt x="85" y="-40" on="1"/>
        <pt x="207" y="654" on="1"/>
        <pt x="79" y="654" on="1"/>
        <pt x="97" y="751" on="1"/>
      </contour>
    </TTGlyph>
    <TTGlyph name="brokenbar" xMin="-19" yMin="-210" xMax="229" yMax="750">
      <contour>
        <pt x="69" y="291" on="1"/>
        <pt x="150" y="750" on="1"/>
        <pt x="229" y="750" on="1"/>
        <pt x="149" y="291" on="1"/>
      </contour>
      <contour>
        <pt x="-19" y="-210" on="1"/>
        <pt x="50" y="182" on="1"/>
        <pt x="129" y="182" on="1"/>
        <pt x="60" y="-210" on="1"/>
      </contour>
    </TTGlyph>
    <TTGlyph name="bullet" xMin="38" yMin="169" xMax="238" yMax="387">
      <contour>
        <pt x="119" y="169" on="1"/>
        <pt x="83" y="169" on="0"/>
        <pt x="38" y="223" on="0"/>
        <pt x="38" y="261" on="1"/>
        <pt x="38" y="286" on="0"/>
        <pt x="58" y="332" on="0"/>
        <pt x="92" y="367" on="0"/>
        <pt x="134" y="387" on="0"/>
        <pt x="157" y="387" on="1"/>
        <pt x="193" y="387" on="0"/>
        <pt x="238" y="333" on="0"/>
        <pt x="238" y="295" on="1"/>
        <pt x="238" y="269" on="0"/>
        <pt x="218" y="224" on="0"/>
        <pt x="184" y="189" on="0"/>
        <pt x="141" y="169" on="0"/>
      </contour>
    </TTGlyph>
    <TTGlyph name="c" xMin="20" yMin="-10" xMax="419" yMax="506">
      <contour>
        <pt x="199" y="-10" on="1"/>
        <pt x="154" y="-10" on="0"/>
        <pt x="86" y="23" on="0"/>
        <pt x="42" y="79" on="0"/>
        <pt x="20" y="154" on="0"/>
        <pt x="20" y="196" on="1"/>
        <pt x="20" y="256" on="0"/>
        <pt x="57" y="368" on="0"/>
        <pt x="126" y="454" on="0"/>
        <pt x="227" y="506" on="0"/>
        <pt x="290" y="506" on="1"/>
        <pt x="317" y="506" on="0"/>
        <pt x="357" y="500" on="0"/>
        <pt x="387" y="491" on="0"/>
        <pt x="409" y="478" on="0"/>
        <pt x="419" y="471" on="1"/>
        <pt x="392" y="373" on="1"/>
        <pt x="367" y="391" on="0"/>
        <pt x="314" y="410" on="0"/>
        <pt x="282" y="410" on="1"/>
        <pt x="250" y="410" on="0"/>
        <pt x="197" y="379" on="0"/>
        <pt x="159" y="324" on="0"/>
        <pt x="138" y="249" on="0"/>
        <pt x="138" y="206" on="1"/>
        <pt x="138" y="151" on="0"/>
        <pt x="182" y="85" on="0"/>
        <pt x="225" y="85" on="1"/>
        <pt x="257" y="85" on="0"/>
        <pt x="316" y="104" on="0"/>
        <pt x="347" y="122" on="1"/>
        <pt x="340" y="27" on="1"/>
        <pt x="316" y="12" on="0"/>
        <pt x="253" y="-10" on="0"/>
      </contour>
    </TTGlyph>
    <TTGlyph name="caron" xMin="192" yMin="590" xMax="468" yMax="747">
      <contour>
        <pt x="308" y="590" on="1"/>
        <pt x="192" y="683" on="1"/>
        <pt x="203" y="747" on="1"/>
        <pt x="323" y="674" on="1"/>
        <pt x="468" y="747" on="1"/>
        <pt x="457" y="683" on="1"/>
      </contour>
    </TTGlyph>
    <TTGlyph name="ccaron" xMin="20" yMin="-10" xMax="452" yMax="747">
      <component glyphName="c" x="0" y="0" flags="0x204"/>
      <component glyphName="caron" x="-16" y="0" flags="0x4"/>
    </TTGlyph>
    <TTGlyph name="ccedilla" xMin="20" yMin="-193" xMax="419" yMax="506">
      <component glyphName="c" x="0" y="0" flags="0x204"/>
      <component glyphName="cedilla" x="-17" y="0" flags="0x4"/>
    </TTGlyph>
    <TTGlyph name="cedilla" xMin="88" yMin="-193" xMax="272" yMax="-53">
      <contour>
        <pt x="158" y="-186" on="1"/>
        <pt x="88" y="-193" on="1"/>
        <pt x="174" y="-61" on="1"/>
        <pt x="272" y="-53" on="1"/>
      </contour>
    </TTGlyph>
    <TTGlyph name="cent" xMin="40" yMin="-32" xMax="440" yMax="748">
      <contour>
        <pt x="241" y="-32" on="1"/>
        <pt x="144" y="-32" on="1"/>
        <pt x="179" y="90" on="1"/>
        <pt x="144" y="96" on="0"/>
        <pt x="92" y="131" on="0"/>
        <pt x="57" y="184" on="0"/>
        <pt x="40" y="252" on="0"/>
        <pt x="40" y="291" on="1"/>
        <pt x="40" y="349" on="0"/>
        <pt x="73" y="455" on="0"/>
        <pt x="133" y="540" on="0"/>
        <pt x="218" y="597" on="0"/>
        <pt x="270" y="605" on="1"/>
        <pt x="281" y="748" on="1"/>
        <pt x="379" y="748" on="1"/>
        <pt x="340" y="607" on="1"/>
        <pt x="379" y="604" on="0"/>
        <pt x="423" y="586" on="0"/>
        <pt x="440" y="572" on="1"/>
        <pt x="413" y="475" on="1"/>
        <pt x="363" y="513" on="0"/>
        <pt x="308" y="513" on="1"/>
        <pt x="272" y="513" on="0"/>
        <pt x="217" y="479" on="0"/>
        <pt x="179" y="421" on="0"/>
        <pt x="159" y="345" on="0"/>
        <pt x="159" y="303" on="1"/>
        <pt x="159" y="249" on="0"/>
        <pt x="203" y="183" on="0"/>
        <pt x="250" y="183" on="1"/>
        <pt x="306" y="183" on="0"/>
        <pt x="368" y="221" on="1"/>
        <pt x="361" y="124" on="1"/>
        <pt x="340" y="111" on="0"/>
        <pt x="288" y="91" on="0"/>
        <pt x="247" y="88" on="1"/>
      </contour>
    </TTGlyph>
    <TTGlyph name="circumflex" xMin="176" yMin="591" xMax="452" yMax="748">
      <contour>
        <pt x="322" y="665" on="1"/>
        <pt x="176" y="591" on="1"/>
        <pt x="187" y="653" on="1"/>
        <pt x="336" y="748" on="1"/>
        <pt x="452" y="653" on="1"/>
        <pt x="441" y="591" on="1"/>
      </contour>
    </TTGlyph>
    <TTGlyph name="colon" xMin="4" yMin="0" xMax="196" yMax="440">
      <contour>
        <pt x="61" y="324" on="1"/>
        <pt x="82" y="440" on="1"/>
        <pt x="196" y="440" on="1"/>
        <pt x="175" y="324" on="1"/>
      </contour>
      <contour>
        <pt x="4" y="0" on="1"/>
        <pt x="25" y="116" on="1"/>
        <pt x="139" y="116" on="1"/>
        <pt x="119" y="0" on="1"/>
      </contour>
    </TTGlyph>
    <TTGlyph name="comma" xMin="-12" yMin="-110" xMax="138" yMax="116">
      <contour>
        <pt x="9" y="-110" on="1"/>
        <pt x="-12" y="-96" on="1"/>
        <pt x="32" y="-10" on="1"/>
        <pt x="5" y="0" on="1"/>
        <pt x="25" y="116" on="1"/>
        <pt x="138" y="116" on="1"/>
        <pt x="118" y="0" on="1"/>
      </contour>
    </TTGlyph>
    <TTGlyph name="copyright" xMin="56" yMin="37" xMax="629" yMax="693">
      <contour>
        <pt x="285" y="37" on="1"/>
        <pt x="233" y="37" on="0"/>
        <pt x="148" y="75" on="0"/>
        <pt x="88" y="144" on="0"/>
        <pt x="56" y="241" on="0"/>
        <pt x="56" y="301" on="1"/>
        <pt x="56" y="387" on="0"/>
        <pt x="111" y="531" on="0"/>
        <pt x="206" y="635" on="0"/>
        <pt x="331" y="693" on="0"/>
        <pt x="401" y="693" on="1"/>
        <pt x="453" y="693" on="0"/>
        <pt x="537" y="656" on="0"/>
        <pt x="597" y="587" on="0"/>
        <pt x="629" y="490" on="0"/>
        <pt x="629" y="430" on="1"/>
        <pt x="629" y="344" on="0"/>
        <pt x="574" y="200" on="0"/>
        <pt x="480" y="95" on="0"/>
        <pt x="355" y="37" on="0"/>
      </contour>
      <contour>
        <pt x="390" y="631" on="1"/>
        <pt x="326" y="631" on="0"/>
        <pt x="228" y="577" on="0"/>
        <pt x="161" y="487" on="0"/>
        <pt x="127" y="368" on="0"/>
        <pt x="127" y="303" on="1"/>
        <pt x="127" y="259" on="0"/>
        <pt x="147" y="184" on="0"/>
        <pt x="189" y="129" on="0"/>
        <pt x="252" y="98" on="0"/>
        <pt x="296" y="98" on="1"/>
        <pt x="359" y="98" on="0"/>
        <pt x="457" y="152" on="0"/>
        <pt x="523" y="243" on="0"/>
        <pt x="558" y="362" on="0"/>
        <pt x="558" y="427" on="1"/>
        <pt x="558" y="471" on="0"/>
        <pt x="538" y="546" on="0"/>
        <pt x="496" y="600" on="0"/>
        <pt x="433" y="631" on="0"/>
      </contour>
      <contour>
        <pt x="320" y="192" on="1"/>
        <pt x="264" y="192" on="0"/>
        <pt x="198" y="267" on="0"/>
        <pt x="198" y="330" on="1"/>
        <pt x="198" y="375" on="0"/>
        <pt x="227" y="450" on="0"/>
        <pt x="276" y="504" on="0"/>
        <pt x="342" y="535" on="0"/>
        <pt x="380" y="535" on="1"/>
        <pt x="405" y="535" on="0"/>
        <pt x="452" y="522" on="0"/>
        <pt x="469" y="513" on="1"/>
        <pt x="446" y="436" on="1"/>
        <pt x="426" y="445" on="0"/>
        <pt x="389" y="458" on="0"/>
        <pt x="366" y="458" on="1"/>
        <pt x="347" y="458" on="0"/>
        <pt x="316" y="439" on="0"/>
        <pt x="295" y="407" on="0"/>
        <pt x="283" y="363" on="0"/>
        <pt x="283" y="339" on="1"/>
        <pt x="283" y="308" on="0"/>
        <pt x="308" y="268" on="0"/>
        <pt x="333" y="268" on="1"/>
        <pt x="356" y="268" on="0"/>
        <pt x="398" y="281" on="0"/>
        <pt x="421" y="292" on="1"/>
        <pt x="417" y="216" on="1"/>
        <pt x="396" y="205" on="0"/>
        <pt x="343" y="192" on="0"/>
      </contour>
    </TTGlyph>
    <TTGlyph name="currency" xMin="19" yMin="22" xMax="587" yMax="674">
      <contour>
        <pt x="423" y="22" on="1"/>
        <pt x="374" y="122" on="1"/>
        <pt x="324" y="91" on="0"/>
        <pt x="257" y="91" on="1"/>
        <pt x="190" y="91" on="0"/>
        <pt x="152" y="122" on="1"/>
        <pt x="68" y="22" on="1"/>
        <pt x="19" y="64" on="1"/>
        <pt x="101" y="163" on="1"/>
        <pt x="85" y="190" on="0"/>
        <pt x="69" y="263" on="0"/>
        <pt x="69" y="299" on="1"/>
        <pt x="69" y="365" on="0"/>
        <pt x="120" y="483" on="0"/>
        <pt x="167" y="533" on="1"/>
        <pt x="119" y="632" on="1"/>
        <pt x="183" y="674" on="1"/>
        <pt x="231" y="574" on="1"/>
        <pt x="284" y="605" on="0"/>
        <pt x="348" y="605" on="1"/>
        <pt x="413" y="605" on="0"/>
        <pt x="454" y="573" on="1"/>
        <pt x="539" y="674" on="1"/>
        <pt x="587" y="632" on="1"/>
        <pt x="504" y="532" on="1"/>
        <pt x="520" y="505" on="0"/>
        <pt x="536" y="432" on="0"/>
        <pt x="536" y="396" on="1"/>
        <pt x="536" y="329" on="0"/>
        <pt x="484" y="212" on="0"/>
        <pt x="439" y="162" on="1"/>
        <pt x="487" y="64" on="1"/>
      </contour>
      <contour>
        <pt x="332" y="516" on="1"/>
        <pt x="300" y="516" on="0"/>
        <pt x="246" y="482" on="0"/>
        <pt x="208" y="424" on="0"/>
        <pt x="187" y="347" on="0"/>
        <pt x="187" y="305" on="1"/>
        <pt x="187" y="250" on="0"/>
        <pt x="230" y="180" on="0"/>
        <pt x="273" y="180" on="1"/>
        <pt x="305" y="180" on="0"/>
        <pt x="359" y="214" on="0"/>
        <pt x="397" y="272" on="0"/>
        <pt x="418" y="349" on="0"/>
        <pt x="418" y="391" on="1"/>
        <pt x="418" y="446" on="0"/>
        <pt x="375" y="516" on="0"/>
      </contour>
    </TTGlyph>
    <TTGlyph name="d" xMin="19" yMin="-10" xMax="553" yMax="750">
      <contour>
        <pt x="312" y="0" on="1"/>
        <pt x="318" y="39" on="1"/>
        <pt x="290" y="15" on="0"/>
        <pt x="239" y="-10" on="0"/>
        <pt x="201" y="-10" on="1"/>
        <pt x="155" y="-10" on="0"/>
        <pt x="86" y="22" on="0"/>
        <pt x="41" y="78" on="0"/>
        <pt x="19" y="153" on="0"/>
        <pt x="19" y="196" on="1"/>
        <pt x="19" y="255" on="0"/>
        <pt x="57" y="367" on="0"/>
        <pt x="128" y="454" on="0"/>
        <pt x="230" y="506" on="0"/>
        <pt x="293" y="506" on="1"/>
        <pt x="328" y="506" on="0"/>
        <pt x="371" y="486" on="0"/>
        <pt x="388" y="463" on="1"/>
        <pt x="438" y="750" on="1"/>
        <pt x="553" y="750" on="1"/>
        <pt x="420" y="0" on="1"/>
      </contour>
      <contour>
        <pt x="283" y="410" on="1"/>
        <pt x="250" y="410" on="0"/>
        <pt x="197" y="378" on="0"/>
        <pt x="158" y="323" on="0"/>
        <pt x="137" y="249" on="0"/>
        <pt x="137" y="208" on="1"/>
        <pt x="137" y="154" on="0"/>
        <pt x="181" y="85" on="0"/>
        <pt x="226" y="85" on="1"/>
        <pt x="255" y="85" on="0"/>
        <pt x="305" y="110" on="0"/>
        <pt x="341" y="163" on="0"/>
        <pt x="362" y="246" on="0"/>
        <pt x="362" y="303" on="1"/>
        <pt x="362" y="353" on="0"/>
        <pt x="324" y="410" on="0"/>
      </contour>
    </TTGlyph>
    <TTGlyph name="dagger" xMin="48" yMin="0" xMax="388" yMax="607">
      <contour>
        <pt x="258" y="384" on="1"/>
        <pt x="258" y="255" on="1"/>
        <pt x="186" y="0" on="1"/>
        <pt x="103" y="0" on="1"/>
        <pt x="121" y="255" on="1"/>
        <pt x="169" y="384" on="1"/>
        <pt x="48" y="356" on="1"/>
        <pt x="69" y="474" on="1"/>
        <pt x="183" y="446" on="1"/>
        <pt x="183" y="607" on="1"/>
        <pt x="321" y="607" on="1"/>
        <pt x="267" y="446" on="1"/>
        <pt x="388" y="474" on="1"/>
        <pt x="367" y="356" on="1"/>
      </contour>
    </TTGlyph>
    <TTGlyph name="daggerdbl" xMin="15" yMin="-59" xMax="405" yMax="607">
      <contour>
        <pt x="220" y="101" on="1"/>
        <pt x="220" y="-59" on="1"/>
        <pt x="82" y="-59" on="1"/>
        <pt x="136" y="101" on="1"/>
        <pt x="15" y="74" on="1"/>
        <pt x="36" y="191" on="1"/>
        <pt x="141" y="163" on="1"/>
        <pt x="141" y="274" on="1"/>
        <pt x="186" y="385" on="1"/>
        <pt x="66" y="358" on="1"/>
        <pt x="86" y="475" on="1"/>
        <pt x="200" y="447" on="1"/>
        <pt x="200" y="607" on="1"/>
        <pt x="338" y="607" on="1"/>
        <pt x="284" y="447" on="1"/>
        <pt x="405" y="475" on="1"/>
        <pt x="384" y="358" on="1"/>
        <pt x="278" y="385" on="1"/>
        <pt x="278" y="274" on="1"/>
        <pt x="234" y="163" on="1"/>
        <pt x="354" y="191" on="1"/>
        <pt x="334" y="74" on="1"/>
      </contour>
    </TTGlyph>
    <TTGlyph name="degree" xMin="87" yMin="482" xMax="331" yMax="755">
      <contour>
        <pt x="185" y="482" on="1"/>
        <pt x="137" y="482" on="0"/>
        <pt x="87" y="546" on="0"/>
        <pt x="87" y="593" on="1"/>
        <pt x="87" y="624" on="0"/>
        <pt x="108" y="683" on="0"/>
        <pt x="147" y="728" on="0"/>
        <pt x="201" y="755" on="0"/>
        <pt x="233" y="755" on="1"/>
        <pt x="282" y="755" on="0"/>
        <pt x="331" y="690" on="0"/>
        <pt x="331" y="643" on="1"/>
        <pt x="331" y="611" on="0"/>
        <pt x="310" y="553" on="0"/>
        <pt x="271" y="508" on="0"/>
        <pt x="218" y="482" on="0"/>
      </contour>
      <contour>
        <pt x="225" y="712" on="1"/>
        <pt x="209" y="712" on="0"/>
        <pt x="182" y="692" on="0"/>
        <pt x="162" y="659" on="0"/>
        <pt x="150" y="617" on="0"/>
        <pt x="150" y="594" on="1"/>
        <pt x="150" y="564" on="0"/>
        <pt x="171" y="525" on="0"/>
        <pt x="192" y="525" on="1"/>
        <pt x="209" y="525" on="0"/>
        <pt x="237" y="545" on="0"/>
        <pt x="256" y="578" on="0"/>
        <pt x="267" y="621" on="0"/>
        <pt x="267" y="644" on="1"/>
        <pt x="267" y="673" on="0"/>
        <pt x="247" y="712" on="0"/>
      </contour>
    </TTGlyph>
    <TTGlyph name="dieresis" xMin="187" yMin="596" xMax="429" yMax="700">
      <contour>
        <pt x="321" y="596" on="1"/>
        <pt x="339" y="700" on="1"/>
        <pt x="429" y="700" on="1"/>
        <pt x="410" y="596" on="1"/>
      </contour>
      <contour>
        <pt x="187" y="596" on="1"/>
        <pt x="206" y="700" on="1"/>
        <pt x="295" y="700" on="1"/>
        <pt x="277" y="596" on="1"/>
      </contour>
    </TTGlyph>
    <TTGlyph name="divide" xMin="45" yMin="20" xMax="475" yMax="534">
      <contour>
        <pt x="223" y="415" on="1"/>
        <pt x="244" y="534" on="1"/>
        <pt x="358" y="534" on="1"/>
        <pt x="338" y="415" on="1"/>
      </contour>
      <contour>
        <pt x="45" y="235" on="1"/>
        <pt x="61" y="322" on="1"/>
        <pt x="475" y="322" on="1"/>
        <pt x="459" y="235" on="1"/>
      </contour>
      <contour>
        <pt x="153" y="20" on="1"/>
        <pt x="174" y="139" on="1"/>
        <pt x="289" y="139" on="1"/>
        <pt x="268" y="20" on="1"/>
      </contour>
    </TTGlyph>
    <TTGlyph name="dollar" xMin="19" yMin="-32" xMax="472" yMax="748">
      <contour>
        <pt x="232" y="-32" on="1"/>
        <pt x="135" y="-32" on="1"/>
        <pt x="169" y="80" on="1"/>
        <pt x="117" y="83" on="0"/>
        <pt x="38" y="105" on="0"/>
        <pt x="19" y="119" on="1"/>
        <pt x="56" y="240" on="1"/>
        <pt x="74" y="217" on="0"/>
        <pt x="155" y="179" on="0"/>
        <pt x="215" y="179" on="1"/>
        <pt x="265" y="179" on="0"/>
        <pt x="316" y="208" on="0"/>
        <pt x="316" y="243" on="1"/>
        <pt x="316" y="266" on="0"/>
        <pt x="280" y="296" on="0"/>
        <pt x="226" y="320" on="0"/>
        <pt x="162" y="342" on="0"/>
        <pt x="108" y="374" on="0"/>
        <pt x="72" y="419" on="0"/>
        <pt x="72" y="455" on="1"/>
        <pt x="72" y="480" on="0"/>
        <pt x="92" y="537" on="0"/>
        <pt x="139" y="588" on="0"/>
        <pt x="213" y="626" on="0"/>
        <pt x="267" y="632" on="1"/>
        <pt x="273" y="748" on="1"/>
        <pt x="370" y="748" on="1"/>
        <pt x="335" y="632" on="1"/>
        <pt x="380" y="629" on="0"/>
        <pt x="455" y="606" on="0"/>
        <pt x="472" y="594" on="1"/>
        <pt x="443" y="486" on="1"/>
        <pt x="408" y="507" on="0"/>
        <pt x="330" y="537" on="0"/>
        <pt x="297" y="537" on="1"/>
        <pt x="278" y="537" on="0"/>
        <pt x="239" y="532" on="0"/>
        <pt x="207" y="520" on="0"/>
        <pt x="186" y="497" on="0"/>
        <pt x="186" y="479" on="1"/>
        <pt x="186" y="457" on="0"/>
        <pt x="224" y="432" on="0"/>
        <pt x="280" y="411" on="0"/>
        <pt x="346" y="389" on="0"/>
        <pt x="402" y="356" on="0"/>
        <pt x="440" y="303" on="0"/>
        <pt x="440" y="262" on="1"/>
        <pt x="440" y="242" on="0"/>
        <pt x="427" y="186" on="0"/>
        <pt x="385" y="131" on="0"/>
        <pt x="305" y="87" on="0"/>
        <pt x="238" y="81" on="1"/>
      </contour>
    </TTGlyph>
    <TTGlyph name="dotlessi" xMin="9" yMin="0" xMax="211" yMax="497">
      <contour>
        <pt x="9" y="0" on="1"/>
        <pt x="97" y="497" on="1"/>
        <pt x="211" y="497" on="1"/>
        <pt x="124" y="0" on="1"/>
      </contour>
    </TTGlyph>
    <TTGlyph name="e" xMin="19" yMin="-10" xMax="454" yMax="506">
      <contour>
        <pt x="454" y="367" on="1"/>
        <pt x="454" y="327" on="0"/>
        <pt x="420" y="265" on="0"/>
        <pt x="358" y="223" on="0"/>
        <pt x="271" y="202" on="0"/>
        <pt x="218" y="202" on="1"/>
        <pt x="192" y="202" on="0"/>
        <pt x="149" y="207" on="0"/>
        <pt x="138" y="209" on="1"/>
        <pt x="139" y="174" on="0"/>
        <pt x="160" y="126" on="0"/>
        <pt x="193" y="97" on="0"/>
        <pt x="234" y="85" on="0"/>
        <pt x="257" y="85" on="1"/>
        <pt x="273" y="85" on="0"/>
        <pt x="312" y="91" on="0"/>
        <pt x="352" y="101" on="0"/>
        <pt x="391" y="114" on="0"/>
        <pt x="407" y="122" on="1"/>
        <pt x="396" y="28" on="1"/>
        <pt x="367" y="14" on="0"/>
        <pt x="282" y="-10" on="0"/>
        <pt x="233" y="-10" on="1"/>
        <pt x="178" y="-10" on="0"/>
        <pt x="97" y="23" on="0"/>
        <pt x="45" y="81" on="0"/>
        <pt x="19" y="159" on="0"/>
        <pt x="19" y="204" on="1"/>
        <pt x="19" y="262" on="0"/>
        <pt x="58" y="371" on="0"/>
        <pt x="131" y="455" on="0"/>
        <pt x="233" y="506" on="0"/>
        <pt x="296" y="506" on="1"/>
        <pt x="374" y="506" on="0"/>
        <pt x="454" y="430" on="0"/>
      </contour>
      <contour>
        <pt x="290" y="410" on="1"/>
        <pt x="263" y="410" on="0"/>
        <pt x="217" y="388" on="0"/>
        <pt x="181" y="352" on="0"/>
        <pt x="155" y="306" on="0"/>
        <pt x="148" y="283" on="1"/>
        <pt x="159" y="280" on="0"/>
        <pt x="182" y="277" on="0"/>
        <pt x="202" y="277" on="1"/>
        <pt x="247" y="277" on="0"/>
        <pt x="307" y="292" on="0"/>
        <pt x="342" y="316" on="0"/>
        <pt x="356" y="345" on="0"/>
        <pt x="356" y="359" on="1"/>
        <pt x="356" y="375" on="0"/>
        <pt x="342" y="396" on="0"/>
        <pt x="322" y="406" on="0"/>
        <pt x="299" y="410" on="0"/>
      </contour>
    </TTGlyph>
    <TTGlyph name="eacute" xMin="19" yMin="-10" xMax="454" yMax="744">
      <component glyphName="e" x="0" y="0" flags="0x204"/>
      <component glyphName="acute" x="46" y="0" flags="0x4"/>
    </TTGlyph>
    <TTGlyph name="ecircumflex" xMin="19" yMin="-10" xMax="454" yMax="748">
      <component glyphName="e" x="0" y="0" flags="0x204"/>
      <component glyphName="circumflex" x="-18" y="0" flags="0x4"/>
    </TTGlyph>
    <TTGlyph name="edieresis" xMin="19" yMin="-10" xMax="454" yMax="700">
      <component glyphName="e" x="0" y="0" flags="0x204"/>
      <component glyphName="dieresis" x="-10" y="0" flags="0x4"/>
    </TTGlyph>
    <TTGlyph name="egrave" xMin="19" yMin="-10" xMax="454" yMax="744">
      <component glyphName="e" x="0" y="0" flags="0x204"/>
      <component glyphName="grave" x="46" y="0" flags="0x4"/>
    </TTGlyph>
    <TTGlyph name="eight" xMin="37" yMin="-14" xMax="516" yMax="714">
      <contour>
        <pt x="217" y="-14" on="1"/>
        <pt x="169" y="-14" on="0"/>
        <pt x="101" y="14" on="0"/>
        <pt x="58" y="61" on="0"/>
        <pt x="37" y="121" on="0"/>
        <pt x="37" y="154" on="1"/>
        <pt x="37" y="205" on="0"/>
        <pt x="94" y="322" on="0"/>
        <pt x="169" y="377" on="1"/>
        <pt x="150" y="401" on="0"/>
        <pt x="133" y="467" on="0"/>
        <pt x="133" y="499" on="1"/>
        <pt x="133" y="536" on="0"/>
        <pt x="155" y="613" on="0"/>
        <pt x="208" y="675" on="0"/>
        <pt x="294" y="714" on="0"/>
        <pt x="358" y="714" on="1"/>
        <pt x="402" y="714" on="0"/>
        <pt x="462" y="692" on="0"/>
        <pt x="500" y="655" on="0"/>
        <pt x="516" y="607" on="0"/>
        <pt x="516" y="581" on="1"/>
        <pt x="516" y="551" on="0"/>
        <pt x="502" y="500" on="0"/>
        <pt x="475" y="454" on="0"/>
        <pt x="435" y="410" on="0"/>
        <pt x="408" y="386" on="1"/>
        <pt x="443" y="364" on="0"/>
        <pt x="488" y="287" on="0"/>
        <pt x="488" y="234" on="1"/>
        <pt x="488" y="193" on="0"/>
        <pt x="454" y="106" on="0"/>
        <pt x="387" y="33" on="0"/>
        <pt x="285" y="-14" on="0"/>
      </contour>
      <contour>
        <pt x="337" y="618" on="1"/>
        <pt x="287" y="618" on="0"/>
        <pt x="236" y="559" on="0"/>
        <pt x="236" y="505" on="1"/>
        <pt x="236" y="481" on="0"/>
        <pt x="263" y="436" on="0"/>
        <pt x="298" y="424" on="1"/>
        <pt x="352" y="441" on="0"/>
        <pt x="403" y="508" on="0"/>
        <pt x="403" y="555" on="1"/>
        <pt x="403" y="582" on="0"/>
        <pt x="373" y="618" on="0"/>
      </contour>
      <contour>
        <pt x="290" y="334" on="1"/>
        <pt x="266" y="329" on="0"/>
        <pt x="217" y="304" on="0"/>
        <pt x="176" y="263" on="0"/>
        <pt x="151" y="206" on="0"/>
        <pt x="151" y="170" on="1"/>
        <pt x="151" y="128" on="0"/>
        <pt x="196" y="83" on="0"/>
        <pt x="238" y="83" on="1"/>
        <pt x="269" y="83" on="0"/>
        <pt x="319" y="104" on="0"/>
        <pt x="353" y="142" on="0"/>
        <pt x="371" y="193" on="0"/>
        <pt x="371" y="222" on="1"/>
        <pt x="371" y="267" on="0"/>
        <pt x="324" y="323" on="0"/>
      </contour>
    </TTGlyph>
    <TTGlyph name="ellipsis" xMin="6" yMin="0" xMax="566" yMax="116">
      <contour>
        <pt x="6" y="0" on="1"/>
        <pt x="27" y="116" on="1"/>
        <pt x="141" y="116" on="1"/>
        <pt x="121" y="0" on="1"/>
      </contour>
      <contour>
        <pt x="218" y="0" on="1"/>
        <pt x="239" y="116" on="1"/>
        <pt x="353" y="116" on="1"/>
        <pt x="333" y="0" on="1"/>
      </contour>
      <contour>
        <pt x="431" y="0" on="1"/>
        <pt x="452" y="116" on="1"/>
        <pt x="566" y="116" on="1"/>
        <pt x="546" y="0" on="1"/>
      </contour>
    </TTGlyph>
    <TTGlyph name="emdash" xMin="45" yMin="232" xMax="494" yMax="324">
      <contour>
        <pt x="45" y="232" on="1"/>
        <pt x="62" y="324" on="1"/>
        <pt x="494" y="324" on="1"/>
        <pt x="477" y="232" on="1"/>
      </contour>
    </TTGlyph>
    <TTGlyph name="endash" xMin="45" yMin="232" xMax="411" yMax="324">
      <contour>
        <pt x="45" y="232" on="1"/>
        <pt x="62" y="324" on="1"/>
        <pt x="411" y="324" on="1"/>
        <pt x="394" y="232" on="1"/>
      </contour>
    </TTGlyph>
    <TTGlyph name="equal" xMin="40" yMin="153" xMax="416" yMax="401">
      <contour>
        <pt x="68" y="312" on="1"/>
        <pt x="83" y="401" on="1"/>
        <pt x="416" y="401" on="1"/>
        <pt x="401" y="312" on="1"/>
      </contour>
      <contour>
        <pt x="40" y="153" on="1"/>
        <pt x="55" y="242" on="1"/>
        <pt x="388" y="242" on="1"/>
        <pt x="373" y="153" on="1"/>
      </contour>
    </TTGlyph>
    <TTGlyph name="eth" xMin="3" yMin="-13" xMax="451" yMax="711">
      <contour>
        <pt x="173" y="-13" on="1"/>
        <pt x="135" y="-13" on="0"/>
        <pt x="73" y="14" on="0"/>
        <pt x="28" y="62" on="0"/>
        <pt x="3" y="128" on="0"/>
        <pt x="3" y="168" on="1"/>
        <pt x="3" y="211" on="0"/>
        <pt x="36" y="303" on="0"/>
        <pt x="96" y="378" on="0"/>
        <pt x="183" y="426" on="0"/>
        <pt x="237" y="426" on="1"/>
        <pt x="275" y="426" on="0"/>
        <pt x="318" y="399" on="0"/>
        <pt x="334" y="382" on="1"/>
        <pt x="335" y="387" on="0"/>
        <pt x="335" y="399" on="0"/>
        <pt x="335" y="406" on="1"/>
        <pt x="335" y="424" on="0"/>
        <pt x="331" y="465" on="0"/>
        <pt x="323" y="504" on="0"/>
        <pt x="310" y="536" on="0"/>
        <pt x="302" y="545" on="1"/>
        <pt x="240" y="495" on="0"/>
        <pt x="169" y="486" on="1"/>
        <pt x="146" y="554" on="1"/>
        <pt x="169" y="555" on="0"/>
        <pt x="229" y="578" on="0"/>
        <pt x="261" y="600" on="1"/>
        <pt x="241" y="624" on="0"/>
        <pt x="191" y="646" on="0"/>
        <pt x="164" y="651" on="1"/>
        <pt x="210" y="701" on="1"/>
        <pt x="280" y="699" on="0"/>
        <pt x="331" y="648" on="1"/>
        <pt x="348" y="665" on="0"/>
        <pt x="380" y="695" on="0"/>
        <pt x="393" y="711" on="1"/>
        <pt x="451" y="696" on="1"/>
        <pt x="432" y="672" on="0"/>
        <pt x="394" y="628" on="0"/>
        <pt x="374" y="605" on="1"/>
        <pt x="403" y="560" on="0"/>
        <pt x="436" y="419" on="0"/>
        <pt x="436" y="344" on="1"/>
        <pt x="436" y="238" on="0"/>
        <pt x="385" y="100" on="0"/>
        <pt x="308" y="19" on="0"/>
        <pt x="215" y="-13" on="0"/>
      </contour>
      <contour>
        <pt x="233" y="333" on="1"/>
        <pt x="204" y="333" on="0"/>
        <pt x="160" y="307" on="0"/>
        <pt x="129" y="265" on="0"/>
        <pt x="113" y="212" on="0"/>
        <pt x="113" y="185" on="1"/>
        <pt x="113" y="164" on="0"/>
        <pt x="122" y="127" on="0"/>
        <pt x="142" y="99" on="0"/>
        <pt x="171" y="83" on="0"/>
        <pt x="192" y="83" on="1"/>
        <pt x="212" y="83" on="0"/>
        <pt x="255" y="102" on="0"/>
        <pt x="290" y="141" on="0"/>
        <pt x="313" y="199" on="0"/>
        <pt x="313" y="238" on="1"/>
        <pt x="313" y="283" on="0"/>
        <pt x="274" y="333" on="0"/>
      </contour>
    </TTGlyph>
    <TTGlyph name="exclam" xMin="14" yMin="0" xMax="260" yMax="750">
      <contour>
        <pt x="146" y="200" on="1"/>
        <pt x="68" y="200" on="1"/>
        <pt x="148" y="750" on="1"/>
        <pt x="260" y="750" on="1"/>
      </contour>
      <contour>
        <pt x="14" y="0" on="1"/>
        <pt x="34" y="112" on="1"/>
        <pt x="149" y="112" on="1"/>
        <pt x="129" y="0" on="1"/>
      </contour>
    </TTGlyph>
    <TTGlyph name="exclamdown" xMin="-33" yMin="-250" xMax="213" yMax="500">
      <contour>
        <pt x="81" y="300" on="1"/>
        <pt x="158" y="300" on="1"/>
        <pt x="79" y="-250" on="1"/>
        <pt x="-33" y="-250" on="1"/>
      </contour>
      <contour>
        <pt x="213" y="500" on="1"/>
        <pt x="193" y="388" on="1"/>
        <pt x="78" y="388" on="1"/>
        <pt x="97" y="500" on="1"/>
      </contour>
    </TTGlyph>
    <TTGlyph name="f" xMin="36" yMin="0" xMax="377" yMax="750">
      <contour>
        <pt x="221" y="405" on="1"/>
        <pt x="150" y="0" on="1"/>
        <pt x="36" y="0" on="1"/>
        <pt x="107" y="405" on="1"/>
        <pt x="45" y="405" on="1"/>
        <pt x="70" y="497" on="1"/>
        <pt x="123" y="497" on="1"/>
        <pt x="144" y="617" on="1"/>
        <pt x="148" y="643" on="0"/>
        <pt x="170" y="691" on="0"/>
        <pt x="204" y="728" on="0"/>
        <pt x="249" y="750" on="0"/>
        <pt x="277" y="750" on="1"/>
        <pt x="299" y="750" on="0"/>
        <pt x="328" y="749" on="0"/>
        <pt x="349" y="746" on="0"/>
        <pt x="366" y="743" on="0"/>
        <pt x="377" y="742" on="1"/>
        <pt x="351" y="647" on="1"/>
        <pt x="337" y="652" on="0"/>
        <pt x="310" y="653" on="0"/>
        <pt x="305" y="653" on="1"/>
        <pt x="293" y="653" on="0"/>
        <pt x="276" y="645" on="0"/>
        <pt x="263" y="625" on="0"/>
        <pt x="254" y="590" on="0"/>
        <pt x="249" y="562" on="1"/>
        <pt x="238" y="497" on="1"/>
        <pt x="335" y="497" on="1"/>
        <pt x="318" y="405" on="1"/>
      </contour>
    </TTGlyph>
    <TTGlyph name="five" xMin="10" yMin="-13" xMax="488" yMax="700">
      <contour>
        <pt x="167" y="-13" on="1"/>
        <pt x="136" y="-13" on="0"/>
        <pt x="79" y="-2" on="0"/>
        <pt x="36" y="14" on="0"/>
        <pt x="10" y="31" on="0"/>
        <pt x="10" y="37" on="1"/>
        <pt x="56" y="145" on="1"/>
        <pt x="73" y="125" on="0"/>
        <pt x="140" y="96" on="0"/>
        <pt x="182" y="96" on="1"/>
        <pt x="208" y="96" on="0"/>
        <pt x="260" y="115" on="0"/>
        <pt x="302" y="155" on="0"/>
        <pt x="328" y="214" on="0"/>
        <pt x="328" y="255" on="1"/>
        <pt x="328" y="274" on="0"/>
        <pt x="316" y="305" on="0"/>
        <pt x="285" y="327" on="0"/>
        <pt x="233" y="339" on="0"/>
        <pt x="193" y="339" on="1"/>
        <pt x="95" y="339" on="1"/>
        <pt x="199" y="700" on="1"/>
        <pt x="488" y="700" on="1"/>
        <pt x="456" y="588" on="1"/>
        <pt x="267" y="588" on="1"/>
        <pt x="226" y="439" on="1"/>
        <pt x="338" y="437" on="0"/>
        <pt x="443" y="359" on="0"/>
        <pt x="443" y="277" on="1"/>
        <pt x="443" y="207" on="0"/>
        <pt x="393" y="99" on="0"/>
        <pt x="314" y="25" on="0"/>
        <pt x="216" y="-13" on="0"/>
      </contour>
    </TTGlyph>
    <TTGlyph name="florin" xMin="-105" yMin="-242" xMax="417" yMax="714">
      <contour>
        <pt x="393" y="620" on="1"/>
        <pt x="367" y="628" on="0"/>
        <pt x="350" y="628" on="1"/>
        <pt x="331" y="628" on="0"/>
        <pt x="302" y="614" on="0"/>
        <pt x="279" y="583" on="0"/>
        <pt x="259" y="533" on="0"/>
        <pt x="248" y="497" on="1"/>
        <pt x="361" y="497" on="1"/>
        <pt x="340" y="423" on="1"/>
        <pt x="223" y="423" on="1"/>
        <pt x="64" y="-84" on="1"/>
        <pt x="50" y="-130" on="0"/>
        <pt x="13" y="-191" on="0"/>
        <pt x="-25" y="-227" on="0"/>
        <pt x="-60" y="-242" on="0"/>
        <pt x="-73" y="-242" on="1"/>
        <pt x="-102" y="-242" on="1"/>
        <pt x="-105" y="-152" on="1"/>
        <pt x="-79" y="-150" on="0"/>
        <pt x="-44" y="-116" on="0"/>
        <pt x="-28" y="-65" on="1"/>
        <pt x="120" y="423" on="1"/>
        <pt x="51" y="423" on="1"/>
        <pt x="72" y="497" on="1"/>
        <pt x="144" y="497" on="1"/>
        <pt x="158" y="543" on="1"/>
        <pt x="170" y="583" on="0"/>
        <pt x="211" y="647" on="0"/>
        <pt x="263" y="691" on="0"/>
        <pt x="323" y="714" on="0"/>
        <pt x="355" y="714" on="1"/>
        <pt x="387" y="714" on="0"/>
        <pt x="417" y="702" on="1"/>
      </contour>
    </TTGlyph>
    <TTGlyph name="four" xMin="-3" yMin="0" xMax="480" yMax="700">
      <contour>
        <pt x="386" y="190" on="1"/>
        <pt x="352" y="0" on="1"/>
        <pt x="234" y="0" on="1"/>
        <pt x="268" y="190" on="1"/>
        <pt x="-3" y="190" on="1"/>
        <pt x="377" y="700" on="1"/>
        <pt x="476" y="700" on="1"/>
        <pt x="403" y="288" on="1"/>
        <pt x="480" y="288" on="1"/>
        <pt x="462" y="190" on="1"/>
      </contour>
      <contour>
        <pt x="325" y="512" on="1"/>
        <pt x="173" y="288" on="1"/>
        <pt x="285" y="288" on="1"/>
      </contour>
    </TTGlyph>
    <TTGlyph name="g" xMin="-44" yMin="-250" xMax="483" yMax="506">
      <contour>
        <pt x="145" y="-250" on="1"/>
        <pt x="94" y="-250" on="0"/>
        <pt x="23" y="-227" on="0"/>
        <pt x="-23" y="-190" on="0"/>
        <pt x="-44" y="-143" on="0"/>
        <pt x="-44" y="-119" on="1"/>
        <pt x="-44" y="-81" on="0"/>
        <pt x="8" y="-14" on="0"/>
        <pt x="51" y="9" on="1"/>
        <pt x="38" y="21" on="0"/>
        <pt x="22" y="52" on="0"/>
        <pt x="22" y="69" on="1"/>
        <pt x="22" y="92" on="0"/>
        <pt x="53" y="132" on="0"/>
        <pt x="80" y="148" on="1"/>
        <pt x="58" y="172" on="0"/>
        <pt x="36" y="241" on="0"/>
        <pt x="36" y="277" on="1"/>
        <pt x="36" y="321" on="0"/>
        <pt x="67" y="404" on="0"/>
        <pt x="124" y="468" on="0"/>
        <pt x="206" y="506" on="0"/>
        <pt x="257" y="506" on="1"/>
        <pt x="319" y="506" on="0"/>
        <pt x="353" y="474" on="1"/>
        <pt x="367" y="483" on="0"/>
        <pt x="421" y="498" on="0"/>
        <pt x="453" y="498" on="1"/>
        <pt x="483" y="498" on="1"/>
        <pt x="463" y="425" on="1"/>
        <pt x="421" y="425" on="1"/>
        <pt x="413" y="425" on="0"/>
        <pt x="398" y="422" on="1"/>
        <pt x="403" y="406" on="0"/>
        <pt x="408" y="365" on="0"/>
        <pt x="408" y="347" on="1"/>
        <pt x="408" y="302" on="0"/>
        <pt x="377" y="218" on="0"/>
        <pt x="320" y="153" on="0"/>
        <pt x="238" y="114" on="0"/>
        <pt x="187" y="114" on="1"/>
        <pt x="163" y="114" on="0"/>
        <pt x="142" y="120" on="1"/>
        <pt x="135" y="115" on="0"/>
        <pt x="129" y="101" on="0"/>
        <pt x="129" y="97" on="1"/>
        <pt x="129" y="80" on="0"/>
        <pt x="183" y="64" on="0"/>
        <pt x="232" y="55" on="1"/>
        <pt x="253" y="51" on="0"/>
        <pt x="308" y="38" on="0"/>
        <pt x="356" y="11" on="0"/>
        <pt x="389" y="-34" on="0"/>
        <pt x="389" y="-70" on="1"/>
        <pt x="389" y="-108" on="0"/>
        <pt x="355" y="-174" on="0"/>
        <pt x="292" y="-222" on="0"/>
        <pt x="202" y="-250" on="0"/>
      </contour>
      <contour>
        <pt x="242" y="420" on="1"/>
        <pt x="217" y="420" on="0"/>
        <pt x="178" y="398" on="0"/>
        <pt x="152" y="360" on="0"/>
        <pt x="138" y="308" on="0"/>
        <pt x="138" y="279" on="1"/>
        <pt x="138" y="242" on="0"/>
        <pt x="170" y="198" on="0"/>
        <pt x="203" y="198" on="1"/>
        <pt x="227" y="198" on="0"/>
        <pt x="265" y="221" on="0"/>
        <pt x="291" y="260" on="0"/>
        <pt x="305" y="311" on="0"/>
        <pt x="305" y="340" on="1"/>
        <pt x="305" y="377" on="0"/>
        <pt x="274" y="420" on="0"/>
      </contour>
      <contour>
        <pt x="178" y="-31" on="1"/>
        <pt x="165" y="-29" on="0"/>
        <pt x="143" y="-21" on="0"/>
        <pt x="128" y="-19" on="1"/>
        <pt x="99" y="-29" on="0"/>
        <pt x="52" y="-71" on="0"/>
        <pt x="52" y="-103" on="1"/>
        <pt x="52" y="-132" on="0"/>
        <pt x="104" y="-168" on="0"/>
        <pt x="153" y="-168" on="1"/>
        <pt x="180" y="-168" on="0"/>
        <pt x="229" y="-156" on="0"/>
        <pt x="265" y="-135" on="0"/>
        <pt x="287" y="-107" on="0"/>
        <pt x="287" y="-90" on="1"/>
        <pt x="287" y="-75" on="0"/>
        <pt x="267" y="-54" on="0"/>
        <pt x="235" y="-40" on="0"/>
        <pt x="197" y="-33" on="0"/>
      </contour>
    </TTGlyph>
    <TTGlyph name="germandbls" xMin="11" yMin="-136" xMax="497" yMax="750">
      <contour>
        <pt x="245" y="-10" on="1"/>
        <pt x="234" y="-10" on="0"/>
        <pt x="206" y="-8" on="0"/>
        <pt x="191" y="-6" on="1"/>
        <pt x="207" y="85" on="1"/>
        <pt x="247" y="85" on="0"/>
        <pt x="304" y="88" on="0"/>
        <pt x="341" y="104" on="0"/>
        <pt x="358" y="139" on="0"/>
        <pt x="358" y="171" on="1"/>
        <pt x="358" y="204" on="0"/>
        <pt x="330" y="254" on="0"/>
        <pt x="297" y="296" on="0"/>
        <pt x="269" y="334" on="0"/>
        <pt x="269" y="355" on="1"/>
        <pt x="269" y="371" on="0"/>
        <pt x="286" y="401" on="0"/>
        <pt x="312" y="432" on="0"/>
        <pt x="343" y="467" on="0"/>
        <pt x="369" y="507" on="0"/>
        <pt x="386" y="556" on="0"/>
        <pt x="386" y="586" on="1"/>
        <pt x="386" y="624" on="0"/>
        <pt x="352" y="653" on="0"/>
        <pt x="329" y="653" on="1"/>
        <pt x="295" y="653" on="0"/>
        <pt x="257" y="609" on="0"/>
        <pt x="248" y="556" on="1"/>
        <pt x="125" y="-136" on="1"/>
        <pt x="11" y="-136" on="1"/>
        <pt x="106" y="405" on="1"/>
        <pt x="44" y="405" on="1"/>
        <pt x="69" y="497" on="1"/>
        <pt x="123" y="497" on="1"/>
        <pt x="134" y="562" on="1"/>
        <pt x="150" y="650" on="0"/>
        <pt x="261" y="750" on="0"/>
        <pt x="346" y="750" on="1"/>
        <pt x="370" y="750" on="0"/>
        <pt x="423" y="733" on="0"/>
        <pt x="468" y="697" on="0"/>
        <pt x="497" y="640" on="0"/>
        <pt x="497" y="600" on="1"/>
        <pt x="497" y="550" on="0"/>
        <pt x="464" y="474" on="0"/>
        <pt x="424" y="418" on="0"/>
        <pt x="391" y="380" on="0"/>
        <pt x="391" y="368" on="1"/>
        <pt x="391" y="356" on="0"/>
        <pt x="418" y="325" on="0"/>
        <pt x="449" y="282" on="0"/>
        <pt x="476" y="223" on="0"/>
        <pt x="476" y="182" on="1"/>
        <pt x="476" y="129" on="0"/>
        <pt x="438" y="56" on="0"/>
        <pt x="373" y="10" on="0"/>
        <pt x="290" y="-10" on="0"/>
      </contour>
    </TTGlyph>
    <TTGlyph name="grave" xMin="170" yMin="588" xMax="339" yMax="744">
      <contour>
        <pt x="170" y="650" on="1"/>
        <pt x="186" y="744" on="1"/>
        <pt x="339" y="652" on="1"/>
        <pt x="328" y="588" on="1"/>
      </contour>
    </TTGlyph>
    <TTGlyph name="greater" xMin="20" yMin="78" xMax="383" yMax="490">
      <contour>
        <pt x="156" y="78" on="1"/>
        <pt x="20" y="78" on="1"/>
        <pt x="247" y="284" on="1"/>
        <pt x="93" y="490" on="1"/>
        <pt x="229" y="490" on="1"/>
        <pt x="383" y="284" on="1"/>
      </contour>
    </TTGlyph>
    <TTGlyph name="guillemotleft" xMin="15" yMin="78" xMax="558" yMax="490">
      <contour>
        <pt x="349" y="78" on="1"/>
        <pt x="249" y="284" on="1"/>
        <pt x="422" y="490" on="1"/>
        <pt x="558" y="490" on="1"/>
        <pt x="385" y="284" on="1"/>
        <pt x="486" y="78" on="1"/>
      </contour>
      <contour>
        <pt x="115" y="78" on="1"/>
        <pt x="15" y="284" on="1"/>
        <pt x="188" y="490" on="1"/>
        <pt x="324" y="490" on="1"/>
        <pt x="151" y="284" on="1"/>
        <pt x="251" y="78" on="1"/>
      </contour>
    </TTGlyph>
    <TTGlyph name="guillemotright" xMin="1" yMin="78" xMax="545" yMax="490">
      <contour>
        <pt x="371" y="78" on="1"/>
        <pt x="235" y="78" on="1"/>
        <pt x="408" y="284" on="1"/>
        <pt x="308" y="490" on="1"/>
        <pt x="443" y="490" on="1"/>
        <pt x="545" y="284" on="1"/>
      </contour>
      <contour>
        <pt x="137" y="78" on="1"/>
        <pt x="1" y="78" on="1"/>
        <pt x="175" y="284" on="1"/>
        <pt x="74" y="490" on="1"/>
        <pt x="210" y="490" on="1"/>
        <pt x="310" y="284" on="1"/>
      </contour>
    </TTGlyph>
    <TTGlyph name="guilsinglleft" xMin="14" yMin="78" xMax="321" yMax="490">
      <contour>
        <pt x="114" y="78" on="1"/>
        <pt x="14" y="284" on="1"/>
        <pt x="186" y="490" on="1"/>
        <pt x="321" y="490" on="1"/>
        <pt x="149" y="284" on="1"/>
        <pt x="249" y="78" on="1"/>
      </contour>
    </TTGlyph>
    <TTGlyph name="guilsinglright" xMin="1" yMin="78" xMax="308" yMax="490">
      <contour>
        <pt x="136" y="78" on="1"/>
        <pt x="1" y="78" on="1"/>
        <pt x="173" y="284" on="1"/>
        <pt x="74" y="490" on="1"/>
        <pt x="209" y="490" on="1"/>
        <pt x="308" y="284" on="1"/>
      </contour>
    </TTGlyph>
    <TTGlyph name="h" xMin="8" yMin="0" xMax="460" yMax="750">
      <contour>
        <pt x="292" y="0" on="1"/>
        <pt x="338" y="267" on="1"/>
        <pt x="344" y="303" on="0"/>
        <pt x="344" y="330" on="1"/>
        <pt x="344" y="372" on="0"/>
        <pt x="311" y="410" on="0"/>
        <pt x="276" y="410" on="1"/>
        <pt x="249" y="410" on="0"/>
        <pt x="205" y="385" on="0"/>
        <pt x="185" y="361" on="1"/>
        <pt x="121" y="0" on="1"/>
        <pt x="8" y="0" on="1"/>
        <pt x="140" y="750" on="1"/>
        <pt x="254" y="750" on="1"/>
        <pt x="203" y="462" on="1"/>
        <pt x="226" y="482" on="0"/>
        <pt x="279" y="506" on="0"/>
        <pt x="302" y="506" on="1"/>
        <pt x="345" y="506" on="0"/>
        <pt x="405" y="483" on="0"/>
        <pt x="443" y="441" on="0"/>
        <pt x="460" y="381" on="0"/>
        <pt x="460" y="344" on="1"/>
        <pt x="460" y="326" on="0"/>
        <pt x="457" y="287" on="0"/>
        <pt x="453" y="267" on="1"/>
        <pt x="406" y="0" on="1"/>
      </contour>
    </TTGlyph>
    <TTGlyph name="hyphen" xMin="45" yMin="232" xMax="341" yMax="324">
      <contour>
        <pt x="45" y="232" on="1"/>
        <pt x="62" y="324" on="1"/>
        <pt x="341" y="324" on="1"/>
        <pt x="324" y="232" on="1"/>
      </contour>
    </TTGlyph>
    <TTGlyph name="i" xMin="9" yMin="0" xMax="247" yMax="700">
      <contour>
        <pt x="113" y="583" on="1"/>
        <pt x="132" y="700" on="1"/>
        <pt x="247" y="700" on="1"/>
        <pt x="226" y="583" on="1"/>
      </contour>
      <contour>
        <pt x="9" y="0" on="1"/>
        <pt x="97" y="497" on="1"/>
        <pt x="211" y="497" on="1"/>
        <pt x="124" y="0" on="1"/>
      </contour>
    </TTGlyph>
    <TTGlyph name="iacute" xMin="9" yMin="0" xMax="281" yMax="744">
      <component glyphName="dotlessi" x="0" y="0" flags="0x204"/>
      <component glyphName="acute" x="-72" y="0" flags="0x4"/>
    </TTGlyph>
    <TTGlyph name="icircumflex" xMin="9" yMin="0" xMax="315" yMax="748">
      <component glyphName="dotlessi" x="0" y="0" flags="0x204"/>
      <component glyphName="circumflex" x="-137" y="0" flags="0x4"/>
    </TTGlyph>
    <TTGlyph name="idieresis" xMin="9" yMin="0" xMax="302" yMax="700">
      <component glyphName="dotlessi" x="0" y="0" flags="0x204"/>
      <component glyphName="dieresis" x="-127" y="0" flags="0x4"/>
    </TTGlyph>
    <TTGlyph name="igrave" xMin="9" yMin="0" xMax="266" yMax="744">
      <component glyphName="dotlessi" x="0" y="0" flags="0x204"/>
      <component glyphName="grave" x="-73" y="0" flags="0x4"/>
    </TTGlyph>
    <TTGlyph name="j" xMin="-82" yMin="-242" xMax="242" yMax="700">
      <contour>
        <pt x="-82" y="-242" on="1"/>
        <pt x="-76" y="-150" on="1"/>
        <pt x="-58" y="-149" on="0"/>
        <pt x="-36" y="-144" on="0"/>
        <pt x="-22" y="-127" on="0"/>
        <pt x="-13" y="-94" on="0"/>
        <pt x="-8" y="-64" on="1"/>
        <pt x="91" y="497" on="1"/>
        <pt x="206" y="497" on="1"/>
        <pt x="99" y="-110" on="1"/>
        <pt x="88" y="-170" on="0"/>
        <pt x="23" y="-238" on="0"/>
        <pt x="-40" y="-240" on="1"/>
      </contour>
      <contour>
        <pt x="107" y="583" on="1"/>
        <pt x="127" y="700" on="1"/>
        <pt x="242" y="700" on="1"/>
        <pt x="221" y="583" on="1"/>
      </contour>
    </TTGlyph>
    <TTGlyph name="k" xMin="8" yMin="0" xMax="480" yMax="750">
      <contour>
        <pt x="8" y="0" on="1"/>
        <pt x="140" y="750" on="1"/>
        <pt x="255" y="750" on="1"/>
        <pt x="173" y="287" on="1"/>
        <pt x="352" y="497" on="1"/>
        <pt x="480" y="497" on="1"/>
        <pt x="275" y="261" on="1"/>
        <pt x="391" y="0" on="1"/>
        <pt x="264" y="0" on="1"/>
        <pt x="163" y="230" on="1"/>
        <pt x="123" y="0" on="1"/>
      </contour>
    </TTGlyph>
    <TTGlyph name="l" xMin="25" yMin="-10" xMax="254" yMax="750">
      <contour>
        <pt x="163" y="-10" on="1"/>
        <pt x="121" y="-10" on="1"/>
        <pt x="70" y="-10" on="0"/>
        <pt x="25" y="45" on="0"/>
        <pt x="25" y="86" on="1"/>
        <pt x="25" y="100" on="0"/>
        <pt x="28" y="117" on="1"/>
        <pt x="140" y="750" on="1"/>
        <pt x="254" y="750" on="1"/>
        <pt x="151" y="168" on="1"/>
        <pt x="145" y="133" on="0"/>
        <pt x="145" y="116" on="1"/>
        <pt x="145" y="93" on="0"/>
        <pt x="166" y="83" on="0"/>
        <pt x="189" y="83" on="1"/>
      </contour>
    </TTGlyph>
    <TTGlyph name="less" xMin="28" yMin="78" xMax="391" yMax="490">
      <contour>
        <pt x="182" y="78" on="1"/>
        <pt x="28" y="284" on="1"/>
        <pt x="255" y="490" on="1"/>
        <pt x="391" y="490" on="1"/>
        <pt x="164" y="284" on="1"/>
        <pt x="318" y="78" on="1"/>
      </contour>
    </TTGlyph>
    <TTGlyph name="logicalnot" xMin="64" yMin="151" xMax="493" yMax="406">
      <contour>
        <pt x="360" y="151" on="1"/>
        <pt x="390" y="323" on="1"/>
        <pt x="64" y="323" on="1"/>
        <pt x="79" y="406" on="1"/>
        <pt x="493" y="406" on="1"/>
        <pt x="448" y="151" on="1"/>
      </contour>
    </TTGlyph>
    <TTGlyph name="m" xMin="9" yMin="0" xMax="744" yMax="506">
      <contour>
        <pt x="574" y="0" on="1"/>
        <pt x="622" y="275" on="1"/>
        <pt x="628" y="311" on="0"/>
        <pt x="628" y="337" on="1"/>
        <pt x="628" y="374" on="0"/>
        <pt x="599" y="410" on="0"/>
        <pt x="564" y="410" on="1"/>
        <pt x="537" y="410" on="0"/>
        <pt x="500" y="391" on="0"/>
        <pt x="475" y="359" on="0"/>
        <pt x="461" y="320" on="0"/>
        <pt x="458" y="301" on="1"/>
        <pt x="406" y="0" on="1"/>
        <pt x="292" y="0" on="1"/>
        <pt x="339" y="269" on="1"/>
        <pt x="343" y="290" on="0"/>
        <pt x="346" y="323" on="0"/>
        <pt x="346" y="337" on="1"/>
        <pt x="346" y="379" on="0"/>
        <pt x="311" y="410" on="0"/>
        <pt x="275" y="410" on="1"/>
        <pt x="224" y="410" on="0"/>
        <pt x="187" y="362" on="1"/>
        <pt x="123" y="0" on="1"/>
        <pt x="9" y="0" on="1"/>
        <pt x="96" y="497" on="1"/>
        <pt x="190" y="497" on="1"/>
        <pt x="190" y="454" on="1"/>
        <pt x="212" y="478" on="0"/>
        <pt x="277" y="506" on="0"/>
        <pt x="312" y="506" on="1"/>
        <pt x="351" y="506" on="0"/>
        <pt x="420" y="469" on="0"/>
        <pt x="434" y="423" on="1"/>
        <pt x="442" y="438" on="0"/>
        <pt x="472" y="468" on="0"/>
        <pt x="514" y="492" on="0"/>
        <pt x="567" y="506" on="0"/>
        <pt x="597" y="506" on="1"/>
        <pt x="672" y="506" on="0"/>
        <pt x="744" y="422" on="0"/>
        <pt x="744" y="347" on="1"/>
        <pt x="744" y="330" on="0"/>
        <pt x="740" y="295" on="0"/>
        <pt x="737" y="275" on="1"/>
        <pt x="689" y="0" on="1"/>
      </contour>
    </TTGlyph>
    <TTGlyph name="mu" xMin="-20" yMin="-242" xMax="509" yMax="497">
      <contour>
        <pt x="464" y="-10" on="1"/>
        <pt x="422" y="-10" on="1"/>
        <pt x="352" y="-10" on="0"/>
        <pt x="335" y="49" on="1"/>
        <pt x="312" y="24" on="0"/>
        <pt x="244" y="-9" on="0"/>
        <pt x="214" y="-9" on="1"/>
        <pt x="191" y="-9" on="0"/>
        <pt x="153" y="0" on="0"/>
        <pt x="139" y="13" on="1"/>
        <pt x="95" y="-242" on="1"/>
        <pt x="-20" y="-242" on="1"/>
        <pt x="110" y="497" on="1"/>
        <pt x="225" y="497" on="1"/>
        <pt x="178" y="231" on="1"/>
        <pt x="172" y="196" on="0"/>
        <pt x="172" y="171" on="1"/>
        <pt x="172" y="86" on="0"/>
        <pt x="240" y="86" on="1"/>
        <pt x="293" y="86" on="0"/>
        <pt x="331" y="133" on="1"/>
        <pt x="395" y="497" on="1"/>
        <pt x="509" y="497" on="1"/>
        <pt x="452" y="171" on="1"/>
        <pt x="449" y="153" on="0"/>
        <pt x="446" y="126" on="0"/>
        <pt x="445" y="116" on="1"/>
        <pt x="445" y="96" on="0"/>
        <pt x="459" y="83" on="0"/>
        <pt x="476" y="83" on="1"/>
        <pt x="490" y="83" on="1"/>
      </contour>
    </TTGlyph>
    <TTGlyph name="multiply" xMin="36" yMin="112" xMax="380" yMax="442">
      <contour>
        <pt x="274" y="112" on="1"/>
        <pt x="199" y="224" on="1"/>
        <pt x="84" y="112" on="1"/>
        <pt x="36" y="165" on="1"/>
        <pt x="151" y="277" on="1"/>
        <pt x="76" y="389" on="1"/>
        <pt x="142" y="442" on="1"/>
        <pt x="218" y="330" on="1"/>
        <pt x="333" y="442" on="1"/>
        <pt x="380" y="389" on="1"/>
        <pt x="265" y="277" on="1"/>
        <pt x="341" y="165" on="1"/>
      </contour>
    </TTGlyph>
    <TTGlyph name="n" xMin="9" yMin="0" xMax="460" yMax="506">
      <contour>
        <pt x="292" y="0" on="1"/>
        <pt x="339" y="269" on="1"/>
        <pt x="345" y="303" on="0"/>
        <pt x="345" y="330" on="1"/>
        <pt x="345" y="410" on="0"/>
        <pt x="277" y="410" on="1"/>
        <pt x="249" y="410" on="0"/>
        <pt x="207" y="385" on="0"/>
        <pt x="187" y="361" on="1"/>
        <pt x="123" y="0" on="1"/>
        <pt x="9" y="0" on="1"/>
        <pt x="96" y="497" on="1"/>
        <pt x="194" y="497" on="1"/>
        <pt x="199" y="460" on="1"/>
        <pt x="222" y="483" on="0"/>
        <pt x="276" y="506" on="0"/>
        <pt x="302" y="506" on="1"/>
        <pt x="345" y="506" on="0"/>
        <pt x="405" y="484" on="0"/>
        <pt x="443" y="442" on="0"/>
        <pt x="460" y="383" on="0"/>
        <pt x="460" y="346" on="1"/>
        <pt x="460" y="328" on="0"/>
        <pt x="457" y="290" on="0"/>
        <pt x="453" y="269" on="1"/>
        <pt x="406" y="0" on="1"/>
      </contour>
    </TTGlyph>
    <TTGlyph name="nine" xMin="74" yMin="0" xMax="499" yMax="714">
      <contour>
        <pt x="340" y="714" on="1"/>
        <pt x="374" y="714" on="0"/>
        <pt x="433" y="693" on="0"/>
        <pt x="475" y="647" on="0"/>
        <pt x="499" y="575" on="0"/>
        <pt x="499" y="523" on="1"/>
        <pt x="499" y="449" on="0"/>
        <pt x="464" y="314" on="0"/>
        <pt x="406" y="198" on="0"/>
        <pt x="331" y="103" on="0"/>
        <pt x="251" y="36" on="0"/>
        <pt x="172" y="0" on="0"/>
        <pt x="139" y="0" on="1"/>
        <pt x="74" y="46" on="1"/>
        <pt x="95" y="51" on="0"/>
        <pt x="177" y="96" on="0"/>
        <pt x="263" y="168" on="0"/>
        <pt x="337" y="265" on="0"/>
        <pt x="349" y="323" on="1"/>
        <pt x="338" y="311" on="0"/>
        <pt x="301" y="294" on="0"/>
        <pt x="265" y="284" on="0"/>
        <pt x="237" y="279" on="0"/>
        <pt x="233" y="279" on="1"/>
        <pt x="161" y="279" on="0"/>
        <pt x="74" y="359" on="0"/>
        <pt x="74" y="438" on="1"/>
        <pt x="74" y="493" on="0"/>
        <pt x="114" y="593" on="0"/>
        <pt x="185" y="669" on="0"/>
        <pt x="282" y="714" on="0"/>
      </contour>
      <contour>
        <pt x="261" y="376" on="1"/>
        <pt x="286" y="376" on="0"/>
        <pt x="333" y="396" on="0"/>
        <pt x="369" y="433" on="0"/>
        <pt x="391" y="487" on="0"/>
        <pt x="391" y="521" on="1"/>
        <pt x="391" y="545" on="0"/>
        <pt x="377" y="579" on="0"/>
        <pt x="355" y="600" on="0"/>
        <pt x="328" y="610" on="0"/>
        <pt x="315" y="610" on="1"/>
        <pt x="287" y="610" on="0"/>
        <pt x="242" y="583" on="0"/>
        <pt x="209" y="540" on="0"/>
        <pt x="191" y="487" on="0"/>
        <pt x="191" y="462" on="1"/>
        <pt x="191" y="446" on="0"/>
        <pt x="199" y="415" on="0"/>
        <pt x="215" y="391" on="0"/>
        <pt x="242" y="376" on="0"/>
      </contour>
    </TTGlyph>
    <TTGlyph name="ntilde" xMin="9" yMin="0" xMax="500" yMax="715">
      <component glyphName="n" x="0" y="0" flags="0x204"/>
      <component glyphName="tilde" x="-37" y="0" flags="0x4"/>
    </TTGlyph>
    <TTGlyph name="numbersign" xMin="10" yMin="-11" xMax="652" yMax="700">
      <contour>
        <pt x="605" y="417" on="1"/>
        <pt x="502" y="417" on="1"/>
        <pt x="447" y="306" on="1"/>
        <pt x="560" y="306" on="1"/>
        <pt x="502" y="213" on="1"/>
        <pt x="397" y="213" on="1"/>
        <pt x="282" y="-11" on="1"/>
        <pt x="196" y="-11" on="1"/>
        <pt x="309" y="213" on="1"/>
        <pt x="213" y="213" on="1"/>
        <pt x="96" y="-11" on="1"/>
        <pt x="10" y="-11" on="1"/>
        <pt x="125" y="213" on="1"/>
        <pt x="19" y="213" on="1"/>
        <pt x="74" y="306" on="1"/>
        <pt x="175" y="306" on="1"/>
        <pt x="230" y="417" on="1"/>
        <pt x="121" y="417" on="1"/>
        <pt x="167" y="510" on="1"/>
        <pt x="280" y="510" on="1"/>
        <pt x="380" y="700" on="1"/>
        <pt x="466" y="700" on="1"/>
        <pt x="368" y="510" on="1"/>
        <pt x="467" y="510" on="1"/>
        <pt x="564" y="700" on="1"/>
        <pt x="650" y="700" on="1"/>
        <pt x="553" y="510" on="1"/>
        <pt x="652" y="510" on="1"/>
      </contour>
      <contour>
        <pt x="318" y="417" on="1"/>
        <pt x="261" y="306" on="1"/>
        <pt x="360" y="306" on="1"/>
        <pt x="417" y="417" on="1"/>
      </contour>
    </TTGlyph>
    <TTGlyph name="o" xMin="19" yMin="-10" xMax="486" yMax="506">
      <contour>
        <pt x="207" y="-10" on="1"/>
        <pt x="160" y="-10" on="0"/>
        <pt x="90" y="23" on="0"/>
        <pt x="43" y="80" on="0"/>
        <pt x="19" y="156" on="0"/>
        <pt x="19" y="200" on="1"/>
        <pt x="19" y="260" on="0"/>
        <pt x="59" y="371" on="0"/>
        <pt x="133" y="455" on="0"/>
        <pt x="236" y="506" on="0"/>
        <pt x="298" y="506" on="1"/>
        <pt x="344" y="506" on="0"/>
        <pt x="415" y="473" on="0"/>
        <pt x="462" y="416" on="0"/>
        <pt x="486" y="339" on="0"/>
        <pt x="486" y="295" on="1"/>
        <pt x="486" y="235" on="0"/>
        <pt x="445" y="125" on="0"/>
        <pt x="372" y="40" on="0"/>
        <pt x="269" y="-10" on="0"/>
      </contour>
      <contour>
        <pt x="281" y="410" on="1"/>
        <pt x="248" y="410" on="0"/>
        <pt x="194" y="378" on="0"/>
        <pt x="157" y="323" on="0"/>
        <pt x="136" y="249" on="0"/>
        <pt x="136" y="206" on="1"/>
        <pt x="136" y="151" on="0"/>
        <pt x="180" y="85" on="0"/>
        <pt x="224" y="85" on="1"/>
        <pt x="257" y="85" on="0"/>
        <pt x="310" y="117" on="0"/>
        <pt x="348" y="172" on="0"/>
        <pt x="369" y="247" on="0"/>
        <pt x="369" y="290" on="1"/>
        <pt x="369" y="345" on="0"/>
        <pt x="324" y="410" on="0"/>
      </contour>
    </TTGlyph>
    <TTGlyph name="oacute" xMin="19" yMin="-10" xMax="486" yMax="744">
      <component glyphName="o" x="0" y="0" flags="0x204"/>
      <component glyphName="acute" x="70" y="0" flags="0x4"/>
    </TTGlyph>
    <TTGlyph name="ocircumflex" xMin="19" yMin="-10" xMax="486" yMax="748">
      <component glyphName="o" x="0" y="0" flags="0x204"/>
      <component glyphName="circumflex" x="5" y="0" flags="0x4"/>
    </TTGlyph>
    <TTGlyph name="odieresis" xMin="19" yMin="-10" xMax="486" yMax="700">
      <component glyphName="o" x="0" y="0" flags="0x204"/>
      <component glyphName="dieresis" x="15" y="0" flags="0x4"/>
    </TTGlyph>
    <TTGlyph name="oe" xMin="19" yMin="-10" xMax="792" yMax="506">
      <contour>
        <pt x="480" y="230" on="1"/>
        <pt x="480" y="225" on="0"/>
        <pt x="479" y="218" on="0"/>
        <pt x="479" y="213" on="1"/>
        <pt x="479" y="175" on="0"/>
        <pt x="497" y="125" on="0"/>
        <pt x="527" y="95" on="0"/>
        <pt x="566" y="83" on="0"/>
        <pt x="587" y="83" on="1"/>
        <pt x="619" y="83" on="0"/>
        <pt x="702" y="106" on="0"/>
        <pt x="733" y="122" on="1"/>
        <pt x="721" y="26" on="1"/>
        <pt x="693" y="12" on="0"/>
        <pt x="612" y="-10" on="0"/>
        <pt x="564" y="-10" on="1"/>
        <pt x="501" y="-10" on="0"/>
        <pt x="416" y="37" on="0"/>
        <pt x="393" y="79" on="1"/>
        <pt x="355" y="37" on="0"/>
        <pt x="263" y="-10" on="0"/>
        <pt x="207" y="-10" on="1"/>
        <pt x="160" y="-10" on="0"/>
        <pt x="90" y="23" on="0"/>
        <pt x="43" y="80" on="0"/>
        <pt x="19" y="157" on="0"/>
        <pt x="19" y="201" on="1"/>
        <pt x="19" y="261" on="0"/>
        <pt x="59" y="371" on="0"/>
        <pt x="132" y="456" on="0"/>
        <pt x="235" y="506" on="0"/>
        <pt x="297" y="506" on="1"/>
        <pt x="353" y="506" on="0"/>
        <pt x="428" y="461" on="0"/>
        <pt x="451" y="419" on="1"/>
        <pt x="486" y="461" on="0"/>
        <pt x="573" y="506" on="0"/>
        <pt x="627" y="506" on="1"/>
        <pt x="702" y="506" on="0"/>
        <pt x="792" y="412" on="0"/>
        <pt x="792" y="332" on="1"/>
        <pt x="792" y="295" on="0"/>
        <pt x="779" y="253" on="0"/>
        <pt x="769" y="230" on="1"/>
      </contour>
      <contour>
        <pt x="614" y="410" on="1"/>
        <pt x="571" y="410" on="0"/>
        <pt x="514" y="355" on="0"/>
        <pt x="497" y="307" on="1"/>
        <pt x="675" y="307" on="1"/>
        <pt x="678" y="323" on="0"/>
        <pt x="678" y="338" on="1"/>
        <pt x="678" y="368" on="0"/>
        <pt x="650" y="410" on="0"/>
      </contour>
      <contour>
        <pt x="281" y="410" on="1"/>
        <pt x="248" y="410" on="0"/>
        <pt x="195" y="378" on="0"/>
        <pt x="157" y="323" on="0"/>
        <pt x="136" y="249" on="0"/>
        <pt x="136" y="206" on="1"/>
        <pt x="136" y="151" on="0"/>
        <pt x="180" y="85" on="0"/>
        <pt x="224" y="85" on="1"/>
        <pt x="256" y="85" on="0"/>
        <pt x="309" y="118" on="0"/>
        <pt x="347" y="173" on="0"/>
        <pt x="368" y="247" on="0"/>
        <pt x="368" y="289" on="1"/>
        <pt x="368" y="343" on="0"/>
        <pt x="325" y="410" on="0"/>
      </contour>
    </TTGlyph>
    <TTGlyph name="ograve" xMin="19" yMin="-10" xMax="486" yMax="744">
      <component glyphName="o" x="0" y="0" flags="0x204"/>
      <component glyphName="grave" x="69" y="0" flags="0x4"/>
    </TTGlyph>
    <TTGlyph name="one" xMin="90" yMin="0" xMax="331" yMax="700">
      <contour>
        <pt x="90" y="0" on="1"/>
        <pt x="185" y="533" on="1"/>
        <pt x="165" y="515" on="0"/>
        <pt x="122" y="494" on="0"/>
        <pt x="99" y="489" on="1"/>
        <pt x="107" y="591" on="1"/>
        <pt x="122" y="595" on="0"/>
        <pt x="161" y="617" on="0"/>
        <pt x="199" y="647" on="0"/>
        <pt x="232" y="682" on="0"/>
        <pt x="242" y="700" on="1"/>
        <pt x="331" y="700" on="1"/>
        <pt x="208" y="0" on="1"/>
      </contour>
    </TTGlyph>
    <TTGlyph name="onehalf" xMin="-7" yMin="-85" xMax="627" yMax="700">
      <component glyphName="onesuperior" x="12" y="0" flags="0x4"/>
      <component glyphName="slash" x="39" y="0" flags="0x4"/>
      <component glyphName="twosuperior" x="327" y="-319" flags="0x4"/>
    </TTGlyph>
    <TTGlyph name="onequarter" xMin="-5" yMin="-85" xMax="621" yMax="700">
      <component glyphName="onesuperior" x="13" y="0" flags="0x4"/>
      <component glyphName="slash" x="41" y="0" flags="0x4"/>
      <component glyphName="uni2074" x="291" y="-319" flags="0x4"/>
    </TTGlyph>
    <TTGlyph name="onesuperior" xMin="72" yMin="320" xMax="226" yMax="698">
      <contour>
        <pt x="72" y="320" on="1"/>
        <pt x="116" y="573" on="1"/>
        <pt x="111" y="573" on="0"/>
        <pt x="98" y="570" on="0"/>
        <pt x="81" y="569" on="1"/>
        <pt x="93" y="639" on="1"/>
        <pt x="98" y="639" on="0"/>
        <pt x="117" y="650" on="0"/>
        <pt x="137" y="667" on="0"/>
        <pt x="153" y="688" on="0"/>
        <pt x="156" y="698" on="1"/>
        <pt x="226" y="698" on="1"/>
        <pt x="160" y="320" on="1"/>
      </contour>
    </TTGlyph>
    <TTGlyph name="ordfeminine" xMin="70" yMin="434" xMax="336" yMax="730">
      <contour>
        <pt x="319" y="434" on="1"/>
        <pt x="265" y="434" on="1"/>
        <pt x="252" y="434" on="0"/>
        <pt x="224" y="449" on="0"/>
        <pt x="218" y="457" on="1"/>
        <pt x="205" y="445" on="0"/>
        <pt x="152" y="434" on="0"/>
        <pt x="130" y="434" on="1"/>
        <pt x="107" y="434" on="0"/>
        <pt x="70" y="469" on="0"/>
        <pt x="70" y="506" on="1"/>
        <pt x="70" y="542" on="0"/>
        <pt x="113" y="588" on="0"/>
        <pt x="168" y="615" on="0"/>
        <pt x="221" y="625" on="0"/>
        <pt x="232" y="626" on="1"/>
        <pt x="230" y="633" on="0"/>
        <pt x="224" y="652" on="0"/>
        <pt x="202" y="652" on="1"/>
        <pt x="179" y="652" on="0"/>
        <pt x="141" y="641" on="0"/>
        <pt x="118" y="635" on="1"/>
        <pt x="127" y="710" on="1"/>
        <pt x="165" y="722" on="0"/>
        <pt x="219" y="730" on="0"/>
        <pt x="242" y="730" on="1"/>
        <pt x="259" y="730" on="0"/>
        <pt x="291" y="721" on="0"/>
        <pt x="316" y="703" on="0"/>
        <pt x="331" y="676" on="0"/>
        <pt x="331" y="657" on="1"/>
        <pt x="331" y="625" on="0"/>
        <pt x="312" y="563" on="0"/>
        <pt x="312" y="530" on="1"/>
        <pt x="312" y="512" on="0"/>
        <pt x="322" y="512" on="1"/>
        <pt x="336" y="512" on="1"/>
      </contour>
      <contour>
        <pt x="222" y="565" on="1"/>
        <pt x="208" y="562" on="0"/>
        <pt x="197" y="556" on="1"/>
        <pt x="187" y="551" on="0"/>
        <pt x="172" y="533" on="0"/>
        <pt x="172" y="519" on="1"/>
        <pt x="172" y="501" on="0"/>
        <pt x="196" y="501" on="1"/>
        <pt x="201" y="501" on="0"/>
        <pt x="207" y="502" on="0"/>
        <pt x="211" y="503" on="1"/>
      </contour>
    </TTGlyph>
    <TTGlyph name="ordmasculine" xMin="79" yMin="434" xMax="373" yMax="730">
      <contour>
        <pt x="200" y="434" on="1"/>
        <pt x="170" y="434" on="0"/>
        <pt x="125" y="454" on="0"/>
        <pt x="94" y="489" on="0"/>
        <pt x="79" y="534" on="0"/>
        <pt x="79" y="559" on="1"/>
        <pt x="79" y="591" on="0"/>
        <pt x="104" y="653" on="0"/>
        <pt x="150" y="701" on="0"/>
        <pt x="214" y="730" on="0"/>
        <pt x="252" y="730" on="1"/>
        <pt x="282" y="730" on="0"/>
        <pt x="328" y="710" on="0"/>
        <pt x="358" y="676" on="0"/>
        <pt x="373" y="631" on="0"/>
        <pt x="373" y="606" on="1"/>
        <pt x="373" y="574" on="0"/>
        <pt x="348" y="512" on="0"/>
        <pt x="303" y="464" on="0"/>
        <pt x="239" y="434" on="0"/>
      </contour>
      <contour>
        <pt x="239" y="658" on="1"/>
        <pt x="226" y="658" on="0"/>
        <pt x="203" y="642" on="0"/>
        <pt x="186" y="615" on="0"/>
        <pt x="176" y="582" on="0"/>
        <pt x="176" y="564" on="1"/>
        <pt x="176" y="540" on="0"/>
        <pt x="195" y="506" on="0"/>
        <pt x="213" y="506" on="1"/>
        <pt x="226" y="506" on="0"/>
        <pt x="249" y="522" on="0"/>
        <pt x="266" y="549" on="0"/>
        <pt x="276" y="582" on="0"/>
        <pt x="276" y="600" on="1"/>
        <pt x="276" y="624" on="0"/>
        <pt x="258" y="658" on="0"/>
      </contour>
    </TTGlyph>
    <TTGlyph name="oslash" xMin="19" yMin="-36" xMax="485" yMax="534">
      <contour>
        <pt x="206" y="-9" on="1"/>
        <pt x="173" y="-9" on="0"/>
        <pt x="146" y="0" on="1"/>
        <pt x="126" y="-36" on="1"/>
        <pt x="28" y="-36" on="1"/>
        <pt x="73" y="37" on="1"/>
        <pt x="47" y="65" on="0"/>
        <pt x="19" y="153" on="0"/>
        <pt x="19" y="201" on="1"/>
        <pt x="19" y="261" on="0"/>
        <pt x="59" y="371" on="0"/>
        <pt x="133" y="456" on="0"/>
        <pt x="236" y="507" on="0"/>
        <pt x="298" y="507" on="1"/>
        <pt x="329" y="507" on="0"/>
        <pt x="355" y="498" on="1"/>
        <pt x="376" y="534" on="1"/>
        <pt x="476" y="534" on="1"/>
        <pt x="430" y="462" on="1"/>
        <pt x="457" y="433" on="0"/>
        <pt x="485" y="344" on="0"/>
        <pt x="485" y="296" on="1"/>
        <pt x="485" y="236" on="0"/>
        <pt x="444" y="126" on="0"/>
        <pt x="371" y="42" on="0"/>
        <pt x="268" y="-9" on="0"/>
      </contour>
      <contour>
        <pt x="205" y="86" on="1"/>
        <pt x="211" y="83" on="0"/>
        <pt x="223" y="83" on="1"/>
        <pt x="255" y="83" on="0"/>
        <pt x="309" y="117" on="0"/>
        <pt x="348" y="177" on="0"/>
        <pt x="369" y="259" on="0"/>
        <pt x="369" y="307" on="1"/>
        <pt x="369" y="321" on="0"/>
        <pt x="366" y="356" on="0"/>
        <pt x="364" y="364" on="1"/>
      </contour>
      <contour>
        <pt x="282" y="415" on="1"/>
        <pt x="249" y="415" on="0"/>
        <pt x="195" y="381" on="0"/>
        <pt x="156" y="321" on="0"/>
        <pt x="135" y="239" on="0"/>
        <pt x="135" y="191" on="1"/>
        <pt x="135" y="179" on="0"/>
        <pt x="137" y="147" on="0"/>
        <pt x="139" y="134" on="1"/>
        <pt x="296" y="412" on="1"/>
        <pt x="291" y="415" on="0"/>
      </contour>
    </TTGlyph>
    <TTGlyph name="otilde" xMin="19" yMin="-10" xMax="503" yMax="715">
      <component glyphName="o" x="0" y="0" flags="0x204"/>
      <component glyphName="tilde" x="-34" y="0" flags="0x4"/>
    </TTGlyph>
    <TTGlyph name="p" xMin="-34" yMin="-242" xMax="497" yMax="506">
      <contour>
        <pt x="224" y="-10" on="1"/>
        <pt x="188" y="-10" on="0"/>
        <pt x="147" y="13" on="0"/>
        <pt x="129" y="36" on="1"/>
        <pt x="80" y="-242" on="1"/>
        <pt x="-34" y="-242" on="1"/>
        <pt x="96" y="497" on="1"/>
        <pt x="196" y="497" on="1"/>
        <pt x="198" y="455" on="1"/>
        <pt x="224" y="479" on="0"/>
        <pt x="279" y="506" on="0"/>
        <pt x="315" y="506" on="1"/>
        <pt x="361" y="506" on="0"/>
        <pt x="430" y="473" on="0"/>
        <pt x="475" y="416" on="0"/>
        <pt x="497" y="340" on="0"/>
        <pt x="497" y="298" on="1"/>
        <pt x="497" y="238" on="0"/>
        <pt x="459" y="127" on="0"/>
        <pt x="389" y="42" on="0"/>
        <pt x="287" y="-10" on="0"/>
      </contour>
      <contour>
        <pt x="291" y="410" on="1"/>
        <pt x="262" y="410" on="0"/>
        <pt x="212" y="384" on="0"/>
        <pt x="175" y="331" on="0"/>
        <pt x="154" y="249" on="0"/>
        <pt x="154" y="192" on="1"/>
        <pt x="154" y="141" on="0"/>
        <pt x="192" y="85" on="0"/>
        <pt x="233" y="85" on="1"/>
        <pt x="266" y="85" on="0"/>
        <pt x="319" y="118" on="0"/>
        <pt x="358" y="173" on="0"/>
        <pt x="379" y="247" on="0"/>
        <pt x="379" y="288" on="1"/>
        <pt x="379" y="342" on="0"/>
        <pt x="335" y="410" on="0"/>
      </contour>
    </TTGlyph>
    <TTGlyph name="paragraph" xMin="61" yMin="0" xMax="597" yMax="700">
      <contour>
        <pt x="519" y="605" on="1"/>
        <pt x="412" y="0" on="1"/>
        <pt x="330" y="0" on="1"/>
        <pt x="437" y="605" on="1"/>
        <pt x="384" y="605" on="1"/>
        <pt x="277" y="0" on="1"/>
        <pt x="213" y="0" on="1"/>
        <pt x="254" y="233" on="1"/>
        <pt x="204" y="237" on="0"/>
        <pt x="132" y="273" on="0"/>
        <pt x="84" y="329" on="0"/>
        <pt x="61" y="398" on="0"/>
        <pt x="61" y="434" on="1"/>
        <pt x="61" y="482" on="0"/>
        <pt x="101" y="577" on="0"/>
        <pt x="178" y="653" on="0"/>
        <pt x="291" y="700" on="0"/>
        <pt x="363" y="700" on="1"/>
        <pt x="597" y="700" on="1"/>
        <pt x="580" y="605" on="1"/>
      </contour>
    </TTGlyph>
    <TTGlyph name="parenleft" xMin="29" yMin="-136" xMax="323" yMax="750">
      <contour>
        <pt x="63" y="-136" on="1"/>
        <pt x="47" y="-88" on="0"/>
        <pt x="29" y="44" on="0"/>
        <pt x="29" y="122" on="1"/>
        <pt x="29" y="198" on="0"/>
        <pt x="47" y="353" on="0"/>
        <pt x="91" y="511" on="0"/>
        <pt x="164" y="670" on="0"/>
        <pt x="219" y="750" on="1"/>
        <pt x="323" y="750" on="1"/>
        <pt x="284" y="692" on="0"/>
        <pt x="213" y="564" on="0"/>
        <pt x="159" y="417" on="0"/>
        <pt x="127" y="250" on="0"/>
        <pt x="127" y="153" on="1"/>
        <pt x="127" y="68" on="0"/>
        <pt x="150" y="-82" on="0"/>
        <pt x="167" y="-136" on="1"/>
      </contour>
    </TTGlyph>
    <TTGlyph name="parenright" xMin="-51" yMin="-136" xMax="243" yMax="750">
      <contour>
        <pt x="-51" y="-136" on="1"/>
        <pt x="-12" y="-78" on="0"/>
        <pt x="59" y="50" on="0"/>
        <pt x="113" y="197" on="0"/>
        <pt x="145" y="364" on="0"/>
        <pt x="145" y="461" on="1"/>
        <pt x="145" y="546" on="0"/>
        <pt x="122" y="696" on="0"/>
        <pt x="105" y="750" on="1"/>
        <pt x="209" y="750" on="1"/>
        <pt x="226" y="702" on="0"/>
        <pt x="243" y="570" on="0"/>
        <pt x="243" y="492" on="1"/>
        <pt x="243" y="416" on="0"/>
        <pt x="225" y="261" on="0"/>
        <pt x="181" y="103" on="0"/>
        <pt x="108" y="-56" on="0"/>
        <pt x="53" y="-136" on="1"/>
      </contour>
    </TTGlyph>
    <TTGlyph name="percent" xMin="71" yMin="-12" xMax="719" yMax="704">
      <contour>
        <pt x="180" y="-12" on="1"/>
        <pt x="84" y="-12" on="1"/>
        <pt x="589" y="700" on="1"/>
        <pt x="685" y="700" on="1"/>
      </contour>
      <contour>
        <pt x="179" y="334" on="1"/>
        <pt x="128" y="334" on="0"/>
        <pt x="71" y="409" on="0"/>
        <pt x="71" y="473" on="1"/>
        <pt x="71" y="525" on="0"/>
        <pt x="100" y="610" on="0"/>
        <pt x="150" y="671" on="0"/>
        <pt x="214" y="704" on="0"/>
        <pt x="249" y="704" on="1"/>
        <pt x="299" y="704" on="0"/>
        <pt x="357" y="631" on="0"/>
        <pt x="357" y="565" on="1"/>
        <pt x="357" y="515" on="0"/>
        <pt x="330" y="430" on="0"/>
        <pt x="282" y="368" on="0"/>
        <pt x="217" y="334" on="0"/>
      </contour>
      <contour>
        <pt x="237" y="639" on="1"/>
        <pt x="222" y="639" on="0"/>
        <pt x="190" y="618" on="0"/>
        <pt x="163" y="577" on="0"/>
        <pt x="146" y="518" on="0"/>
        <pt x="146" y="480" on="1"/>
        <pt x="146" y="441" on="0"/>
        <pt x="171" y="399" on="0"/>
        <pt x="192" y="399" on="1"/>
        <pt x="211" y="399" on="0"/>
        <pt x="244" y="424" on="0"/>
        <pt x="269" y="464" on="0"/>
        <pt x="282" y="522" on="0"/>
        <pt x="282" y="557" on="1"/>
        <pt x="282" y="598" on="0"/>
        <pt x="257" y="639" on="0"/>
      </contour>
      <contour>
        <pt x="542" y="-11" on="1"/>
        <pt x="490" y="-11" on="0"/>
        <pt x="433" y="64" on="0"/>
        <pt x="433" y="128" on="1"/>
        <pt x="433" y="180" on="0"/>
        <pt x="462" y="265" on="0"/>
        <pt x="512" y="326" on="0"/>
        <pt x="576" y="359" on="0"/>
        <pt x="611" y="359" on="1"/>
        <pt x="661" y="359" on="0"/>
        <pt x="719" y="286" on="0"/>
        <pt x="719" y="220" on="1"/>
        <pt x="719" y="170" on="0"/>
        <pt x="692" y="85" on="0"/>
        <pt x="645" y="23" on="0"/>
        <pt x="580" y="-11" on="0"/>
      </contour>
      <contour>
        <pt x="599" y="294" on="1"/>
        <pt x="584" y="294" on="0"/>
        <pt x="552" y="273" on="0"/>
        <pt x="525" y="232" on="0"/>
        <pt x="508" y="173" on="0"/>
        <pt x="508" y="135" on="1"/>
        <pt x="508" y="96" on="0"/>
        <pt x="534" y="54" on="0"/>
        <pt x="554" y="54" on="1"/>
        <pt x="573" y="54" on="0"/>
        <pt x="607" y="79" on="0"/>
        <pt x="632" y="119" on="0"/>
        <pt x="644" y="177" on="0"/>
        <pt x="644" y="212" on="1"/>
        <pt x="644" y="253" on="0"/>
        <pt x="619" y="294" on="0"/>
      </contour>
    </TTGlyph>
    <TTGlyph name="period" xMin="6" yMin="0" xMax="141" yMax="116">
      <contour>
        <pt x="6" y="0" on="1"/>
        <pt x="27" y="116" on="1"/>
        <pt x="141" y="116" on="1"/>
        <pt x="121" y="0" on="1"/>
      </contour>
    </TTGlyph>
    <TTGlyph name="periodcentered" xMin="42" yMin="213" xMax="177" yMax="343">
      <contour>
        <pt x="42" y="213" on="1"/>
        <pt x="65" y="343" on="1"/>
        <pt x="177" y="343" on="1"/>
        <pt x="154" y="213" on="1"/>
      </contour>
    </TTGlyph>
    <TTGlyph name="perthousand" xMin="72" yMin="-12" xMax="1044" yMax="704">
      <contour>
        <pt x="181" y="-12" on="1"/>
        <pt x="85" y="-12" on="1"/>
        <pt x="590" y="700" on="1"/>
        <pt x="686" y="700" on="1"/>
      </contour>
      <contour>
        <pt x="180" y="334" on="1"/>
        <pt x="129" y="334" on="0"/>
        <pt x="72" y="409" on="0"/>
        <pt x="72" y="473" on="1"/>
        <pt x="72" y="525" on="0"/>
        <pt x="101" y="610" on="0"/>
        <pt x="151" y="671" on="0"/>
        <pt x="215" y="704" on="0"/>
        <pt x="250" y="704" on="1"/>
        <pt x="300" y="704" on="0"/>
        <pt x="358" y="631" on="0"/>
        <pt x="358" y="565" on="1"/>
        <pt x="358" y="515" on="0"/>
        <pt x="331" y="430" on="0"/>
        <pt x="283" y="368" on="0"/>
        <pt x="218" y="334" on="0"/>
      </contour>
      <contour>
        <pt x="238" y="639" on="1"/>
        <pt x="223" y="639" on="0"/>
        <pt x="191" y="618" on="0"/>
        <pt x="164" y="577" on="0"/>
        <pt x="147" y="518" on="0"/>
        <pt x="147" y="480" on="1"/>
        <pt x="147" y="441" on="0"/>
        <pt x="172" y="399" on="0"/>
        <pt x="193" y="399" on="1"/>
        <pt x="212" y="399" on="0"/>
        <pt x="245" y="424" on="0"/>
        <pt x="270" y="464" on="0"/>
        <pt x="283" y="522" on="0"/>
        <pt x="283" y="557" on="1"/>
        <pt x="283" y="598" on="0"/>
        <pt x="258" y="639" on="0"/>
      </contour>
      <contour>
        <pt x="543" y="-11" on="1"/>
        <pt x="491" y="-11" on="0"/>
        <pt x="434" y="64" on="0"/>
        <pt x="434" y="128" on="1"/>
        <pt x="434" y="180" on="0"/>
        <pt x="463" y="265" on="0"/>
        <pt x="513" y="326" on="0"/>
        <pt x="577" y="359" on="0"/>
        <pt x="612" y="359" on="1"/>
        <pt x="662" y="359" on="0"/>
        <pt x="720" y="286" on="0"/>
        <pt x="720" y="220" on="1"/>
        <pt x="720" y="170" on="0"/>
        <pt x="693" y="85" on="0"/>
        <pt x="646" y="23" on="0"/>
        <pt x="581" y="-11" on="0"/>
      </contour>
      <contour>
        <pt x="600" y="294" on="1"/>
        <pt x="585" y="294" on="0"/>
        <pt x="553" y="273" on="0"/>
        <pt x="526" y="232" on="0"/>
        <pt x="509" y="173" on="0"/>
        <pt x="509" y="135" on="1"/>
        <pt x="509" y="96" on="0"/>
        <pt x="535" y="54" on="0"/>
        <pt x="555" y="54" on="1"/>
        <pt x="574" y="54" on="0"/>
        <pt x="608" y="79" on="0"/>
        <pt x="633" y="119" on="0"/>
        <pt x="645" y="177" on="0"/>
        <pt x="645" y="212" on="1"/>
        <pt x="645" y="253" on="0"/>
        <pt x="620" y="294" on="0"/>
      </contour>
      <contour>
        <pt x="867" y="-11" on="1"/>
        <pt x="816" y="-11" on="0"/>
        <pt x="758" y="64" on="0"/>
        <pt x="758" y="128" on="1"/>
        <pt x="758" y="180" on="0"/>
        <pt x="788" y="265" on="0"/>
        <pt x="837" y="326" on="0"/>
        <pt x="902" y="359" on="0"/>
        <pt x="937" y="359" on="1"/>
        <pt x="986" y="359" on="0"/>
        <pt x="1044" y="286" on="0"/>
        <pt x="1044" y="220" on="1"/>
        <pt x="1044" y="170" on="0"/>
        <pt x="1017" y="85" on="0"/>
        <pt x="970" y="23" on="0"/>
        <pt x="905" y="-11" on="0"/>
      </contour>
      <contour>
        <pt x="924" y="294" on="1"/>
        <pt x="909" y="294" on="0"/>
        <pt x="877" y="273" on="0"/>
        <pt x="850" y="232" on="0"/>
        <pt x="833" y="173" on="0"/>
        <pt x="833" y="135" on="1"/>
        <pt x="833" y="96" on="0"/>
        <pt x="859" y="54" on="0"/>
        <pt x="879" y="54" on="1"/>
        <pt x="898" y="54" on="0"/>
        <pt x="932" y="79" on="0"/>
        <pt x="957" y="119" on="0"/>
        <pt x="969" y="177" on="0"/>
        <pt x="969" y="212" on="1"/>
        <pt x="969" y="253" on="0"/>
        <pt x="944" y="294" on="0"/>
      </contour>
    </TTGlyph>
    <TTGlyph name="plus" xMin="34" yMin="102" xMax="383" yMax="452">
      <contour>
        <pt x="243" y="232" on="1"/>
        <pt x="220" y="102" on="1"/>
        <pt x="134" y="102" on="1"/>
        <pt x="157" y="232" on="1"/>
        <pt x="34" y="232" on="1"/>
        <pt x="50" y="324" on="1"/>
        <pt x="173" y="324" on="1"/>
        <pt x="196" y="452" on="1"/>
        <pt x="282" y="452" on="1"/>
        <pt x="259" y="324" on="1"/>
        <pt x="383" y="324" on="1"/>
        <pt x="367" y="232" on="1"/>
      </contour>
    </TTGlyph>
    <TTGlyph name="plusminus" xMin="18" yMin="34" xMax="416" yMax="532">
      <contour>
        <pt x="278" y="315" on="1"/>
        <pt x="254" y="182" on="1"/>
        <pt x="167" y="182" on="1"/>
        <pt x="191" y="315" on="1"/>
        <pt x="67" y="315" on="1"/>
        <pt x="83" y="401" on="1"/>
        <pt x="205" y="401" on="1"/>
        <pt x="229" y="532" on="1"/>
        <pt x="316" y="532" on="1"/>
        <pt x="293" y="401" on="1"/>
        <pt x="416" y="401" on="1"/>
        <pt x="400" y="315" on="1"/>
      </contour>
      <contour>
        <pt x="18" y="34" on="1"/>
        <pt x="33" y="119" on="1"/>
        <pt x="366" y="119" on="1"/>
        <pt x="351" y="34" on="1"/>
      </contour>
    </TTGlyph>
    <TTGlyph name="q" xMin="19" yMin="-242" xMax="508" yMax="506">
      <contour>
        <pt x="202" y="-10" on="1"/>
        <pt x="156" y="-10" on="0"/>
        <pt x="87" y="22" on="0"/>
        <pt x="42" y="78" on="0"/>
        <pt x="19" y="154" on="0"/>
        <pt x="19" y="197" on="1"/>
        <pt x="19" y="256" on="0"/>
        <pt x="57" y="367" on="0"/>
        <pt x="128" y="454" on="0"/>
        <pt x="230" y="506" on="0"/>
        <pt x="293" y="506" on="1"/>
        <pt x="329" y="506" on="0"/>
        <pt x="373" y="479" on="0"/>
        <pt x="392" y="455" on="1"/>
        <pt x="408" y="497" on="1"/>
        <pt x="508" y="497" on="1"/>
        <pt x="378" y="-242" on="1"/>
        <pt x="263" y="-242" on="1"/>
        <pt x="313" y="36" on="1"/>
        <pt x="287" y="13" on="0"/>
        <pt x="237" y="-10" on="0"/>
      </contour>
      <contour>
        <pt x="283" y="410" on="1"/>
        <pt x="250" y="410" on="0"/>
        <pt x="197" y="378" on="0"/>
        <pt x="159" y="322" on="0"/>
        <pt x="138" y="249" on="0"/>
        <pt x="138" y="207" on="1"/>
        <pt x="138" y="154" on="0"/>
        <pt x="181" y="85" on="0"/>
        <pt x="226" y="85" on="1"/>
        <pt x="255" y="85" on="0"/>
        <pt x="305" y="110" on="0"/>
        <pt x="342" y="164" on="0"/>
        <pt x="363" y="246" on="0"/>
        <pt x="363" y="303" on="1"/>
        <pt x="363" y="353" on="0"/>
        <pt x="324" y="410" on="0"/>
      </contour>
    </TTGlyph>
    <TTGlyph name="question" xMin="85" yMin="0" xMax="420" yMax="750">
      <contour>
        <pt x="139" y="200" on="1"/>
        <pt x="141" y="229" on="0"/>
        <pt x="143" y="248" on="0"/>
        <pt x="144" y="251" on="1"/>
        <pt x="153" y="302" on="0"/>
        <pt x="208" y="382" on="0"/>
        <pt x="267" y="457" on="0"/>
        <pt x="313" y="535" on="0"/>
        <pt x="313" y="583" on="1"/>
        <pt x="313" y="623" on="0"/>
        <pt x="272" y="662" on="0"/>
        <pt x="239" y="662" on="1"/>
        <pt x="201" y="662" on="0"/>
        <pt x="138" y="620" on="0"/>
        <pt x="117" y="596" on="1"/>
        <pt x="105" y="680" on="1"/>
        <pt x="134" y="715" on="0"/>
        <pt x="219" y="750" on="0"/>
        <pt x="262" y="750" on="1"/>
        <pt x="304" y="750" on="0"/>
        <pt x="364" y="720" on="0"/>
        <pt x="402" y="673" on="0"/>
        <pt x="420" y="615" on="0"/>
        <pt x="420" y="587" on="1"/>
        <pt x="420" y="552" on="0"/>
        <pt x="394" y="490" on="0"/>
        <pt x="353" y="432" on="0"/>
        <pt x="304" y="375" on="0"/>
        <pt x="259" y="316" on="0"/>
        <pt x="225" y="253" on="0"/>
        <pt x="219" y="217" on="1"/>
        <pt x="216" y="200" on="1"/>
      </contour>
      <contour>
        <pt x="85" y="0" on="1"/>
        <pt x="104" y="112" on="1"/>
        <pt x="219" y="112" on="1"/>
        <pt x="198" y="0" on="1"/>
      </contour>
    </TTGlyph>
    <TTGlyph name="questiondown" xMin="-13" yMin="-250" xMax="322" yMax="500">
      <contour>
        <pt x="269" y="300" on="1"/>
        <pt x="266" y="271" on="0"/>
        <pt x="263" y="252" on="0"/>
        <pt x="262" y="249" on="1"/>
        <pt x="253" y="198" on="0"/>
        <pt x="199" y="118" on="0"/>
        <pt x="140" y="43" on="0"/>
        <pt x="95" y="-35" on="0"/>
        <pt x="95" y="-83" on="1"/>
        <pt x="95" y="-123" on="0"/>
        <pt x="136" y="-162" on="0"/>
        <pt x="168" y="-162" on="1"/>
        <pt x="206" y="-162" on="0"/>
        <pt x="269" y="-120" on="0"/>
        <pt x="291" y="-96" on="1"/>
        <pt x="302" y="-180" on="1"/>
        <pt x="273" y="-215" on="0"/>
        <pt x="188" y="-250" on="0"/>
        <pt x="145" y="-250" on="1"/>
        <pt x="103" y="-250" on="0"/>
        <pt x="43" y="-220" on="0"/>
        <pt x="5" y="-173" on="0"/>
        <pt x="-13" y="-115" on="0"/>
        <pt x="-13" y="-87" on="1"/>
        <pt x="-13" y="-52" on="0"/>
        <pt x="13" y="10" on="0"/>
        <pt x="54" y="68" on="0"/>
        <pt x="103" y="125" on="0"/>
        <pt x="148" y="184" on="0"/>
        <pt x="182" y="247" on="0"/>
        <pt x="188" y="283" on="1"/>
        <pt x="191" y="300" on="1"/>
      </contour>
      <contour>
        <pt x="322" y="500" on="1"/>
        <pt x="303" y="388" on="1"/>
        <pt x="188" y="388" on="1"/>
        <pt x="208" y="500" on="1"/>
      </contour>
    </TTGlyph>
    <TTGlyph name="quotedbl" xMin="85" yMin="450" xMax="411" yMax="750">
      <contour>
        <pt x="340" y="450" on="1"/>
        <pt x="262" y="450" on="1"/>
        <pt x="297" y="750" on="1"/>
        <pt x="411" y="750" on="1"/>
      </contour>
      <contour>
        <pt x="163" y="450" on="1"/>
        <pt x="85" y="450" on="1"/>
        <pt x="120" y="750" on="1"/>
        <pt x="234" y="750" on="1"/>
      </contour>
    </TTGlyph>
    <TTGlyph name="quotedblbase" xMin="-12" yMin="-110" xMax="345" yMax="116">
      <contour>
        <pt x="9" y="-110" on="1"/>
        <pt x="-12" y="-96" on="1"/>
        <pt x="32" y="-10" on="1"/>
        <pt x="5" y="0" on="1"/>
        <pt x="25" y="116" on="1"/>
        <pt x="138" y="116" on="1"/>
        <pt x="118" y="0" on="1"/>
      </contour>
      <contour>
        <pt x="216" y="-110" on="1"/>
        <pt x="195" y="-96" on="1"/>
        <pt x="239" y="-10" on="1"/>
        <pt x="212" y="0" on="1"/>
        <pt x="232" y="116" on="1"/>
        <pt x="345" y="116" on="1"/>
        <pt x="325" y="0" on="1"/>
      </contour>
    </TTGlyph>
    <TTGlyph name="quotedblleft" xMin="84" yMin="524" xMax="424" yMax="750">
      <contour>
        <pt x="214" y="750" on="1"/>
        <pt x="235" y="736" on="1"/>
        <pt x="190" y="650" on="1"/>
        <pt x="218" y="640" on="1"/>
        <pt x="198" y="524" on="1"/>
        <pt x="84" y="524" on="1"/>
        <pt x="105" y="640" on="1"/>
      </contour>
      <contour>
        <pt x="403" y="750" on="1"/>
        <pt x="424" y="736" on="1"/>
        <pt x="379" y="650" on="1"/>
        <pt x="407" y="640" on="1"/>
        <pt x="387" y="524" on="1"/>
        <pt x="273" y="524" on="1"/>
        <pt x="294" y="640" on="1"/>
      </contour>
    </TTGlyph>
    <TTGlyph name="quotedblright" xMin="84" yMin="524" xMax="424" yMax="750">
      <contour>
        <pt x="294" y="524" on="1"/>
        <pt x="273" y="538" on="1"/>
        <pt x="318" y="624" on="1"/>
        <pt x="291" y="634" on="1"/>
        <pt x="310" y="750" on="1"/>
        <pt x="424" y="750" on="1"/>
        <pt x="403" y="634" on="1"/>
      </contour>
      <contour>
        <pt x="105" y="524" on="1"/>
        <pt x="84" y="538" on="1"/>
        <pt x="129" y="624" on="1"/>
        <pt x="102" y="634" on="1"/>
        <pt x="121" y="750" on="1"/>
        <pt x="235" y="750" on="1"/>
        <pt x="214" y="634" on="1"/>
      </contour>
    </TTGlyph>
    <TTGlyph name="quoteleft" xMin="84" yMin="524" xMax="235" yMax="750">
      <contour>
        <pt x="214" y="750" on="1"/>
        <pt x="235" y="736" on="1"/>
        <pt x="190" y="650" on="1"/>
        <pt x="218" y="640" on="1"/>
        <pt x="198" y="524" on="1"/>
        <pt x="84" y="524" on="1"/>
        <pt x="105" y="640" on="1"/>
      </contour>
    </TTGlyph>
    <TTGlyph name="quoteright" xMin="84" yMin="524" xMax="235" yMax="750">
      <contour>
        <pt x="105" y="524" on="1"/>
        <pt x="84" y="538" on="1"/>
        <pt x="129" y="624" on="1"/>
        <pt x="102" y="634" on="1"/>
        <pt x="121" y="750" on="1"/>
        <pt x="235" y="750" on="1"/>
        <pt x="214" y="634" on="1"/>
      </contour>
    </TTGlyph>
    <TTGlyph name="quotesinglbase" xMin="-12" yMin="-110" xMax="138" yMax="116">
      <contour>
        <pt x="9" y="-110" on="1"/>
        <pt x="-12" y="-96" on="1"/>
        <pt x="32" y="-10" on="1"/>
        <pt x="5" y="0" on="1"/>
        <pt x="25" y="116" on="1"/>
        <pt x="138" y="116" on="1"/>
        <pt x="118" y="0" on="1"/>
      </contour>
    </TTGlyph>
    <TTGlyph name="quotesingle" xMin="85" yMin="450" xMax="233" yMax="750">
      <contour>
        <pt x="162" y="450" on="1"/>
        <pt x="85" y="450" on="1"/>
        <pt x="120" y="750" on="1"/>
        <pt x="233" y="750" on="1"/>
      </contour>
    </TTGlyph>
    <TTGlyph name="r" xMin="8" yMin="0" xMax="356" yMax="508">
      <contour>
        <pt x="315" y="397" on="1"/>
        <pt x="272" y="397" on="1"/>
        <pt x="244" y="397" on="0"/>
        <pt x="196" y="364" on="0"/>
        <pt x="183" y="343" on="1"/>
        <pt x="122" y="0" on="1"/>
        <pt x="8" y="0" on="1"/>
        <pt x="96" y="497" on="1"/>
        <pt x="204" y="497" on="1"/>
        <pt x="195" y="435" on="1"/>
        <pt x="215" y="465" on="0"/>
        <pt x="287" y="508" on="0"/>
        <pt x="325" y="508" on="1"/>
        <pt x="356" y="508" on="1"/>
      </contour>
    </TTGlyph>
    <TTGlyph name="registered" xMin="56" yMin="37" xMax="629" yMax="693">
      <contour>
        <pt x="285" y="37" on="1"/>
        <pt x="233" y="37" on="0"/>
        <pt x="148" y="75" on="0"/>
        <pt x="88" y="144" on="0"/>
        <pt x="56" y="241" on="0"/>
        <pt x="56" y="301" on="1"/>
        <pt x="56" y="387" on="0"/>
        <pt x="111" y="531" on="0"/>
        <pt x="206" y="635" on="0"/>
        <pt x="331" y="693" on="0"/>
        <pt x="401" y="693" on="1"/>
        <pt x="453" y="693" on="0"/>
        <pt x="537" y="656" on="0"/>
        <pt x="597" y="587" on="0"/>
        <pt x="629" y="490" on="0"/>
        <pt x="629" y="430" on="1"/>
        <pt x="629" y="344" on="0"/>
        <pt x="574" y="200" on="0"/>
        <pt x="480" y="95" on="0"/>
        <pt x="355" y="37" on="0"/>
      </contour>
      <contour>
        <pt x="390" y="630" on="1"/>
        <pt x="327" y="630" on="0"/>
        <pt x="229" y="576" on="0"/>
        <pt x="163" y="486" on="0"/>
        <pt x="129" y="368" on="0"/>
        <pt x="129" y="303" on="1"/>
        <pt x="129" y="259" on="0"/>
        <pt x="149" y="184" on="0"/>
        <pt x="190" y="130" on="0"/>
        <pt x="253" y="99" on="0"/>
        <pt x="296" y="99" on="1"/>
        <pt x="359" y="99" on="0"/>
        <pt x="457" y="153" on="0"/>
        <pt x="523" y="244" on="0"/>
        <pt x="557" y="363" on="0"/>
        <pt x="557" y="428" on="1"/>
        <pt x="557" y="472" on="0"/>
        <pt x="537" y="546" on="0"/>
        <pt x="496" y="600" on="0"/>
        <pt x="433" y="630" on="0"/>
      </contour>
      <contour>
        <pt x="362" y="205" on="1"/>
        <pt x="327" y="319" on="1"/>
        <pt x="302" y="319" on="1"/>
        <pt x="282" y="205" on="1"/>
        <pt x="200" y="205" on="1"/>
        <pt x="259" y="536" on="1"/>
        <pt x="374" y="536" on="1"/>
        <pt x="414" y="536" on="0"/>
        <pt x="466" y="501" on="0"/>
        <pt x="466" y="454" on="1"/>
        <pt x="466" y="433" on="0"/>
        <pt x="455" y="399" on="0"/>
        <pt x="437" y="370" on="0"/>
        <pt x="416" y="349" on="0"/>
        <pt x="406" y="342" on="1"/>
        <pt x="449" y="205" on="1"/>
      </contour>
      <contour>
        <pt x="328" y="469" on="1"/>
        <pt x="315" y="392" on="1"/>
        <pt x="335" y="392" on="1"/>
        <pt x="382" y="392" on="0"/>
        <pt x="382" y="443" on="1"/>
        <pt x="382" y="455" on="0"/>
        <pt x="370" y="469" on="0"/>
        <pt x="351" y="469" on="1"/>
      </contour>
    </TTGlyph>
    <TTGlyph name="ring" xMin="155" yMin="576" xMax="345" yMax="755">
      <contour>
        <pt x="235" y="576" on="1"/>
        <pt x="197" y="576" on="0"/>
        <pt x="155" y="621" on="0"/>
        <pt x="155" y="652" on="1"/>
        <pt x="155" y="672" on="0"/>
        <pt x="172" y="709" on="0"/>
        <pt x="201" y="738" on="0"/>
        <pt x="242" y="755" on="0"/>
        <pt x="266" y="755" on="1"/>
        <pt x="305" y="755" on="0"/>
        <pt x="345" y="710" on="0"/>
        <pt x="345" y="679" on="1"/>
        <pt x="345" y="659" on="0"/>
        <pt x="329" y="621" on="0"/>
        <pt x="300" y="593" on="0"/>
        <pt x="259" y="576" on="0"/>
      </contour>
      <contour>
        <pt x="258" y="712" on="1"/>
        <pt x="239" y="712" on="0"/>
        <pt x="211" y="679" on="0"/>
        <pt x="211" y="655" on="1"/>
        <pt x="211" y="638" on="0"/>
        <pt x="228" y="618" on="0"/>
        <pt x="242" y="618" on="1"/>
        <pt x="262" y="618" on="0"/>
        <pt x="290" y="649" on="0"/>
        <pt x="290" y="674" on="1"/>
        <pt x="290" y="691" on="0"/>
        <pt x="272" y="712" on="0"/>
      </contour>
    </TTGlyph>
    <TTGlyph name="s" xMin="-11" yMin="-10" xMax="378" yMax="506">
      <contour>
        <pt x="137" y="-10" on="1"/>
        <pt x="80" y="-10" on="0"/>
        <pt x="6" y="15" on="0"/>
        <pt x="-11" y="29" on="1"/>
        <pt x="16" y="129" on="1"/>
        <pt x="25" y="121" on="0"/>
        <pt x="54" y="103" on="0"/>
        <pt x="89" y="88" on="0"/>
        <pt x="128" y="79" on="0"/>
        <pt x="148" y="79" on="1"/>
        <pt x="189" y="79" on="0"/>
        <pt x="223" y="118" on="0"/>
        <pt x="223" y="143" on="1"/>
        <pt x="223" y="158" on="0"/>
        <pt x="212" y="179" on="0"/>
        <pt x="194" y="194" on="0"/>
        <pt x="168" y="205" on="0"/>
        <pt x="153" y="210" on="1"/>
        <pt x="132" y="217" on="0"/>
        <pt x="94" y="233" on="0"/>
        <pt x="64" y="259" on="0"/>
        <pt x="46" y="296" on="0"/>
        <pt x="46" y="325" on="1"/>
        <pt x="46" y="352" on="0"/>
        <pt x="65" y="416" on="0"/>
        <pt x="110" y="470" on="0"/>
        <pt x="185" y="506" on="0"/>
        <pt x="240" y="506" on="1"/>
        <pt x="286" y="506" on="0"/>
        <pt x="362" y="483" on="0"/>
        <pt x="378" y="470" on="1"/>
        <pt x="351" y="372" on="1"/>
        <pt x="344" y="381" on="0"/>
        <pt x="320" y="399" on="0"/>
        <pt x="289" y="413" on="0"/>
        <pt x="254" y="422" on="0"/>
        <pt x="236" y="422" on="1"/>
        <pt x="220" y="422" on="0"/>
        <pt x="189" y="414" on="0"/>
        <pt x="165" y="398" on="0"/>
        <pt x="150" y="374" on="0"/>
        <pt x="150" y="357" on="1"/>
        <pt x="150" y="341" on="0"/>
        <pt x="164" y="321" on="0"/>
        <pt x="189" y="307" on="0"/>
        <pt x="222" y="296" on="0"/>
        <pt x="241" y="289" on="1"/>
        <pt x="260" y="282" on="0"/>
        <pt x="296" y="265" on="0"/>
        <pt x="324" y="238" on="0"/>
        <pt x="341" y="196" on="0"/>
        <pt x="341" y="164" on="1"/>
        <pt x="341" y="134" on="0"/>
        <pt x="322" y="72" on="0"/>
        <pt x="275" y="22" on="0"/>
        <pt x="197" y="-10" on="0"/>
      </contour>
    </TTGlyph>
    <TTGlyph name="scaron" xMin="-11" yMin="-10" xMax="408" yMax="747">
      <component glyphName="s" x="0" y="0" flags="0x204"/>
      <component glyphName="caron" x="-60" y="0" flags="0x4"/>
    </TTGlyph>
    <TTGlyph name="section" xMin="7" yMin="-85" xMax="439" yMax="750">
      <contour>
        <pt x="293" y="187" on="1"/>
        <pt x="303" y="170" on="0"/>
        <pt x="315" y="130" on="0"/>
        <pt x="315" y="106" on="1"/>
        <pt x="315" y="79" on="0"/>
        <pt x="298" y="13" on="0"/>
        <pt x="255" y="-45" on="0"/>
        <pt x="183" y="-85" on="0"/>
        <pt x="128" y="-85" on="1"/>
        <pt x="110" y="-85" on="0"/>
        <pt x="72" y="-78" on="0"/>
        <pt x="39" y="-67" on="0"/>
        <pt x="13" y="-52" on="0"/>
        <pt x="7" y="-44" on="1"/>
        <pt x="31" y="48" on="1"/>
        <pt x="53" y="28" on="0"/>
        <pt x="113" y="0" on="0"/>
        <pt x="139" y="0" on="1"/>
        <pt x="155" y="0" on="0"/>
        <pt x="189" y="8" on="0"/>
        <pt x="215" y="26" on="0"/>
        <pt x="232" y="56" on="0"/>
        <pt x="232" y="78" on="1"/>
        <pt x="232" y="102" on="0"/>
        <pt x="205" y="132" on="0"/>
        <pt x="163" y="155" on="0"/>
        <pt x="116" y="177" on="0"/>
        <pt x="74" y="210" on="0"/>
        <pt x="47" y="259" on="0"/>
        <pt x="47" y="299" on="1"/>
        <pt x="47" y="360" on="0"/>
        <pt x="99" y="456" on="0"/>
        <pt x="151" y="479" on="1"/>
        <pt x="140" y="495" on="0"/>
        <pt x="130" y="535" on="0"/>
        <pt x="130" y="558" on="1"/>
        <pt x="130" y="585" on="0"/>
        <pt x="147" y="652" on="0"/>
        <pt x="190" y="710" on="0"/>
        <pt x="262" y="750" on="0"/>
        <pt x="317" y="750" on="1"/>
        <pt x="335" y="750" on="0"/>
        <pt x="374" y="743" on="0"/>
        <pt x="407" y="731" on="0"/>
        <pt x="433" y="716" on="0"/>
        <pt x="439" y="709" on="1"/>
        <pt x="415" y="617" on="1"/>
        <pt x="393" y="637" on="0"/>
        <pt x="333" y="665" on="0"/>
        <pt x="307" y="665" on="1"/>
        <pt x="291" y="665" on="0"/>
        <pt x="258" y="656" on="0"/>
        <pt x="231" y="637" on="0"/>
        <pt x="214" y="608" on="0"/>
        <pt x="214" y="588" on="1"/>
        <pt x="214" y="564" on="0"/>
        <pt x="241" y="535" on="0"/>
        <pt x="283" y="511" on="0"/>
        <pt x="330" y="488" on="0"/>
        <pt x="372" y="454" on="0"/>
        <pt x="399" y="403" on="0"/>
        <pt x="399" y="364" on="1"/>
        <pt x="399" y="310" on="0"/>
        <pt x="351" y="213" on="0"/>
      </contour>
      <contour>
        <pt x="207" y="417" on="1"/>
        <pt x="199" y="417" on="0"/>
        <pt x="176" y="407" on="0"/>
        <pt x="155" y="388" on="0"/>
        <pt x="141" y="358" on="0"/>
        <pt x="141" y="338" on="1"/>
        <pt x="141" y="317" on="0"/>
        <pt x="160" y="285" on="0"/>
        <pt x="189" y="261" on="0"/>
        <pt x="223" y="244" on="0"/>
        <pt x="237" y="238" on="1"/>
        <pt x="245" y="240" on="0"/>
        <pt x="269" y="256" on="0"/>
        <pt x="292" y="281" on="0"/>
        <pt x="308" y="311" on="0"/>
        <pt x="308" y="328" on="1"/>
        <pt x="308" y="350" on="0"/>
        <pt x="288" y="380" on="0"/>
        <pt x="258" y="400" on="0"/>
        <pt x="223" y="413" on="0"/>
      </contour>
    </TTGlyph>
    <TTGlyph name="semicolon" xMin="-10" yMin="-110" xMax="211" yMax="440">
      <contour>
        <pt x="64" y="324" on="1"/>
        <pt x="84" y="440" on="1"/>
        <pt x="211" y="440" on="1"/>
        <pt x="190" y="324" on="1"/>
      </contour>
      <contour>
        <pt x="11" y="-110" on="1"/>
        <pt x="-10" y="-96" on="1"/>
        <pt x="34" y="-10" on="1"/>
        <pt x="7" y="0" on="1"/>
        <pt x="27" y="116" on="1"/>
        <pt x="140" y="116" on="1"/>
        <pt x="120" y="0" on="1"/>
      </contour>
    </TTGlyph>
    <TTGlyph name="seven" xMin="25" yMin="0" xMax="534" yMax="700">
      <contour>
        <pt x="148" y="0" on="1"/>
        <pt x="25" y="0" on="1"/>
        <pt x="343" y="588" on="1"/>
        <pt x="99" y="588" on="1"/>
        <pt x="119" y="700" on="1"/>
        <pt x="534" y="700" on="1"/>
      </contour>
    </TTGlyph>
    <TTGlyph name="six" xMin="48" yMin="-14" xMax="475" yMax="700">
      <contour>
        <pt x="206" y="-14" on="1"/>
        <pt x="172" y="-14" on="0"/>
        <pt x="114" y="9" on="0"/>
        <pt x="72" y="57" on="0"/>
        <pt x="48" y="131" on="0"/>
        <pt x="48" y="182" on="1"/>
        <pt x="48" y="251" on="0"/>
        <pt x="88" y="382" on="0"/>
        <pt x="153" y="497" on="0"/>
        <pt x="233" y="593" on="0"/>
        <pt x="313" y="661" on="0"/>
        <pt x="383" y="700" on="0"/>
        <pt x="406" y="700" on="1"/>
        <pt x="475" y="654" on="1"/>
        <pt x="462" y="649" on="0"/>
        <pt x="416" y="621" on="0"/>
        <pt x="361" y="581" on="0"/>
        <pt x="302" y="529" on="0"/>
        <pt x="251" y="470" on="0"/>
        <pt x="211" y="406" on="0"/>
        <pt x="202" y="374" on="1"/>
        <pt x="213" y="388" on="0"/>
        <pt x="243" y="406" on="0"/>
        <pt x="274" y="417" on="0"/>
        <pt x="302" y="421" on="0"/>
        <pt x="313" y="421" on="1"/>
        <pt x="347" y="421" on="0"/>
        <pt x="405" y="400" on="0"/>
        <pt x="447" y="358" on="0"/>
        <pt x="471" y="297" on="0"/>
        <pt x="471" y="257" on="1"/>
        <pt x="471" y="203" on="0"/>
        <pt x="431" y="105" on="0"/>
        <pt x="361" y="30" on="0"/>
        <pt x="264" y="-14" on="0"/>
      </contour>
      <contour>
        <pt x="288" y="324" on="1"/>
        <pt x="262" y="324" on="0"/>
        <pt x="215" y="304" on="0"/>
        <pt x="180" y="267" on="0"/>
        <pt x="159" y="215" on="0"/>
        <pt x="159" y="183" on="1"/>
        <pt x="159" y="160" on="0"/>
        <pt x="173" y="126" on="0"/>
        <pt x="195" y="102" on="0"/>
        <pt x="223" y="90" on="0"/>
        <pt x="237" y="90" on="1"/>
        <pt x="263" y="90" on="0"/>
        <pt x="309" y="116" on="0"/>
        <pt x="343" y="158" on="0"/>
        <pt x="362" y="212" on="0"/>
        <pt x="362" y="241" on="1"/>
        <pt x="362" y="274" on="0"/>
        <pt x="327" y="324" on="0"/>
      </contour>
    </TTGlyph>
    <TTGlyph name="slash" xMin="-46" yMin="-85" xMax="544" yMax="700">
      <contour>
        <pt x="78" y="-85" on="1"/>
        <pt x="-46" y="-85" on="1"/>
        <pt x="420" y="700" on="1"/>
        <pt x="544" y="700" on="1"/>
      </contour>
    </TTGlyph>
    <TTGlyph name="sterling" xMin="-19" yMin="0" xMax="514" yMax="708">
      <contour>
        <pt x="433" y="557" on="1"/>
        <pt x="428" y="587" on="0"/>
        <pt x="404" y="613" on="0"/>
        <pt x="376" y="613" on="1"/>
        <pt x="353" y="613" on="0"/>
        <pt x="324" y="597" on="0"/>
        <pt x="306" y="564" on="0"/>
        <pt x="294" y="515" on="0"/>
        <pt x="288" y="482" on="1"/>
        <pt x="274" y="403" on="1"/>
        <pt x="440" y="403" on="1"/>
        <pt x="401" y="305" on="1"/>
        <pt x="253" y="305" on="1"/>
        <pt x="246" y="274" on="0"/>
        <pt x="234" y="227" on="0"/>
        <pt x="219" y="185" on="0"/>
        <pt x="199" y="140" on="0"/>
        <pt x="184" y="112" on="1"/>
        <pt x="393" y="112" on="1"/>
        <pt x="373" y="0" on="1"/>
        <pt x="-19" y="0" on="1"/>
        <pt x="14" y="35" on="0"/>
        <pt x="63" y="105" on="0"/>
        <pt x="101" y="180" on="0"/>
        <pt x="129" y="260" on="0"/>
        <pt x="141" y="305" on="1"/>
        <pt x="61" y="305" on="1"/>
        <pt x="101" y="403" on="1"/>
        <pt x="164" y="403" on="1"/>
        <pt x="181" y="503" on="1"/>
        <pt x="188" y="541" on="0"/>
        <pt x="213" y="614" on="0"/>
        <pt x="258" y="672" on="0"/>
        <pt x="328" y="708" on="0"/>
        <pt x="381" y="708" on="1"/>
        <pt x="407" y="708" on="0"/>
        <pt x="454" y="697" on="0"/>
        <pt x="490" y="674" on="0"/>
        <pt x="513" y="640" on="0"/>
        <pt x="514" y="617" on="1"/>
      </contour>
    </TTGlyph>
    <TTGlyph name="t" xMin="38" yMin="-10" xMax="329" yMax="622">
      <contour>
        <pt x="229" y="-10" on="1"/>
        <pt x="149" y="-10" on="1"/>
        <pt x="122" y="-10" on="0"/>
        <pt x="83" y="6" on="0"/>
        <pt x="58" y="33" on="0"/>
        <pt x="47" y="69" on="0"/>
        <pt x="47" y="89" on="1"/>
        <pt x="47" y="103" on="0"/>
        <pt x="50" y="117" on="1"/>
        <pt x="101" y="405" on="1"/>
        <pt x="38" y="405" on="1"/>
        <pt x="64" y="497" on="1"/>
        <pt x="117" y="497" on="1"/>
        <pt x="138" y="610" on="1"/>
        <pt x="254" y="622" on="1"/>
        <pt x="231" y="497" on="1"/>
        <pt x="329" y="497" on="1"/>
        <pt x="313" y="405" on="1"/>
        <pt x="215" y="405" on="1"/>
        <pt x="173" y="169" on="1"/>
        <pt x="170" y="152" on="0"/>
        <pt x="166" y="125" on="0"/>
        <pt x="166" y="116" on="1"/>
        <pt x="166" y="93" on="0"/>
        <pt x="192" y="83" on="0"/>
        <pt x="225" y="83" on="1"/>
        <pt x="256" y="83" on="1"/>
      </contour>
    </TTGlyph>
    <TTGlyph name="thorn" xMin="-34" yMin="-242" xMax="495" yMax="750">
      <contour>
        <pt x="223" y="-10" on="1"/>
        <pt x="189" y="-10" on="0"/>
        <pt x="148" y="12" on="0"/>
        <pt x="129" y="34" on="1"/>
        <pt x="80" y="-242" on="1"/>
        <pt x="-34" y="-242" on="1"/>
        <pt x="141" y="750" on="1"/>
        <pt x="255" y="750" on="1"/>
        <pt x="205" y="463" on="1"/>
        <pt x="229" y="484" on="0"/>
        <pt x="279" y="506" on="0"/>
        <pt x="314" y="506" on="1"/>
        <pt x="360" y="506" on="0"/>
        <pt x="428" y="473" on="0"/>
        <pt x="473" y="417" on="0"/>
        <pt x="495" y="342" on="0"/>
        <pt x="495" y="299" on="1"/>
        <pt x="495" y="240" on="0"/>
        <pt x="457" y="128" on="0"/>
        <pt x="387" y="42" on="0"/>
        <pt x="286" y="-10" on="0"/>
      </contour>
      <contour>
        <pt x="291" y="410" on="1"/>
        <pt x="256" y="410" on="0"/>
        <pt x="206" y="374" on="0"/>
        <pt x="172" y="314" on="0"/>
        <pt x="156" y="238" on="0"/>
        <pt x="156" y="198" on="1"/>
        <pt x="156" y="147" on="0"/>
        <pt x="192" y="83" on="0"/>
        <pt x="233" y="83" on="1"/>
        <pt x="265" y="83" on="0"/>
        <pt x="318" y="116" on="0"/>
        <pt x="357" y="172" on="0"/>
        <pt x="378" y="247" on="0"/>
        <pt x="378" y="289" on="1"/>
        <pt x="378" y="343" on="0"/>
        <pt x="333" y="410" on="0"/>
      </contour>
    </TTGlyph>
    <TTGlyph name="three" xMin="-4" yMin="-14" xMax="463" yMax="714">
      <contour>
        <pt x="156" y="-14" on="1"/>
        <pt x="126" y="-14" on="0"/>
        <pt x="71" y="-2" on="0"/>
        <pt x="28" y="15" on="0"/>
        <pt x="0" y="34" on="0"/>
        <pt x="-4" y="40" on="1"/>
        <pt x="44" y="148" on="1"/>
        <pt x="51" y="137" on="0"/>
        <pt x="77" y="118" on="0"/>
        <pt x="111" y="105" on="0"/>
        <pt x="150" y="97" on="0"/>
        <pt x="170" y="97" on="1"/>
        <pt x="198" y="97" on="0"/>
        <pt x="250" y="111" on="0"/>
        <pt x="291" y="145" on="0"/>
        <pt x="315" y="201" on="0"/>
        <pt x="315" y="244" on="1"/>
        <pt x="315" y="262" on="0"/>
        <pt x="306" y="295" on="0"/>
        <pt x="285" y="320" on="0"/>
        <pt x="248" y="335" on="0"/>
        <pt x="221" y="335" on="1"/>
        <pt x="138" y="335" on="1"/>
        <pt x="164" y="427" on="1"/>
        <pt x="207" y="427" on="1"/>
        <pt x="249" y="427" on="0"/>
        <pt x="302" y="448" on="0"/>
        <pt x="332" y="481" on="0"/>
        <pt x="343" y="524" on="0"/>
        <pt x="343" y="545" on="1"/>
        <pt x="343" y="577" on="0"/>
        <pt x="307" y="613" on="0"/>
        <pt x="265" y="613" on="1"/>
        <pt x="236" y="613" on="0"/>
        <pt x="170" y="594" on="0"/>
        <pt x="149" y="577" on="1"/>
        <pt x="146" y="668" on="1"/>
        <pt x="155" y="675" on="0"/>
        <pt x="185" y="691" on="0"/>
        <pt x="225" y="705" on="0"/>
        <pt x="271" y="714" on="0"/>
        <pt x="296" y="714" on="1"/>
        <pt x="346" y="714" on="0"/>
        <pt x="411" y="686" on="0"/>
        <pt x="448" y="643" on="0"/>
        <pt x="463" y="590" on="0"/>
        <pt x="463" y="565" on="1"/>
        <pt x="463" y="509" on="0"/>
        <pt x="419" y="424" on="0"/>
        <pt x="376" y="388" on="1"/>
        <pt x="402" y="368" on="0"/>
        <pt x="431" y="296" on="0"/>
        <pt x="431" y="253" on="1"/>
        <pt x="431" y="187" on="0"/>
        <pt x="382" y="87" on="0"/>
        <pt x="303" y="20" on="0"/>
        <pt x="205" y="-14" on="0"/>
      </contour>
    </TTGlyph>
    <TTGlyph name="threequarters" xMin="41" yMin="-85" xMax="768" yMax="706">
      <component glyphName="threesuperior" x="13" y="0" flags="0x4"/>
      <component glyphName="slash" x="184" y="0" flags="0x4"/>
      <component glyphName="uni2074" x="438" y="-319" flags="0x4"/>
    </TTGlyph>
    <TTGlyph name="threesuperior" xMin="28" yMin="312" xMax="280" yMax="706">
      <contour>
        <pt x="119" y="312" on="1"/>
        <pt x="103" y="312" on="0"/>
        <pt x="72" y="319" on="0"/>
        <pt x="46" y="328" on="0"/>
        <pt x="29" y="338" on="0"/>
        <pt x="28" y="342" on="1"/>
        <pt x="65" y="425" on="1"/>
        <pt x="72" y="416" on="0"/>
        <pt x="109" y="401" on="0"/>
        <pt x="128" y="401" on="1"/>
        <pt x="161" y="401" on="0"/>
        <pt x="195" y="423" on="0"/>
        <pt x="195" y="453" on="1"/>
        <pt x="195" y="470" on="0"/>
        <pt x="183" y="492" on="0"/>
        <pt x="166" y="492" on="1"/>
        <pt x="106" y="492" on="1"/>
        <pt x="124" y="559" on="1"/>
        <pt x="155" y="559" on="1"/>
        <pt x="179" y="559" on="0"/>
        <pt x="206" y="587" on="0"/>
        <pt x="206" y="603" on="1"/>
        <pt x="206" y="616" on="0"/>
        <pt x="186" y="635" on="0"/>
        <pt x="165" y="635" on="1"/>
        <pt x="150" y="635" on="0"/>
        <pt x="120" y="626" on="0"/>
        <pt x="111" y="620" on="1"/>
        <pt x="111" y="681" on="1"/>
        <pt x="124" y="692" on="0"/>
        <pt x="175" y="706" on="0"/>
        <pt x="195" y="706" on="1"/>
        <pt x="216" y="706" on="0"/>
        <pt x="248" y="690" on="0"/>
        <pt x="269" y="663" on="0"/>
        <pt x="279" y="629" on="0"/>
        <pt x="279" y="610" on="1"/>
        <pt x="279" y="589" on="0"/>
        <pt x="266" y="547" on="0"/>
        <pt x="253" y="530" on="1"/>
        <pt x="267" y="517" on="0"/>
        <pt x="280" y="484" on="0"/>
        <pt x="280" y="458" on="1"/>
        <pt x="280" y="422" on="0"/>
        <pt x="252" y="368" on="0"/>
        <pt x="206" y="331" on="0"/>
        <pt x="148" y="312" on="0"/>
      </contour>
    </TTGlyph>
    <TTGlyph name="tilde" xMin="181" yMin="596" xMax="537" yMax="715">
      <contour>
        <pt x="412" y="599" on="1"/>
        <pt x="393" y="599" on="0"/>
        <pt x="365" y="613" on="0"/>
        <pt x="341" y="630" on="0"/>
        <pt x="319" y="644" on="0"/>
        <pt x="306" y="644" on="1"/>
        <pt x="286" y="644" on="0"/>
        <pt x="262" y="613" on="0"/>
        <pt x="256" y="596" on="1"/>
        <pt x="181" y="613" on="1"/>
        <pt x="187" y="638" on="0"/>
        <pt x="216" y="675" on="0"/>
        <pt x="253" y="699" on="0"/>
        <pt x="294" y="711" on="0"/>
        <pt x="313" y="711" on="1"/>
        <pt x="334" y="711" on="0"/>
        <pt x="359" y="697" on="0"/>
        <pt x="379" y="681" on="0"/>
        <pt x="396" y="667" on="0"/>
        <pt x="409" y="667" on="1"/>
        <pt x="430" y="667" on="0"/>
        <pt x="463" y="697" on="0"/>
        <pt x="468" y="715" on="1"/>
        <pt x="537" y="699" on="1"/>
        <pt x="525" y="659" on="0"/>
        <pt x="460" y="599" on="0"/>
      </contour>
    </TTGlyph>
    <TTGlyph name="trademark" xMin="91" yMin="337" xMax="649" yMax="700">
      <contour>
        <pt x="469" y="431" on="1"/>
        <pt x="427" y="567" on="1"/>
        <pt x="362" y="337" on="1"/>
        <pt x="286" y="337" on="1"/>
        <pt x="395" y="700" on="1"/>
        <pt x="441" y="700" on="1"/>
        <pt x="494" y="542" on="1"/>
        <pt x="602" y="700" on="1"/>
        <pt x="649" y="700" on="1"/>
        <pt x="630" y="337" on="1"/>
        <pt x="553" y="337" on="1"/>
        <pt x="570" y="566" on="1"/>
        <pt x="479" y="431" on="1"/>
      </contour>
      <contour>
        <pt x="337" y="631" on="1"/>
        <pt x="253" y="631" on="1"/>
        <pt x="200" y="337" on="1"/>
        <pt x="126" y="337" on="1"/>
        <pt x="178" y="631" on="1"/>
        <pt x="91" y="631" on="1"/>
        <pt x="104" y="700" on="1"/>
        <pt x="358" y="700" on="1"/>
      </contour>
    </TTGlyph>
    <TTGlyph name="two" xMin="-2" yMin="0" xMax="459" yMax="714">
      <contour>
        <pt x="-2" y="0" on="1"/>
        <pt x="73" y="94" on="0"/>
        <pt x="183" y="235" on="0"/>
        <pt x="259" y="341" on="0"/>
        <pt x="308" y="416" on="0"/>
        <pt x="334" y="472" on="0"/>
        <pt x="344" y="514" on="0"/>
        <pt x="344" y="533" on="1"/>
        <pt x="344" y="571" on="0"/>
        <pt x="308" y="613" on="0"/>
        <pt x="274" y="613" on="1"/>
        <pt x="245" y="613" on="0"/>
        <pt x="193" y="590" on="0"/>
        <pt x="151" y="558" on="0"/>
        <pt x="120" y="523" on="0"/>
        <pt x="111" y="510" on="1"/>
        <pt x="115" y="616" on="1"/>
        <pt x="124" y="627" on="0"/>
        <pt x="160" y="661" on="0"/>
        <pt x="211" y="692" on="0"/>
        <pt x="277" y="714" on="0"/>
        <pt x="316" y="714" on="1"/>
        <pt x="357" y="714" on="0"/>
        <pt x="412" y="687" on="0"/>
        <pt x="445" y="644" on="0"/>
        <pt x="459" y="589" on="0"/>
        <pt x="459" y="562" on="1"/>
        <pt x="459" y="524" on="0"/>
        <pt x="434" y="441" on="0"/>
        <pt x="377" y="336" on="0"/>
        <pt x="286" y="201" on="0"/>
        <pt x="220" y="112" on="1"/>
        <pt x="404" y="112" on="1"/>
        <pt x="385" y="0" on="1"/>
      </contour>
    </TTGlyph>
    <TTGlyph name="twosuperior" xMin="25" yMin="320" xMax="300" yMax="706">
      <contour>
        <pt x="25" y="320" on="1"/>
        <pt x="88" y="396" on="0"/>
        <pt x="163" y="493" on="0"/>
        <pt x="203" y="554" on="0"/>
        <pt x="215" y="591" on="0"/>
        <pt x="215" y="606" on="1"/>
        <pt x="215" y="637" on="0"/>
        <pt x="190" y="637" on="1"/>
        <pt x="172" y="637" on="0"/>
        <pt x="141" y="620" on="0"/>
        <pt x="115" y="597" on="0"/>
        <pt x="98" y="575" on="0"/>
        <pt x="95" y="570" on="1"/>
        <pt x="99" y="651" on="1"/>
        <pt x="114" y="671" on="0"/>
        <pt x="175" y="706" on="0"/>
        <pt x="217" y="706" on="1"/>
        <pt x="241" y="706" on="0"/>
        <pt x="273" y="691" on="0"/>
        <pt x="292" y="667" on="0"/>
        <pt x="300" y="638" on="0"/>
        <pt x="300" y="624" on="1"/>
        <pt x="300" y="605" on="0"/>
        <pt x="287" y="563" on="0"/>
        <pt x="261" y="512" on="0"/>
        <pt x="220" y="449" on="0"/>
        <pt x="192" y="410" on="1"/>
        <pt x="275" y="410" on="1"/>
        <pt x="259" y="320" on="1"/>
      </contour>
    </TTGlyph>
    <TTGlyph name="u" xMin="35" yMin="-10" xMax="491" yMax="497">
      <contour>
        <pt x="296" y="0" on="1"/>
        <pt x="301" y="37" on="1"/>
        <pt x="278" y="16" on="0"/>
        <pt x="221" y="-10" on="0"/>
        <pt x="195" y="-10" on="1"/>
        <pt x="109" y="-10" on="0"/>
        <pt x="35" y="72" on="0"/>
        <pt x="35" y="145" on="1"/>
        <pt x="35" y="163" on="0"/>
        <pt x="39" y="202" on="0"/>
        <pt x="43" y="223" on="1"/>
        <pt x="91" y="497" on="1"/>
        <pt x="206" y="497" on="1"/>
        <pt x="159" y="231" on="1"/>
        <pt x="153" y="196" on="0"/>
        <pt x="153" y="170" on="1"/>
        <pt x="153" y="128" on="0"/>
        <pt x="186" y="87" on="0"/>
        <pt x="222" y="87" on="1"/>
        <pt x="249" y="87" on="0"/>
        <pt x="292" y="110" on="0"/>
        <pt x="312" y="133" on="1"/>
        <pt x="377" y="497" on="1"/>
        <pt x="491" y="497" on="1"/>
        <pt x="403" y="0" on="1"/>
      </contour>
    </TTGlyph>
</ttFont>
